<?xml version="1.0" standalone="no"?>
<!DOCTYPE svg PUBLIC "-//W3C//DTD SVG 1.1//EN" "http://www.w3.org/Graphics/SVG/1.1/DTD/svg11.dtd" >
<svg xmlns="http://www.w3.org/2000/svg">
<metadata>Generated by IcoMoon</metadata>
<defs>
<font id="icomoon" horiz-adv-x="1024">
<font-face units-per-em="1024" ascent="960" descent="-64" />
<missing-glyph horiz-adv-x="1024" />
<glyph unicode="&#x20;" horiz-adv-x="512" d="" />
<glyph unicode="&#xe900;" glyph-name="Group-150" d="M655.36 532.48c30.72-5.12 61.44-7.68 94.72-12.8 17.92 0 35.84-5.12 53.76-5.12 28.16 0 46.080 20.48 35.84 48.64-5.12 12.8-15.36 17.92-28.16 20.48-20.48 5.12-40.96 10.24-61.44 15.36-38.4 10.24-79.36 17.92-117.76 28.16-15.36 2.56-30.72 2.56-40.96-7.68-5.12-5.12-7.68-10.24-12.8-17.92-28.16-48.64-56.32-94.72-84.48-143.36-5.12-7.68-10.24-12.8-20.48-15.36-46.080-10.24-92.16-20.48-140.8-28.16-53.76-10.24-61.44-79.36-35.84-107.52 15.36-17.92 35.84-25.6 58.88-30.72 25.6-5.12 51.2-7.68 76.8-10.24s51.2-7.68 76.8-7.68c28.16 0 56.32 0 84.48 2.56 7.68 0 12.8 0 20.48 2.56 10.24 2.56 17.92 10.24 23.040 23.040 5.12 20.48-5.12 38.4-25.6 40.96s-43.52 5.12-64 5.12c-46.080 0-89.6 7.68-135.68 20.48-2.56 0-7.68 0-12.8 2.56 2.56 7.68 5.12 15.36 10.24 23.040v0c5.12 0 10.24 0 12.8 0 43.52-12.8 87.040-15.36 130.56-17.92 7.68 0 15.36 0 20.48 7.68 10.24 10.24 15.36 20.48 20.48 30.72 15.36 43.52 30.72 84.48 46.080 128 5.12 10.24 5.12 10.24 15.36 10.24zM186.88 442.88c-46.080 0-84.48-35.84-84.48-81.92 0-43.52 33.28-81.92 81.92-84.48 46.080 0 84.48 35.84 84.48 81.92s-35.84 84.48-81.92 84.48zM921.6 412.16c-5.12 40.96-28.16 74.24-61.44 97.28-7.68-5.12-12.8-10.24-20.48-17.92 30.72-20.48 51.2-46.080 56.32-81.92s-5.12-69.12-33.28-94.72c-46.080-46.080-120.32-40.96-163.84 7.68-38.4 43.52-40.96 125.44 35.84 174.080v0c-12.8 0-20.48 0-30.72 5.12-7.68 0-12.8 0-17.92-5.12-33.28-33.28-46.080-71.68-40.96-117.76 7.68-74.24 79.36-130.56 153.6-120.32 76.8 10.24 130.56 76.8 120.32 156.16zM732.16 437.76c0 5.12 0 10.24-2.56 12.8s-10.24 2.56-12.8 0c-2.56-2.56-5.12-5.12-7.68-10.24-7.68-15.36-10.24-30.72-12.8-46.080v0c0-15.36 2.56-28.16 10.24-43.52 0-2.56 2.56-5.12 5.12-7.68 2.56-5.12 10.24-7.68 15.36-2.56 5.12 2.56 5.12 7.68 2.56 12.8 0 0 0 5.12-2.56 7.68-10.24 23.040-10.24 48.64 0 71.68 0 2.56 5.12 5.12 5.12 7.68z" />
<glyph unicode="&#xe901;" glyph-name="Group-151" d="M737.28 355.84c0 0-5.12 0-7.68 2.56-7.68 2.56-15.36 5.12-23.040 10.24-2.56 0-7.68 5.12-7.68 7.68-2.56 7.68-7.68 15.36-15.36 20.48-7.68 7.68-15.36 12.8-23.040 20.48-35.84 35.84-61.44 74.24-74.24 125.44-2.56 10.24-5.12 20.48-10.24 30.72-10.24 25.6-28.16 40.96-56.32 46.080-2.56 0-5.12 0-7.68 0-40.96 0-64-15.36-76.8-48.64-7.68-23.040-7.68-48.64-5.12-74.24 5.12-33.28 10.24-66.56 12.8-102.4 0-12.8 5.12-25.6 15.36-35.84 12.8-15.36 28.16-30.72 40.96-46.080 7.68-7.68 15.36-12.8 23.040-20.48v0c-12.8-25.6-23.040-48.64-35.84-74.24 0-5.12-5.12-7.68-10.24-10.24-17.92-5.12-38.4-12.8-56.32-17.92-28.16-7.68-58.88-12.8-89.6-10.24-12.8 0-25.6 2.56-38.4 10.24-10.24 7.68-15.36 17.92-12.8 30.72 2.56 15.36 10.24 28.16 17.92 38.4 15.36 23.040 33.28 43.52 51.2 61.44 20.48 17.92 43.52 35.84 66.56 51.2 2.56 0 7.68 2.56 7.68 7.68 0 7.68-2.56 15.36-5.12 25.6 0 0-2.56 0-2.56 0-51.2-30.72-97.28-69.12-133.12-117.76-12.8-17.92-23.040-35.84-28.16-56.32-7.68-30.72 5.12-56.32 33.28-69.12 5.12-2.56 12.8-5.12 20.48-7.68 15.36 0 33.28-5.12 48.64-5.12 40.96 0 79.36 10.24 115.2 25.6 48.64 17.92 94.72 43.52 138.24 69.12 38.4 23.040 76.8 46.080 110.080 76.8 2.56 2.56 7.68 5.12 12.8 5.12 7.68 0 10.24 5.12 12.8 12.8 0 7.68 0 12.8-7.68 17.92zM629.76 289.28c0 0 0 0 0 0 5.12 20.48 0 35.84-17.92 48.64-28.16 20.48-53.76 46.080-74.24 74.24-15.36 17.92-28.16 38.4-35.84 58.88 0 5.12-2.56 10.24-5.12 15.36v0c7.68 0 12.8 5.12 17.92 7.68 0 0 2.56-2.56 2.56-5.12 23.040-56.32 66.56-99.84 115.2-135.68 5.12-5.12 10.24-7.68 17.92-10.24 10.24-5.12 20.48-7.68 30.72-2.56 5.12 2.56 10.24 0 15.36-5.12-20.48-17.92-43.52-33.28-66.56-46.080zM550.4 632.32v0c40.96 0 74.24 30.72 74.24 74.24 0 40.96-30.72 74.24-74.24 74.24-40.96 0-74.24-33.28-74.24-74.24s33.28-74.24 74.24-74.24zM360.96 284.16c-5.12-7.68-5.12-17.92 0-25.6 10.24-23.040 33.28-30.72 53.76-17.92 2.56 0 5.12 2.56 7.68 5.12 20.48 12.8 38.4 28.16 58.88 40.96 0 0 5.12 5.12 7.68 5.12-10.24 10.24-20.48 20.48-28.16 30.72-10.24 10.24-17.92 20.48-25.6 33.28 0 0-2.56 0-5.12-2.56-17.92-17.92-35.84-35.84-56.32-51.2-5.12-5.12-7.68-10.24-12.8-15.36zM570.88 199.68c-17.92-7.68-33.28-17.92-51.2-23.040-17.92-7.68-35.84-12.8-53.76-20.48-7.68-2.56-7.68-5.12-7.68-12.8 0-5.12 2.56-7.68 5.12-12.8 15.36-20.48 43.52-20.48 58.88 0 10.24 12.8 20.48 28.16 30.72 40.96 5.12 10.24 12.8 17.92 17.92 28.16v0s0 0 0 0zM240.64 268.8c10.24 20.48 23.040 38.4 38.4 53.76 0 2.56 5.12 5.12 7.68 7.68 0 5.12 0 10.24 0 12.8-5.12 5.12-10.24 5.12-15.36 0 0 0-2.56 0-5.12-2.56-20.48-23.040-38.4-46.080-51.2-71.68-5.12-12.8-10.24-28.16-10.24-43.52v0c0-5.12 0-10.24 5.12-17.92 2.56-7.68 10.24-10.24 15.36-7.68 5.12 0 7.68 7.68 5.12 15.36s-2.56 15.36 0 23.040c2.56 10.24 7.68 20.48 12.8 28.16zM721.92 296.96c0 0-5.12-2.56-5.12-5.12-23.040-23.040-48.64-43.52-76.8-58.88-2.56 0-5.12-2.56-7.68-5.12s-5.12-7.68 0-12.8c0-2.56 5.12-5.12 10.24-7.68 5.12 0 7.68 2.56 10.24 5.12 30.72 17.92 58.88 38.4 84.48 64 0 0 5.12 5.12 5.12 7.68 2.56 5.12 0 10.24 0 12.8-2.56 2.56-7.68 5.12-12.8 0zM686.080 435.2c10.24 7.68 15.36 17.92 12.8 28.16 0 12.8-7.68 23.040-20.48 25.6-15.36 2.56-30.72 5.12-46.080 7.68 0 0 0-2.56 0-2.56 12.8-23.040 28.16-40.96 46.080-58.88 2.56-2.56 7.68 0 10.24 0z" />
<glyph unicode="&#xe902;" glyph-name="Group-149" d="M791.040 330.24c-5.12 30.72-23.040 53.76-56.32 76.8-12.8 5.12-28.16 12.8-40.96 15.36-25.6 7.68-53.76 12.8-81.92 15.36-35.84 5.12-92.16 12.8-122.88 35.84-35.84 25.6-53.76 43.52-76.8 89.6s-25.6 71.68-38.4 107.52c-7.68 23.040-25.6 30.72-48.64 25.6-20.48-5.12-30.72-20.48-25.6-46.080 0 0 0-2.56 0-5.12 5.12-15.36 7.68-33.28 12.8-48.64 23.040-76.8 61.44-148.48 117.76-207.36 7.68-7.68 17.92-12.8 28.16-15.36 66.56-15.36 110.080-81.92 99.84-148.48 0-12.8-5.12-23.040-10.24-35.84 0 0 0 0 0 0 35.84 0 71.68 0 107.52 0 5.12 0 7.68 2.56 10.24 7.68 0 17.92 5.12 33.28 7.68 51.2 0 17.92 0 17.92 17.92 15.36 0 0 0 0 2.56 0 0-23.040 0-46.080 0-71.68h89.6c0 2.56 0 5.12 0 7.68 0 28.16 5.12 58.88 5.12 87.040 0 15.36 0 30.72-2.56 43.52zM611.84 448c53.76 0 97.28 43.52 97.28 97.28s-43.52 97.28-97.28 97.28c-53.76 0-97.28-43.52-97.28-97.28v0c0-53.76 43.52-97.28 97.28-97.28zM432.64 166.4c-40.96 0-71.68 28.16-79.36 69.12-5.12 25.6 2.56 46.080 20.48 66.56 5.12-5.12 7.68-7.68 10.24-12.8 0 0 5.12-5.12 7.68-2.56 0 0 5.12 5.12 5.12 7.68 0 12.8 0 23.040 0 35.84 0 5.12 0 7.68-7.68 7.68-10.24 0-23.040 0-33.28 0-2.56 0-7.68 0-10.24 0 0-10.24 7.68-12.8 10.24-17.92v0c-35.84-53.76-35.84-104.96 0-145.92 25.6-28.16 74.24-40.96 99.84-28.16 0 2.56-2.56 5.12-5.12 10.24-2.56 7.68-7.68 12.8-17.92 12.8zM514.56 314.88c-25.6 30.72-71.68 43.52-102.4 33.28 2.56-5.12 5.12-10.24 7.68-17.92 0-5.12 5.12-5.12 7.68-5.12s5.12 0 7.68 0c33.28 0 56.32-17.92 69.12-48.64 12.8-28.16 7.68-56.32-10.24-84.48v0c-5.12 5.12-7.68 10.24-12.8 12.8s-7.68 0-7.68-2.56c0-12.8 0-28.16 0-40.96 0 0 2.56-5.12 5.12-5.12 15.36 0 28.16 0 43.52 0 5.12 0 5.12 2.56 2.56 7.68s-7.68 7.68-10.24 12.8c15.36 20.48 25.6 43.52 25.6 69.12s-7.68 48.64-25.6 69.12zM387.055 752.487l2.413 0.855c6.664 2.36 13.979-1.129 16.339-7.793l39.309-111.005c2.36-6.664-1.129-13.979-7.793-16.339l-2.413-0.855c-6.664-2.36-13.979 1.129-16.339 7.793l-39.309 111.005c-2.36 6.664 1.129 13.979 7.793 16.339zM431.64 750.947l2.413 0.855c5.331 1.888 11.183-0.903 13.071-6.234l30.764-86.874c1.888-5.331-0.903-11.183-6.234-13.071l-2.413-0.855c-5.331-1.888-11.183 0.903-13.071 6.234l-30.764 86.874c-1.888 5.331 0.903 11.183 6.234 13.071zM241.261 705.601l2.435 0.791c6.723 2.185 13.944-1.495 16.129-8.218l36.39-111.996c2.185-6.723-1.495-13.944-8.218-16.129l-2.435-0.791c-6.723-2.185-13.944 1.495-16.129 8.218l-36.39 111.996c-2.185 6.723 1.495 13.944 8.218 16.129zM208.322 677.193l2.435 0.791c5.379 1.748 11.156-1.196 12.903-6.574l28.479-87.649c1.748-5.379-1.196-11.156-6.574-12.903l-2.435-0.791c-5.379-1.748-11.156 1.196-12.903 6.574l-28.479 87.649c-1.748 5.379 1.196 11.156 6.574 12.903z" />
<glyph unicode="&#xe903;" glyph-name="Group-154" d="M785.92 284.16c-5.12 10.24-12.8 17.92-25.6 23.040v0l-99.84 23.040c-2.56 40.96-12.8 117.76-43.52 176.64-5.12 7.68-5.12 17.92 0 23.040 5.12 7.68 7.68 17.92 10.24 28.16 17.92 61.44 7.68 128-28.16 184.32l-15.36 23.040c-7.68 12.8-25.6 20.48-38.4 12.8-17.92-7.68-23.040-30.72-12.8-46.080l15.36-25.6c25.6-38.4 33.28-87.040 20.48-133.12-5.12-23.040-23.040-40.96-43.52-48.64-5.12 0-38.4-10.24-48.64-15.36-33.28-12.8-92.16-64-104.96-74.24-7.68-5.12-10.24-15.36-10.24-23.040 0-10.24 5.12-17.92 10.24-23.040l87.040-71.68c5.12-5.12 12.8-7.68 20.48-7.68s2.56 0 5.12 0l-238.080-130.56c-15.36-7.68-25.6-28.16-17.92-46.080 5.12-12.8 17.92-20.48 30.72-20.48s10.24 0 17.92 5.12l268.8 148.48h76.8l71.68-17.92-56.32-76.8c-10.24-12.8-10.24-33.28 0-46.080 15.36-15.36 40.96-12.8 53.76 5.12l87.040 120.32c7.68 10.24 7.68 20.48 5.12 33.28zM440.32 414.72c17.92 12.8 35.84 28.16 48.64 35.84l5.12-79.36-53.76 43.52zM468.48 535.040c43.52 0 76.8 35.84 76.8 76.8s-35.84 76.8-76.8 76.8-76.8-35.84-76.8-76.8 35.84-76.8 76.8-76.8z" />
<glyph unicode="&#xe904;" glyph-name="Group-152" d="M680.96 422.4c-51.2-2.56-102.4-5.12-153.6-7.68 0-5.12 0-7.68 0-10.24 0-43.52 2.56-87.040 5.12-130.56 0 0 0 0 0-2.56 0-30.72-12.8-46.080-43.52-48.64-5.12 0-12.8 0-17.92 0-53.76 0-110.080 0-163.84 0-20.48 0-35.84 10.24-40.96 28.16-5.12 23.040 0 46.080 17.92 53.76 5.12 2.56 12.8 5.12 17.92 5.12 35.84 2.56 71.68 5.12 107.52 7.68 5.12 0 12.8 0 20.48 0 0 10.24 0 20.48-2.56 30.72-5.12 35.84-10.24 71.68-15.36 110.080-5.12 35.84 12.8 58.88 48.64 64 79.36 10.24 156.16 23.040 235.52 33.28 15.36 0 33.28 0 46.080-7.68 20.48-10.24 30.72-28.16 30.72-48.64 0-12.8 0-25.6 0-38.4v-199.68c0-5.12 0-7.68 0-12.8 0-17.92-15.36-33.28-33.28-33.28-20.48 0-35.84 7.68-40.96 28.16-2.56 15.36-5.12 30.72-5.12 46.080-5.12 46.080-7.68 92.16-12.8 140.8v0zM839.68 517.12c-46.080 0-81.92 35.84-81.92 81.92s38.4 81.92 81.92 81.92c43.52 0 79.36-38.4 79.36-81.92 0-46.080-35.84-79.36-81.92-79.36zM386.56 517.12c-12.8 0-25.6 0-38.4 0-64 0-130.56 0-194.56-5.12-10.24 0-17.92 0-25.6-5.12-17.92-7.68-25.6-28.16-20.48-46.080 5.12-20.48 20.48-33.28 40.96-33.28 12.8 0 25.6 0 40.96 0 17.92 0 33.28 0 51.2 0 5.12 0 7.68 0 10.24 0h135.68c0 0-7.68 28.16-5.12 51.2s17.92 43.52 17.92 43.52h-5.12z" />
<glyph unicode="&#xe905;" glyph-name="Group-156" d="M435.2 499.2s61.44-184.32 133.12-179.2c71.68 5.12 120.32 143.36 122.88 151.040 2.56 10.24 0 15.36-7.68 28.16v0c-5.12 12.8-33.28 15.36-33.28 15.36h-138.24s43.52-99.84 56.32-99.84c7.68 0 15.36 12.8 23.040 25.6 5.12 7.68 7.68 12.8 7.68 12.8 5.12 0-23.040-46.080-33.28-51.2-7.68-5.12-35.84 56.32-53.76 92.16-5.12 12.8-10.24 23.040-12.8 25.6-7.68 12.8-23.040 20.48-46.080 12.8-20.48-7.68-23.040-33.28-23.040-33.28zM430.080 668.16l-12.8-5.12 30.72-69.12-17.92 74.24zM565.76 537.6c53.76 0 99.84 43.52 99.84 99.84s-43.52 99.84-99.84 99.84-99.84-43.52-99.84-99.84 43.52-99.84 99.84-99.84zM312.32 547.84l-2.56-15.36 76.8-5.12-74.24 20.48zM686.080 424.96c-5.12 0-12.8-12.8-23.040-30.72-17.92-30.72-40.96-79.36-84.48-84.48-17.92 0-30.72 2.56-43.52 7.68-35.84 17.92-64 61.44-107.52 166.4 0 12.8-5.12 17.92-10.24 17.92-17.92 7.68-71.68-46.080-79.36-110.080 0-10.24-7.68-51.2 15.36-89.6 7.68-12.8 20.48-25.6 46.080-46.080 46.080-38.4 69.12-56.32 92.16-51.2 15.36 2.56 33.28 15.36 35.84 33.28 0 17.92-12.8 30.72-17.92 33.28v0c-5.12 0-81.92 17.92-94.72 71.68-7.68 33.28 10.24 66.56 12.8 66.56 0 0 0-2.56 0-7.68-2.56-10.24-10.24-35.84 0-56.32 15.36-28.16 58.88-53.76 84.48-64 46.080-17.92 12.8-69.12 12.8-69.12s-15.36-20.48-46.080-15.36c-25.6 5.12-43.52 20.48-48.64 25.6v-64h250.88c20.48 209.92 15.36 263.68 2.56 266.24zM430.080 225.28s0 0 0 0v0s0 0 0 0zM307.2 657.92l-17.92-23.040 117.76-74.24-99.84 97.28z" />
<glyph unicode="&#xe906;" glyph-name="Group-157" d="M276.48 263.68l-7.68-17.92 87.040-20.48-79.36 38.4zM217.6 176.64l7.68-30.72 156.16 53.76-163.84-23.040zM486.4 440.32c51.2 0 94.72 40.96 94.72 94.72s-40.96 94.72-94.72 94.72-94.72-40.96-94.72-94.72 40.96-94.72 94.72-94.72zM335.36 133.12l58.88 69.12-71.68-53.76 12.8-15.36zM757.76 202.24c0 51.2-5.12 117.76-43.52 192-5.12 7.68-5.12 17.92 0 25.6v0c12.8 40.96 20.48 171.52-53.76 294.4-2.56 5.12-10.24 10.24-15.36 12.8h-7.68c-20.48 12.8-46.080 0-46.080-25.6 0-5.12 0-12.8 2.56-17.92 15.36-30.72 71.68-151.040 35.84-215.040-35.84-58.88-107.52-71.68-133.12-74.24-5.12 0-10.24 0-15.36-5.12-28.16-20.48-122.88-87.040-117.76-117.76 5.12-35.84 81.92-104.96 133.12-122.88 2.56 0 7.68 0 10.24 0h215.040c20.48 0 40.96 35.84 38.4 56.32zM494.080 204.8v0s-56.32 56.32-56.32 56.32l56.32 38.4v-94.72z" />
<glyph unicode="&#xe907;" glyph-name="Group-158" d="M512 614.4c33.28 10.24 69.12-5.12 81.92-38.4l20.48-53.76c46.080 10.24 79.36 51.2 76.8 99.84s-48.64 94.72-104.96 92.16-97.28-48.64-94.72-102.4 0-2.56 0-5.12c0 0 0 0 0-2.56 5.12 5.12 12.8 10.24 20.48 12.8zM665.6 314.88c0 0 0 2.56 0 5.12v0s0 0 0 2.56c0 0 0 0 0 0s0 0 0 2.56l-89.6 240.64c-5.12 10.24-12.8 20.48-25.6 25.6-10.24 5.12-25.6 5.12-35.84 0-12.8-5.12-20.48-12.8-25.6-23.040s-5.12-23.040 0-35.84l28.16-84.48c-10.24 12.8-17.92 12.8-35.84 15.36l-35.84 5.12c-17.92 2.56-38.4 0-53.76-10.24-17.92-10.24-28.16-30.72-30.72-48.64l-48.64-250.88c-2.56-15.36 7.68-28.16 23.040-28.16h133.12c15.36 0 28.16 10.24 33.28 25.6l28.16 151.040 61.44-40.96c7.68-5.12 17.92-7.68 28.16-7.68 15.36 0 33.28 7.68 43.52 23.040 5.12 7.68 7.68 15.36 7.68 23.040 0 0 0 2.56 0 5.12v0s0 0 0 2.56v0zM358.4 660.48l-30.72-23.040 130.56-133.12-99.84 156.16zM422.4 668.16h20.48c0 2.56 5.12-97.28 5.12-97.28l-25.6 97.28zM320 527.36l7.68 20.48 94.72-40.96-102.4 20.48z" />
<glyph unicode="&#xe908;" glyph-name="Group-155" d="M701.44 691.2l-89.6-140.8 117.76 120.32-28.16 20.48zM742.4 524.8l-7.68 17.92-81.92-38.4 89.6 20.48zM609.28 496.64c0 0 0 5.12-2.56 5.12-5.12 20.48-20.48 35.84-40.96 40.96l-212.48 46.080c-30.72 7.68-58.88-12.8-64-40.96v0c-7.68-30.72 12.8-58.88 40.96-64l181.76-40.96 74.24-186.88c10.24-28.16 43.52-40.96 71.68-30.72v0c28.16 10.24 40.96 43.52 30.72 69.12l-79.36 199.68zM578.56 668.16l-5.12-92.16 23.040 89.6-17.92 2.56z" />
<glyph unicode="&#xe909;" glyph-name="Group-163" d="M294.4 522.24h158.72c2.56-133.12 94.72-222.72 222.72-261.12 15.36-5.12 30.72 5.12 35.84 20.48s-5.12 30.72-20.48 35.84c-35.84 10.24-69.12 30.72-97.28 56.32-12.8 10.24-17.92 25.6-17.92 40.96 0 10.24-2.56 25.6-10.24 38.4-5.12 7.68-12.8 12.8-20.48 17.92-28.16 15.36-30.72 38.4-30.72 74.24v5.12c0 15.36-12.8 28.16-28.16 28.16h-186.88c-15.36 0-28.16-12.8-28.16-28.16s12.8-28.16 28.16-28.16zM512 660.48c0-24.035-19.485-43.52-43.52-43.52s-43.52 19.485-43.52 43.52c0 24.035 19.485 43.52 43.52 43.52s43.52-19.485 43.52-43.52zM716.8 217.6h-435.2c-15.36 0-25.6-10.24-25.6-25.6s10.24-25.6 25.6-25.6h435.2c15.36 0 25.6 10.24 25.6 25.6s-10.24 25.6-25.6 25.6zM535.040 542.72c0-10.24 0-15.36 0-23.040h128c15.36 0 28.16 12.8 28.16 28.16s-12.8 28.16-28.16 28.16h-138.24c5.12-7.68 7.68-17.92 7.68-28.16v-5.12zM373.76 404.48c-10.24-5.12-15.36-15.36-15.36-25.6v-87.040c0-15.36 12.8-28.16 28.16-28.16s28.16 12.8 28.16 28.16v69.12l40.96 20.48c-10.24 15.36-17.92 33.28-25.6 51.2l-58.88-28.16z" />
<glyph unicode="&#xe90a;" glyph-name="Group-162" d="M655.36 473.6c48.64 5.12 89.6 46.080 89.6 97.28s-35.84 89.6-81.92 97.28v35.84c0 7.68-7.68 15.36-15.36 15.36h-268.8c-7.68 0-15.36-7.68-15.36-15.36v-35.84c-46.080-7.68-81.92-48.64-81.92-97.28s38.4-92.16 89.6-97.28c0 0 0-2.56 0-5.12 0 0 0 0 0 0s0 0 0 0c15.36-46.080 51.2-81.92 97.28-97.28v-38.4c-20.48-10.24-38.4-25.6-48.64-43.52h-48.64c-7.68 0-15.36-7.68-15.36-15.36v-81.92c0-7.68 7.68-15.36 15.36-15.36h279.040c7.68 0 15.36 7.68 15.36 15.36v81.92c0 7.68-7.68 15.36-15.36 15.36h-48.64c-10.24 20.48-28.16 35.84-48.64 43.52v38.4c48.64 15.36 87.040 53.76 99.84 102.4zM714.24 570.88c0-33.28-23.040-58.88-53.76-66.56 0 2.56 0 133.12 0 133.12 30.72-7.68 53.76-33.28 53.76-66.56zM309.76 570.88c0 33.28 23.040 58.88 53.76 66.56 0 0 0-130.56 0-133.12-30.72 7.68-53.76 33.28-53.76 66.56zM581.12 268.8c0-5.12 7.68-7.68 12.8-7.68h40.96v-53.76h-250.88v53.76h40.96c5.12 0 10.24 2.56 12.8 7.68 7.68 20.48 25.6 33.28 46.080 40.96 5.12 0 10.24 7.68 10.24 12.8v43.52c5.12 0 10.24 0 12.8 0s10.24 0 12.8 0v-43.52c0-5.12 5.12-12.8 10.24-12.8 20.48-7.68 35.84-20.48 46.080-40.96zM542.72 399.36c-10.24 0-20.48-5.12-30.72-5.12s-17.92 0-25.6 2.56v0c-43.52 10.24-76.8 43.52-89.6 84.48 0 0 0 0 0 0-2.56 10.24-5.12 20.48-5.12 30.72v174.080h240.64v-174.080c0-7.68 0-17.92-2.56-25.6 0 0 0 0 0-2.56 0-7.68-5.12-15.36-7.68-20.48 0 0 0 0 0 0-15.36-33.28-43.52-56.32-79.36-66.56zM611.84 581.12c5.12 5.12 5.12 10.24 2.56 15.36 0 5.12-5.12 10.24-12.8 10.24l-53.76 7.68-23.040 48.64c0 5.12-7.68 7.68-12.8 7.68s-10.24-2.56-12.8-7.68l-23.040-48.64-53.76-7.68c-5.12 0-10.24-5.12-12.8-10.24 0-5.12 0-10.24 2.56-15.36l38.4-38.4-10.24-53.76c0-5.12 0-10.24 5.12-15.36 5.12-2.56 10.24-2.56 15.36 0l48.64 25.6 48.64-25.6c0 0 5.12 0 7.68 0s5.12 0 7.68 2.56 7.68 7.68 5.12 15.36l-10.24 53.76 38.4 38.4zM545.28 558.080c-2.56-2.56-5.12-7.68-5.12-12.8l5.12-30.72-28.16 15.36c0 0-5.12 0-7.68 0s-5.12 0-7.68 0l-28.16-15.36 5.12 30.72c0 5.12 0 10.24-5.12 12.8l-23.040 23.040 30.72 5.12c5.12 0 7.68 2.56 10.24 7.68l15.36 28.16 15.36-28.16c0-5.12 5.12-7.68 10.24-7.68l30.72-5.12-23.040-23.040z" />
<glyph unicode="&#xe90b;" glyph-name="Group-159" d="M796.16 473.6l-256 225.28c-5.12 5.12-15.36 7.68-20.48 7.68s-15.36 0-23.040-7.68l-256-222.72c-7.68-7.68-10.24-15.36-10.24-23.040 0-17.92 12.8-33.28 33.28-33.28h33.28v-69.12s0 0 0-2.56v-112.64c0-23.040 17.92-40.96 40.96-40.96h15.36s0 0 2.56 0c0 0 2.56 0 5.12 0h56.32c23.040 0 40.96 17.92 40.96 40.96v87.040c0 17.92 15.36 30.72 30.72 30.72h64c17.92 0 30.72-15.36 30.72-30.72v-87.040c0-23.040 17.92-40.96 40.96-40.96h56.32c0 0 2.56 0 5.12 0 0 0 0 0 2.56 0h15.36c23.040 0 40.96 17.92 40.96 40.96v15.36c0 2.56 0 5.12 0 7.68v161.28s30.72 0 30.72 0c17.92 0 30.72 15.36 30.72 33.28 0 10.24-2.56 17.92-10.24 23.040z" />
<glyph unicode="&#xe90c;" glyph-name="Group-160" d="M576 250.88h-268.8c-10.24 0-17.92 7.68-17.92 17.92v268.8c0 64 53.76 117.76 117.76 117.76h166.4c64 0 117.76-53.76 117.76-117.76v-66.56c0-10.24 7.68-17.92 17.92-17.92s17.92 7.68 17.92 17.92v66.56c0 81.92-66.56 151.040-151.040 151.040h-166.4c-81.92 0-151.040-66.56-151.040-151.040v-268.8c0-28.16 23.040-51.2 51.2-51.2h268.8c10.24 0 17.92 7.68 17.92 17.92s-7.68 17.92-17.92 17.92zM593.92 501.76c0 10.24-7.68 17.92-17.92 17.92h-235.52c-10.24 0-17.92-7.68-17.92-17.92s7.68-17.92 17.92-17.92h235.52c10.24 0 17.92 7.68 17.92 17.92zM337.92 417.28c-7.68 0-12.8-7.68-12.8-17.92s5.12-17.92 12.8-17.92h133.12c7.68 0 12.8 7.68 12.8 17.92s-5.12 17.92-12.8 17.92h-133.12zM642.56 442.88c-46.080 0-84.48-38.4-84.48-84.48s38.4-84.48 84.48-84.48 84.48 38.4 84.48 84.48-38.4 84.48-84.48 84.48zM642.56 309.76c-28.16 0-51.2 23.040-51.2 51.2s23.040 51.2 51.2 51.2 51.2-23.040 51.2-51.2-23.040-51.2-51.2-51.2zM788.48 238.080l-51.2 51.2c-7.68 7.68-17.92 7.68-23.040 0-7.68-7.68-7.68-17.92 0-23.040l51.2-51.2c2.56-2.56 7.68-5.12 12.8-5.12s7.68 0 12.8 5.12c7.68 7.68 7.68 17.92 0 23.040z" />
<glyph unicode="&#xe90d;" glyph-name="Group-161" d="M512 563.2c-64 0-115.2-51.2-115.2-115.2s51.2-115.2 115.2-115.2 115.2 51.2 115.2 115.2-51.2 115.2-115.2 115.2zM512 358.4c-48.64 0-89.6 40.96-89.6 89.6s40.96 89.6 89.6 89.6 89.6-40.96 89.6-89.6-40.96-89.6-89.6-89.6zM780.8 478.72c0 5.12 0 7.68 0 12.8-2.56 7.68-10.24 15.36-17.92 20.48-2.56 0-7.68 2.56-12.8 2.56-2.56 0-7.68 0-12.8 0-10.24 0-17.92 0-23.040 2.56-5.12 0-7.68 0-7.68 0-2.56 2.56-5.12 7.68-5.12 12.8 0 0 0 0 2.56 7.68 2.56 5.12 7.68 10.24 15.36 17.92 2.56 5.12 5.12 7.68 7.68 10.24 0 2.56 5.12 7.68 5.12 10.24v0s0 0 0 0v0c2.56 7.68 0 17.92 0 28.16 0 5.12-5.12 7.68-7.68 10.24s-5.12 5.12-10.24 10.24l-23.040 23.040c-2.56 2.56-7.68 7.68-10.24 10.24s-5.12 5.12-10.24 7.68c-7.68 2.56-17.92 5.12-28.16 0-5.12 0-7.68-2.56-10.24-5.12-2.56 0-7.68-5.12-10.24-7.68-7.68-7.68-12.8-10.24-17.92-15.36-5.12-2.56-5.12-2.56-7.68-2.56-5.12 0-10.24 0-12.8 5.12 0 0 0 0 0 7.68 0 5.12 0 12.8-2.56 23.040 0 5.12 0 10.24 0 12.8 0 5.12 0 7.68-2.56 12.8-5.12 7.68-10.24 15.36-20.48 17.92-5.12 0-7.68 0-12.8 0s-7.68 0-12.8 0h-33.28c-5.12 0-10.24 0-12.8 0-5.12 0-7.68 0-12.8 0-7.68-2.56-15.36-10.24-20.48-17.92 0-2.56-2.56-7.68-2.56-12.8 0-2.56 0-7.68 0-12.8 0-10.24 0-17.92-2.56-23.040 0-5.12 0-7.68 0-7.68-2.56-2.56-7.68-5.12-12.8-5.12 0 0 0 0-7.68 2.56-5.12 2.56-10.24 7.68-17.92 15.36-5.12 2.56-7.68 5.12-10.24 7.68-2.56 0-7.68 5.12-10.24 5.12-7.68 2.56-17.92 0-28.16 0-5.12 0-7.68-5.12-10.24-7.68s-5.12-5.12-10.24-10.24l-23.040-23.040c-2.56-2.56-7.68-7.68-10.24-10.24s-5.12-5.12-7.68-10.24c-2.56-7.68-5.12-17.92 0-28.16 0-5.12 2.56-7.68 5.12-10.24 0-2.56 5.12-7.68 7.68-10.24 7.68-7.68 10.24-12.8 15.36-17.92 2.56-5.12 2.56-5.12 2.56-7.68 0-5.12 0-10.24-5.12-12.8 0 0 0 0-7.68 0-5.12 0-12.8 0-23.040-2.56-5.12 0-10.24 0-12.8 0-5.12 0-7.68 0-12.8-2.56v0c-7.68-5.12-15.36-10.24-17.92-20.48 0-5.12 0-7.68 0-12.8s0-7.68 0-12.8v-33.28c0-5.12 0-10.24 0-12.8 0-5.12 0-7.68 0-12.8 2.56-7.68 10.24-15.36 17.92-20.48 2.56 0 7.68-2.56 12.8-2.56 2.56 0 7.68 0 12.8 0 10.24 0 17.92 0 23.040-2.56 5.12 0 7.68 0 7.68 0 2.56-2.56 5.12-7.68 5.12-12.8 0 0 0 0-2.56-7.68-2.56-5.12-7.68-10.24-15.36-17.92-2.56-5.12-5.12-7.68-7.68-10.24 0-2.56-5.12-7.68-5.12-10.24-2.56-7.68 0-17.92 0-28.16 0-5.12 5.12-7.68 7.68-10.24s5.12-5.12 10.24-10.24l23.040-23.040c2.56-2.56 7.68-7.68 10.24-10.24s5.12-5.12 10.24-7.68c7.68-2.56 17.92-5.12 28.16 0 5.12 0 7.68 2.56 10.24 5.12 2.56 0 7.68 5.12 10.24 7.68v0s0 0 0 0c7.68 7.68 12.8 10.24 17.92 15.36 5.12 2.56 5.12 2.56 7.68 2.56 5.12 0 10.24 0 12.8-5.12 0 0 0 0 0-7.68 0-5.12 0-12.8 2.56-23.040 0-5.12 0-10.24 0-12.8 0-5.12 0-7.68 2.56-12.8 5.12-7.68 10.24-15.36 20.48-17.92 5.12 0 7.68 0 12.8 0s7.68 0 12.8 0h33.28c5.12 0 10.24 0 12.8 0 5.12 0 7.68 0 12.8 0 7.68 2.56 15.36 10.24 20.48 17.92 0 2.56 2.56 7.68 2.56 12.8 0 2.56 0 7.68 0 12.8 0 10.24 0 17.92 2.56 23.040 0 5.12 0 7.68 0 7.68 2.56 2.56 7.68 5.12 12.8 5.12 0 0 0 0 7.68-2.56 5.12-2.56 10.24-7.68 17.92-15.36v0s0 0 0 0c5.12-2.56 7.68-5.12 10.24-7.68 2.56 0 7.68-5.12 10.24-5.12 7.68-2.56 17.92 0 28.16 0 5.12 0 7.68 5.12 10.24 7.68s5.12 5.12 10.24 10.24l23.040 23.040c2.56 2.56 7.68 7.68 10.24 10.24s5.12 5.12 7.68 10.24c2.56 7.68 5.12 17.92 0 28.16 0 5.12-2.56 7.68-5.12 10.24 0 2.56-5.12 7.68-7.68 10.24-7.68 7.68-10.24 12.8-15.36 17.92-2.56 5.12-2.56 5.12-2.56 7.68 0 5.12 0 10.24 5.12 12.8 0 0 0 0 7.68 0 5.12 0 12.8 0 23.040 2.56v0s0 0 0 0c5.12 0 10.24 0 12.8 0 5.12 0 7.68 0 12.8 2.56 7.68 5.12 15.36 10.24 17.92 20.48 0 5.12 0 7.68 0 12.8s0 7.68 0 12.8v33.28c0 5.12 0 10.24 0 12.8zM755.2 432.64c0-5.12 0-10.24 0-12.8s0-2.56 0-5.12-2.56-5.12-5.12-7.68c0 0 0 0-5.12 0-2.56 0-7.68 0-12.8 0v0s0 0 0 0c-10.24 0-17.92 0-25.6-2.56-7.68 0-12.8-2.56-17.92-7.68-10.24-7.68-15.36-23.040-15.36-35.84 0-7.68 5.12-12.8 7.68-17.92s10.24-12.8 15.36-20.48c2.56-5.12 5.12-7.68 7.68-10.24 0 0 0-2.56 0-2.56 0-2.56 0-5.12 0-10.24 0 0 0 0 0-2.56 0 0-5.12-5.12-7.68-7.68l-23.040-23.040c-5.12-5.12-7.68-7.68-7.68-7.68s-2.56 0-2.56 0-5.12 0-10.24 0c0 0 0 0-2.56 0 0 0-5.12 5.12-10.24 7.68v0s0 0 0 0c-7.68 7.68-15.36 12.8-20.48 15.36s-10.24 7.68-17.92 7.68c-12.8 0-28.16-2.56-35.84-15.36-5.12-5.12-5.12-12.8-7.68-17.92 0-7.68 0-15.36-2.56-25.6 0-5.12 0-10.24 0-12.8s0-2.56 0-5.12-2.56-5.12-7.68-5.12c0 0 0 0-5.12 0-2.56 0-7.68 0-12.8 0h-33.28c-5.12 0-10.24 0-12.8 0s-2.56 0-5.12 0-5.12 2.56-7.68 5.12c0 0 0 0 0 5.12 0 2.56 0 7.68 0 12.8 0 10.24 0 17.92-2.56 25.6 0 7.68-2.56 12.8-7.68 17.92-7.68 10.24-23.040 15.36-35.84 15.36-7.68 0-12.8-5.12-17.92-7.68s-12.8-10.24-20.48-15.36c-5.12-2.56-7.68-5.12-10.24-7.68 0 0-2.56 0-2.56 0-2.56 0-5.12 0-10.24 0 0 0 0 0-2.56 0 0 0-5.12 5.12-7.68 7.68l-23.040 23.040c-5.12 5.12-7.68 7.68-7.68 7.68s0 2.56 0 2.56 0 5.12 0 10.24c0 0 0 0 0 2.56 0 0 5.12 5.12 7.68 10.24 7.68 7.68 12.8 15.36 15.36 20.48s7.68 10.24 7.68 17.92c0 12.8-2.56 28.16-15.36 35.84-5.12 5.12-12.8 5.12-17.92 7.68-7.68 0-15.36 0-25.6 2.56-5.12 0-10.24 0-12.8 0s-2.56 0-5.12 0-5.12 2.56-5.12 7.68c0 0 0 0 0 5.12 0 2.56 0 7.68 0 12.8v33.28c0 5.12 0 10.24 0 12.8s0 2.56 0 5.12 2.56 5.12 5.12 7.68c0 0 0 0 5.12 0 2.56 0 7.68 0 12.8 0 10.24 0 17.92 0 25.6 2.56 7.68 0 12.8 2.56 17.92 7.68 10.24 7.68 15.36 23.040 15.36 35.84 0 7.68-5.12 12.8-7.68 17.92s-10.24 12.8-15.36 20.48c-2.56 5.12-5.12 7.68-7.68 10.24 0 0 0 2.56 0 2.56 0 2.56 0 5.12 0 10.24 0 0 0 0 0 2.56 0 0 5.12 5.12 7.68 7.68l23.040 23.040c5.12 5.12 7.68 7.68 7.68 7.68s2.56 0 2.56 0 5.12 0 10.24 0c0 0 0 0 2.56 0 0 0 5.12-5.12 10.24-7.68 7.68-7.68 15.36-12.8 20.48-15.36s10.24-7.68 17.92-7.68c12.8 0 28.16 2.56 35.84 15.36 5.12 5.12 5.12 12.8 7.68 17.92 0 7.68 0 15.36 2.56 25.6 0 5.12 0 10.24 0 12.8s0 2.56 0 5.12 2.56 5.12 7.68 5.12c0 0 0 0 5.12 0 2.56 0 7.68 0 12.8 0h33.28c5.12 0 10.24 0 12.8 0s2.56 0 5.12 0 5.12-2.56 7.68-5.12c0 0 0 0 0-5.12 0-2.56 0-7.68 0-12.8 0-10.24 0-17.92 2.56-25.6 0-7.68 2.56-12.8 7.68-17.92v0c7.68-10.24 23.040-15.36 35.84-15.36 7.68 0 12.8 5.12 17.92 7.68s12.8 10.24 20.48 15.36c5.12 2.56 7.68 5.12 10.24 7.68 0 0 2.56 0 2.56 0 2.56 0 5.12 0 10.24 0 0 0 0 0 2.56 0 0 0 5.12-5.12 7.68-7.68l23.040-23.040c5.12-5.12 7.68-7.68 7.68-7.68s0-2.56 0-2.56 0-5.12 0-10.24c0 0 0 0 0-2.56 0 0-5.12-5.12-7.68-10.24-7.68-7.68-12.8-15.36-15.36-20.48s-7.68-10.24-7.68-17.92c0-12.8 2.56-28.16 15.36-35.84 5.12-5.12 12.8-5.12 17.92-7.68 7.68 0 15.36 0 25.6-2.56 5.12 0 10.24 0 12.8 0s2.56 0 5.12 0 5.12-2.56 5.12-7.68c0 0 0 0 0-5.12 0-2.56 0-7.68 0-12.8v-33.28z" />
<glyph unicode="&#xe90e;" glyph-name="Group-165" d="M640 468.48l-184.32 140.8c-23.040 17.92-56.32 0-56.32-28.16v-266.24c0-30.72 33.28-46.080 56.32-28.16l184.32 140.8c12.8 10.24 12.8 30.72 0 40.96z" />
<glyph unicode="&#xe90f;" glyph-name="Group-166" d="M768 335.36c-5.12 7.68-10.24 17.92-17.92 30.72v0s0 0 0 0l-17.92 28.16c-15.36 28.16-25.6 58.88-30.72 89.6v0c0 0 0 12.8 0 12.8-10.24-2.56-20.48-5.12-30.72-5.12v-10.24s0 0 0 0c5.12-35.84 15.36-69.12 33.28-99.84v0c0 0 17.92-30.72 17.92-30.72 7.68-12.8 12.8-23.040 17.92-28.16 2.56-7.68 2.56-10.24 2.56-10.24 0-2.56 0-7.68-5.12-10.24 0 0-2.56 0-10.24-2.56-7.68 0-17.92 0-33.28 0h-363.52c-15.36 0-25.6 0-33.28 0s-10.24 0-10.24 2.56c-2.56 0-5.12 5.12-5.12 10.24 0 0 0 2.56 2.56 10.24s7.68 15.36 17.92 28.16l17.92 28.16c17.92 33.28 30.72 66.56 33.28 102.4v0c0 0 7.68 69.12 7.68 69.12 7.68 76.8 74.24 135.68 151.040 135.68s33.28-2.56 51.2-7.68c5.12 7.68 12.8 17.92 20.48 23.040-23.040 10.24-46.080 15.36-71.68 15.36-92.16 0-171.52-69.12-181.76-161.28l-7.68-66.56c-2.56-33.28-12.8-64-30.72-89.6v0c0 0-17.92-30.72-17.92-30.72v0c-7.68-12.8-12.8-23.040-17.92-33.28-5.12-7.68-7.68-17.92-5.12-28.16 0-10.24 7.68-20.48 15.36-28.16s17.92-7.68 25.6-10.24c10.24 0 20.48 0 35.84 0h81.92s0 0 0 0c5.12-25.6 17.92-48.64 35.84-64s40.96-25.6 64-25.6 46.080 10.24 64 25.6c17.92 15.36 30.72 38.4 35.84 64 0 0 0 0 0 0h81.92c15.36 0 25.6 0 35.84 0s17.92 2.56 25.6 10.24c7.68 7.68 12.8 17.92 15.36 28.16 0 10.24 0 20.48-5.12 28.16zM555.52 227.84c-25.6-23.040-64-23.040-89.6 0-12.8 10.24-20.48 25.6-25.6 40.96h140.8c-5.12-15.36-12.8-30.72-25.6-40.96zM660.48 552.96s0 0 0 0c0 0 0 0 0 0s0 0 0 0c2.56 0 7.68 0 10.24 0 0 0 2.56 0 5.12 0s5.12 0 7.68 5.12c0 0 0 0 0 0s0 0 0 0c17.92 10.24 28.16 28.16 28.16 51.2 0 33.28-25.6 58.88-58.88 58.88s-17.92 0-23.040-5.12c0 0 0 0 0 0s0 0 0 0c-2.56 0-7.68-2.56-10.24-5.12 0 0 0 0-2.56-2.56-2.56 0-5.12-5.12-7.68-7.68 0 0 0 0 0 0s0 0 0 0c-7.68-10.24-12.8-23.040-12.8-35.84 0-33.28 25.6-58.88 58.88-58.88z" />
<glyph unicode="&#xe910;" glyph-name="Group-164" d="M552.96 207.36h-64c-117.76 0-215.040 97.28-215.040 215.040v64c0 117.76 97.28 215.040 215.040 215.040h64c117.76 0 215.040-97.28 215.040-215.040v-64c0-117.76-97.28-215.040-215.040-215.040zM488.96 663.040c-97.28 0-176.64-79.36-176.64-176.64v-64c0-97.28 79.36-176.64 176.64-176.64h64c97.28 0 176.64 79.36 176.64 176.64v64c0 97.28-79.36 176.64-176.64 176.64h-64zM522.24 304.64c-10.24 0-20.48 7.68-20.48 20.48v130.56c0 10.24 7.68 20.48 20.48 20.48s20.48-7.68 20.48-20.48v-130.56c0-10.24-7.68-20.48-20.48-20.48zM522.24 535.040c-10.24 0-15.36 7.68-15.36 15.36s7.68 15.36 15.36 15.36 15.36-7.68 15.36-15.36-7.68-15.36-15.36-15.36zM522.24 583.68c17.92 0 33.28-15.36 33.28-33.28s-15.36-33.28-33.28-33.28-33.28 15.36-33.28 33.28 15.36 33.28 33.28 33.28z" />
<glyph unicode="&#xe911;" glyph-name="Group-167" d="M483.84 627.2v-256c0-15.36 12.8-25.6 28.16-25.6s28.16 12.8 28.16 25.6v256l135.68-133.12 38.4 38.4-181.76 179.2-20.48 17.92-20.48-17.92-181.76-179.2 38.4-38.4 135.68 133.12zM739.84 299.52v-35.84c0-25.6-20.48-43.52-46.080-43.52h-363.52c-25.6 0-46.080 20.48-46.080 43.52v35.84h-53.76v-35.84c0-53.76 46.080-97.28 99.84-97.28h363.52c56.32 0 99.84 43.52 99.84 97.28v35.84h-53.76z" />
<glyph unicode="&#xe912;" glyph-name="Group-168" d="M509.44 458.24c-76.8 0-138.24 61.44-138.24 135.68s61.44 135.68 138.24 135.68 138.24-61.44 138.24-135.68-61.44-135.68-138.24-135.68zM509.44 673.28c-46.080 0-84.48-35.84-84.48-79.36s38.4-79.36 84.48-79.36 84.48 35.84 84.48 79.36-38.4 79.36-84.48 79.36zM762.88 166.4c-15.36 0-28.16 12.8-28.16 30.72v64c0 56.32-51.2 102.4-115.2 102.4h-215.040c-64 0-115.2-46.080-115.2-102.4v-64c0-15.36-12.8-30.72-28.16-30.72s-28.16 12.8-28.16 30.72v64c0 89.6 76.8 163.84 174.080 163.84h215.040c94.72 0 174.080-74.24 174.080-163.84v-64c0-15.36-12.8-30.72-28.16-30.72z" />
<glyph unicode="&#xe913;" glyph-name="Group-169" d="M706.56 652.8h-386.56c-48.64 0-87.040-38.4-87.040-84.48v-243.2c0-46.080 38.4-84.48 87.040-84.48h386.56c48.64 0 87.040 38.4 87.040 84.48v243.2c0 46.080-38.4 84.48-87.040 84.48zM601.6 450.56l148.48 135.68c2.56-5.12 5.12-12.8 5.12-17.92v-243.2c0-5.12 0-7.68 0-10.24l-151.040 135.68zM706.56 611.84c2.56 0 5.12 0 7.68 0l-176.64-163.84c-15.36-12.8-35.84-12.8-51.2 0l-176.64 163.84c2.56 0 5.12 0 7.68 0h386.56zM271.36 314.88c0 2.56 0 7.68 0 12.8v243.2c0 7.68 0 12.8 5.12 17.92l148.48-138.24-153.6-133.12zM317.44 284.16c-5.12 0-10.24 0-15.36 2.56l153.6 135.68 5.12-5.12c15.36-12.8 33.28-20.48 51.2-20.48s35.84 7.68 51.2 20.48l7.68 7.68 151.040-135.68c-5.12 0-10.24-2.56-17.92-2.56h-386.56z" />
<glyph unicode="&#xe914;" glyph-name="Group-170" d="M680.96 519.68v66.56c0 92.16-74.24 166.4-168.96 166.4s-168.96-74.24-168.96-166.4v-69.12c-51.2-10.24-87.040-53.76-87.040-107.52v-112.64c0-61.44 48.64-110.080 110.080-110.080h289.28c61.44 0 110.080 48.64 110.080 110.080v112.64c0 53.76-38.4 97.28-87.040 107.52zM512 711.68c69.12 0 125.44-56.32 125.44-125.44v-66.56h-250.88v66.56c0 69.12 56.32 125.44 125.44 125.44zM724.48 299.52c0-38.4-30.72-69.12-69.12-69.12h-289.28c-38.4 0-69.12 30.72-69.12 69.12v112.64c0 38.4 30.72 66.56 66.56 69.12 0 0 0 0 0 0h294.4s0 0 0 0c35.84 0 66.56-30.72 66.56-69.12v-112.64zM512 435.2c-28.16 0-51.2-23.040-51.2-48.64s12.8-35.84 28.16-43.52v-46.080c0-7.68 10.24-15.36 20.48-15.36s20.48 7.68 20.48 15.36v46.080c17.92 7.68 28.16 25.6 28.16 43.52s-23.040 48.64-51.2 48.64zM512 394.24c5.12 0 7.68-5.12 7.68-7.68s-2.56-7.68-7.68-7.68-7.68 5.12-7.68 7.68 2.56 7.68 7.68 7.68z" />
<glyph unicode="&#xe915;" glyph-name="Group-171" d="M775.68 637.44c-5.12 7.68-10.24 12.8-17.92 20.48v0s-5.12 5.12-5.12 5.12c-2.56 2.56-5.12 5.12-7.68 7.68l-7.68 7.68c0 0-2.56 2.56-5.12 5.12v0c-10.24 12.8-20.48 20.48-28.16 28.16-10.24 7.68-25.6 17.92-48.64 17.92s-38.4-10.24-48.64-17.92c-10.24-7.68-20.48-17.92-35.84-33.28l-281.6-281.6c-7.68-7.68-12.8-12.8-17.92-23.040s-7.68-17.92-10.24-30.72l-25.6-104.96c0-7.68-2.56-15.36-5.12-20.48 0-20.48 5.12-33.28 12.8-40.96s17.92-12.8 33.28-12.8 5.12 0 5.12 0c5.12 0 12.8 0 20.48 5.12l104.96 25.6c10.24 0 17.92 5.12 28.16 10.24s15.36 12.8 25.6 20.48l281.6 281.6c12.8 12.8 23.040 23.040 30.72 33.28s17.92 25.6 17.92 48.64-10.24 38.4-17.92 48.64zM435.2 253.44c-5.12-5.12-10.24-10.24-15.36-12.8s-10.24-5.12-20.48-7.68l-102.4-25.6s5.12-17.92 5.12-17.92l-5.12 17.92c-5.12 0-10.24-2.56-15.36-2.56s-7.68 0-7.68 0c0 0-2.56 2.56 0 7.68 0 5.12 0 10.24 2.56 15.36l25.6 104.96c0 7.68 2.56 12.8 5.12 17.92s7.68 10.24 12.8 15.36l243.2 243.2 117.76-117.76-245.76-245.76zM744.96 565.76c-7.68-7.68-15.36-17.92-28.16-30.72l-10.24-10.24-117.76 117.76 10.24 10.24c12.8 12.8 20.48 20.48 30.72 28.16 17.92 12.8 30.72 12.8 48.64 0 7.68-5.12 15.36-12.8 25.6-23.040l12.8-12.8s0 0 0 0c12.8-12.8 23.040-20.48 28.16-30.72 7.68-7.68 10.24-15.36 10.24-23.040s-2.56-15.36-10.24-23.040z" />
<glyph unicode="&#xe916;" glyph-name="Group-173" d="M371.2 637.44c12.8 0 25.6 0 38.4-7.68 12.8-5.12 23.040-12.8 33.28-20.48l40.96-38.4c7.68-7.68 17.92-12.8 28.16-12.8s20.48 5.12 28.16 12.8l40.96 38.4c17.92 17.92 43.52 28.16 71.68 28.16s51.2-10.24 71.68-28.16c17.92-17.92 28.16-40.96 28.16-64s-10.24-48.64-28.16-64l-212.48-202.24-212.48 202.24c-10.24 7.68-15.36 17.92-20.48 30.72-5.12 10.24-7.68 23.040-7.68 35.84s0 23.040 7.68 35.84c5.12 10.24 12.8 20.48 20.48 30.72 10.24 7.68 20.48 15.36 33.28 20.48s25.6 7.68 38.4 7.68zM371.2 678.4c-17.92 0-35.84-2.56-53.76-10.24s-33.28-17.92-46.080-28.16c-12.8-12.8-23.040-28.16-30.72-43.52s-10.24-33.28-10.24-51.2 2.56-35.84 10.24-51.2c7.68-15.36 17.92-30.72 30.72-43.52l240.64-230.4 240.64 230.4c25.6 25.6 40.96 58.88 40.96 94.72s-15.36 69.12-40.96 94.72c-25.6 25.6-61.44 38.4-99.84 38.4s-74.24-15.36-99.84-38.4l-40.96-38.4-40.96 38.4c-12.8 12.8-28.16 23.040-46.080 28.16-17.92 7.68-35.84 10.24-53.76 10.24v0z" />
<glyph unicode="&#xe917;" glyph-name="Group-172" d="M271.36 640c-12.8-12.8-23.040-28.16-30.72-43.52s-10.24-33.28-10.24-51.2 2.56-35.84 10.24-51.2c7.68-15.36 17.92-30.72 30.72-43.52l240.64-230.4 240.64 230.4c25.6 25.6 40.96 58.88 40.96 94.72s-15.36 69.12-40.96 94.72c-25.6 25.6-61.44 38.4-99.84 38.4s-74.24-15.36-99.84-38.4l-40.96-38.4-40.96 38.4c-12.8 12.8-28.16 23.040-46.080 28.16-17.92 7.68-35.84 10.24-53.76 10.24s-35.84-2.56-53.76-10.24c-17.92-7.68-33.28-17.92-46.080-28.16z" />
<glyph unicode="&#xe918;" glyph-name="Group-174" d="M650.24 680.96v0 0zM634.88 716.8c-5.12 0-10.24 0-15.36-7.68l-248.32-248.32c0-2.56-2.56-5.12-5.12-10.24 0 0 0-5.12 0-7.68 0-5.12 2.56-10.24 5.12-12.8l245.76-245.76c5.12-5.12 10.24-7.68 15.36-7.68s10.24 0 15.36 7.68c7.68 7.68 7.68 23.040 0 30.72l-230.4 230.4 230.4 230.4c7.68 7.68 7.68 23.040 0 30.72-5.12 5.12-10.24 7.68-15.36 7.68v0z" />
<glyph unicode="&#xe919;" glyph-name="Group-175" d="M512 240.64c56.32 0 107.52 23.040 145.92 61.44s61.44 92.16 61.44 145.92c0 56.32-23.040 107.52-61.44 145.92s-92.16 61.44-145.92 61.44v0c-115.2 0-207.36-94.72-207.36-207.36 0-56.32 23.040-107.52 61.44-145.92s92.16-61.44 145.92-61.44v0s0 0 0 0 0 0 0 0c0 0 0 0 0 0zM506.88 284.16c-5.12 5.12-10.24 15.36-17.92 33.28-10.24 28.16-17.92 69.12-20.48 112.64h84.48c0-40.96-7.68-81.92-17.92-112.64-7.68-17.92-12.8-28.16-17.92-33.28-2.56-2.56-5.12-5.12-5.12-5.12s0 0 0 0-2.56 0-5.12 5.12zM506.88 611.84c2.56 2.56 5.12 5.12 5.12 5.12s2.56 0 5.12-5.12 10.24-15.36 17.92-33.28c10.24-28.16 17.92-69.12 20.48-112.64h-84.48c0 40.96 7.68 81.92 17.92 112.64 7.68 17.92 12.8 28.16 17.92 33.28zM632.32 327.68c-17.92-17.92-40.96-33.28-66.56-40.96 0 5.12 5.12 10.24 7.68 15.36 12.8 33.28 20.48 79.36 20.48 125.44h87.040c-5.12-38.4-20.48-74.24-48.64-99.84zM680.96 468.48h-87.040c0 48.64-10.24 92.16-23.040 125.44 0 5.12-5.12 10.24-7.68 15.36 25.6-7.68 48.64-23.040 66.56-40.96 28.16-28.16 43.52-61.44 48.64-99.84zM460.8 609.28c0-5.12-5.12-10.24-7.68-17.92-12.8-33.28-20.48-79.36-20.48-125.44h-87.040c7.68 66.56 53.76 122.88 115.2 143.36zM343.040 427.52h87.040c0-48.64 10.24-92.16 23.040-125.44 0-5.12 5.12-12.8 7.68-17.92-25.6 7.68-48.64 23.040-66.56 40.96-28.16 28.16-43.52 61.44-48.64 99.84zM248.32 448c0 71.68 30.72 140.8 81.92 192v-28.16c0-10.24 7.68-17.92 20.48-17.92v0c10.24 0 17.92 7.68 17.92 20.48v74.24c0 5.12 0 10.24-5.12 12.8-2.56 2.56-7.68 5.12-12.8 5.12h-74.24c-10.24 0-17.92-7.68-17.92-20.48 0-10.24 7.68-17.92 20.48-17.92h25.6c-58.88-56.32-92.16-135.68-92.16-217.6 0-97.28 48.64-189.44 130.56-245.76 2.56 0 7.68-2.56 10.24-2.56 5.12 0 12.8 2.56 15.36 7.68 5.12 7.68 5.12 20.48-5.12 25.6-71.68 48.64-112.64 130.56-112.64 215.040zM747.52 230.4h-25.6c58.88 56.32 92.16 133.12 92.16 217.6 0 97.28-48.64 192-130.56 248.32-7.68 5.12-20.48 5.12-25.6-5.12-5.12-7.68-5.12-20.48 5.12-25.6 71.68-48.64 112.64-130.56 112.64-215.040 0-74.24-28.16-140.8-81.92-192v28.16c0 10.24-7.68 17.92-20.48 17.92v0c-10.24 0-17.92-7.68-17.92-20.48v-74.24c0-5.12 0-10.24 5.12-12.8 2.56-2.56 7.68-5.12 12.8-5.12h74.24c10.24 0 17.92 7.68 17.92 20.48s-7.68 17.92-20.48 17.92z" />
<glyph unicode="&#xe91a;" glyph-name="Group-176" d="M673.28 294.4c-7.68 5.12-15.36 2.56-20.48-5.12s-2.56-15.36 5.12-20.48c15.36-10.24 15.36-15.36 15.36-17.92s0-7.68-15.36-17.92c-12.8-7.68-33.28-15.36-58.88-20.48-23.040-5.12-53.76-7.68-87.040-7.68s-58.88 0-87.040 7.68c-25.6 5.12-43.52 10.24-58.88 20.48s-15.36 15.36-15.36 17.92 0 7.68 15.36 17.92c7.68 5.12 10.24 15.36 5.12 20.48-5.12 7.68-15.36 10.24-20.48 5.12-20.48-12.8-30.72-28.16-30.72-43.52s10.24-30.72 30.72-43.52c17.92-12.8 40.96-20.48 69.12-25.6 30.72-5.12 58.88-7.68 92.16-7.68s66.56 2.56 92.16 7.68c20.48 5.12 48.64 12.8 69.12 25.6s30.72 28.16 30.72 43.52-10.24 30.72-30.72 43.52zM494.080 250.88s0 0 0 0c5.12 0 10.24-2.56 15.36-2.56s12.8 0 17.92 5.12c40.96 23.040 174.080 156.16 174.080 279.040s-97.28 192-192 192-192-58.88-192-192 130.56-256 174.080-279.040zM512 691.2c79.36 0 161.28-61.44 161.28-161.28s-128-235.52-158.72-253.44c0 0-2.56 0-7.68 0-33.28 17.92-156.16 138.24-156.16 250.88s81.92 161.28 161.28 161.28zM624.64 540.16c0 61.44-51.2 112.64-112.64 112.64s-112.64-51.2-112.64-112.64 51.2-112.64 112.64-112.64 112.64 51.2 112.64 112.64zM430.080 540.16c0 46.080 35.84 81.92 81.92 81.92s81.92-35.84 81.92-81.92-35.84-81.92-81.92-81.92-81.92 35.84-81.92 81.92z" />
<glyph unicode="&#xe91b;" glyph-name="Group-181" d="M486.4 284.16h-25.6c-48.64 0-87.040 38.4-87.040 87.040v243.2l74.24-74.24c5.12-5.12 15.36-5.12 23.040 0 5.12 5.12 5.12 15.36 0 23.040l-102.4 102.4c-7.68 7.68-17.92 7.68-25.6 0l-102.4-102.4c-5.12-5.12-5.12-15.36 0-23.040 5.12-5.12 15.36-5.12 23.040 0l74.24 74.24v-243.2c0-64 53.76-117.76 117.76-117.76h25.6c7.68 0 15.36 7.68 15.36 15.36s-7.68 15.36-15.36 15.36zM778.24 358.4c-5.12 5.12-15.36 5.12-23.040 0l-74.24-74.24v243.2c0 66.56-53.76 117.76-117.76 117.76h-25.6c-7.68 0-15.36-7.68-15.36-15.36v0c0-10.24 7.68-15.36 15.36-15.36h25.6c48.64 0 87.040-38.4 87.040-87.040v-243.2l-74.24 74.24c-5.12 5.12-15.36 5.12-23.040 0-2.56-2.56-5.12-7.68-5.12-10.24 0-5.12 0-7.68 5.12-12.8l99.84-99.84s0 0 0 0c2.56-2.56 7.68-5.12 12.8-5.12s10.24 0 12.8 5.12c0 0 0 0 0 0l99.84 99.84c2.56 2.56 5.12 7.68 5.12 10.24 0 5.12 0 7.68-5.12 12.8z" />
<glyph unicode="&#xe91c;" glyph-name="Group-180" d="M798.72 232.96l-58.88 148.48c-7.68 20.48-25.6 33.28-46.080 33.28v0c-20.48 0-38.4-12.8-46.080-33.28l-35.84-102.4-148.48 381.44c-7.68 20.48-25.6 33.28-46.080 33.28s-38.4-12.8-46.080-33.28l-148.48-424.96c-2.56-10.24 0-20.48 10.24-23.040s20.48 0 23.040 10.24l56.32 163.84h212.48c0 0 2.56 0 5.12 0l66.56-168.96c2.56-7.68 10.24-10.24 17.92-10.24s5.12 0 7.68 0c7.68 2.56 10.24 10.24 10.24 15.36l23.040 64h84.48l28.16-69.12c2.56-10.24 15.36-12.8 23.040-10.24 10.24 2.56 12.8 12.8 10.24 23.040zM327.68 419.84l79.36 225.28c2.56 7.68 10.24 10.24 12.8 10.24s10.24 0 12.8-10.24l87.040-222.72h-192zM668.16 322.56l15.36 46.080c2.56 7.68 10.24 10.24 12.8 10.24s10.24 0 12.8-10.24l17.92-43.52h-58.88z" />
<glyph unicode="&#xe91d;" glyph-name="Group-179" d="M512 701.44c-140.8 0-253.44-115.2-253.44-253.44s115.2-256 253.44-256 256 115.2 256 256-115.2 253.44-256 253.44zM512 220.16c-125.44 0-227.84 102.4-227.84 227.84s102.4 227.84 227.84 227.84 227.84-102.4 227.84-227.84-102.4-227.84-227.84-227.84zM312.32 448c0-51.2 20.48-104.96 58.88-140.8 38.4-38.4 89.6-58.88 140.8-58.88v399.36c-53.76 0-104.96-20.48-140.8-58.88-38.4-38.4-58.88-89.6-58.88-140.8z" />
<glyph unicode="&#xe91e;" glyph-name="Group-178" d="M478.72 189.44c-23.040 0-46.080 25.6-79.36 66.56l-66.56 79.36s0 0 0 0l-51.2 10.24c-20.48 5.12-35.84 15.36-40.96 33.28 0 0 0 2.56 0 5.12-23.040 43.52-23.040 92.16 0 135.68 10.24 15.36 23.040 25.6 40.96 30.72l53.76 10.24s0 0 0 0l71.68 87.040c38.4 46.080 58.88 71.68 87.040 58.88 28.16-7.68 28.16-40.96 28.16-110.080v-294.4c0-66.56 0-102.4-28.16-110.080-2.56 0-7.68 0-10.24 0zM337.92 366.080c2.56 0 10.24 0 17.92-10.24l66.56-79.36c23.040-28.16 48.64-58.88 58.88-56.32 7.68 0 7.68 46.080 7.68 79.36v294.4c0 33.28 0 76.8-7.68 79.36s-30.72-25.6-53.76-48.64l-71.68-84.48c-5.12-10.24-15.36-12.8-17.92-12.8l-51.2-10.24c-7.68 0-15.36-7.68-20.48-15.36-20.48-33.28-20.48-74.24 0-107.52 0 0 0-5.12 0-7.68 2.56-7.68 12.8-10.24 17.92-12.8l53.76-10.24zM335.36 335.36v0 0zM593.92 320c-5.12 0-7.68 0-10.24 5.12-5.12 5.12-5.12 15.36 0 20.48 28.16 28.16 40.96 61.44 40.96 102.4s-15.36 74.24-40.96 102.4-5.12 15.36 0 20.48c5.12 5.12 15.36 5.12 20.48 0 33.28-33.28 51.2-76.8 51.2-122.88s-17.92-89.6-51.2-122.88c-2.56-2.56-7.68-5.12-10.24-5.12zM680.96 253.44c-5.12 0-7.68 0-10.24 5.12-5.12 5.12-5.12 15.36 0 20.48 43.52 43.52 69.12 107.52 69.12 171.52s-25.6 122.88-69.12 168.96c-5.12 5.12-5.12 15.36 0 20.48s15.36 5.12 20.48 0c51.2-51.2 79.36-117.76 79.36-189.44s-28.16-143.36-79.36-192c-2.56-2.56-7.68-5.12-10.24-5.12z" />
<glyph unicode="&#xe91f;" glyph-name="Group-177" d="M463.36 258.56c7.68 0 15.36 7.68 15.36 15.36v209.92c0 7.68-7.68 15.36-15.36 15.36s-15.36-7.68-15.36-15.36v-209.92c0-7.68 7.68-15.36 15.36-15.36zM560.64 258.56c7.68 0 15.36 7.68 15.36 15.36v209.92c0 7.68-7.68 15.36-15.36 15.36s-15.36-7.68-15.36-15.36v-209.92c0-7.68 7.68-15.36 15.36-15.36zM780.8 596.48h-537.6c-7.68 0-15.36-7.68-15.36-15.36s7.68-15.36 15.36-15.36h2.56c38.4 0 56.32 0 69.12-7.68 0 0 5.12-2.56 10.24-10.24 7.68-7.68 7.68-30.72 7.68-66.56v-163.84c0-58.88 0-89.6 23.040-112.64s53.76-23.040 112.64-23.040h89.6c58.88 0 89.6 0 112.64 23.040s23.040 53.76 23.040 112.64v163.84c0 38.4 0 56.32 7.68 69.12 0 0 2.56 5.12 10.24 10.24 7.68 7.68 30.72 7.68 66.56 7.68s15.36 7.68 15.36 15.36-7.68 15.36-15.36 15.36zM675.84 563.2c-12.8-20.48-12.8-43.52-12.8-84.48v-163.84c0-56.32 0-79.36-12.8-92.16s-35.84-12.8-92.16-12.8h-89.6c-56.32 0-79.36 0-92.16 12.8s-12.8 35.84-12.8 92.16v163.84c0 43.52 0 69.12-12.8 84.48 0 0 0 0 0 0h327.68s0 0 0 0zM432.64 634.88c0 0 2.56 0 5.12 0 7.68 0 12.8 5.12 15.36 10.24 0 0 12.8 40.96 58.88 40.96s58.88-38.4 58.88-40.96c0-7.68 10.24-12.8 17.92-10.24 7.68 0 12.8 10.24 10.24 17.92-7.68 20.48-33.28 61.44-89.6 61.44s-81.92-40.96-89.6-61.44 0-17.92 10.24-17.92z" />
<glyph unicode="&#xe920;" glyph-name="Group-182" d="M512 145.92c166.4 0 302.080 135.68 302.080 302.080s-135.68 302.080-302.080 302.080-302.080-135.68-302.080-302.080 135.68-302.080 302.080-302.080zM453.12 583.68l189.44-104.96c23.040-12.8 23.040-46.080 0-58.88l-189.44-104.96c-28.16-15.36-58.88 5.12-58.88 35.84v199.68c0 30.72 33.28 51.2 58.88 35.84z" />
<glyph unicode="&#xe921;" glyph-name="Group-183" d="M512 652.8c-115.2 0-202.24-89.6-202.24-204.8s89.6-204.8 202.24-204.8 204.8 89.6 204.8 204.8-89.6 204.8-204.8 204.8zM686.080 460.8h-97.28c0 48.64-7.68 94.72-20.48 128 0 5.12-7.68 17.92-12.8 30.72 71.68-17.92 125.44-79.36 130.56-158.72zM524.8 281.6c-5.12-5.12-10.24-7.68-10.24-7.68s-5.12 0-10.24 7.68c-5.12 5.12-12.8 17.92-17.92 33.28-10.24 33.28-17.92 74.24-17.92 120.32h94.72c0-46.080-7.68-89.6-17.92-117.76-5.12-12.8-12.8-25.6-17.92-35.84zM468.48 460.8c0 46.080 7.68 89.6 17.92 117.76 7.68 15.36 12.8 28.16 17.92 35.84 5.12 5.12 10.24 7.68 10.24 7.68s5.12 0 10.24-7.68c5.12-5.12 12.8-17.92 17.92-33.28 10.24-33.28 17.92-74.24 17.92-120.32h-94.72zM476.16 622.080c-5.12-10.24-10.24-20.48-15.36-30.72-12.8-33.28-20.48-79.36-20.48-128h-102.4c5.12 81.92 64 145.92 138.24 161.28zM337.92 435.2h102.4c0-48.64 7.68-94.72 20.48-128 0-7.68 7.68-20.48 15.36-30.72-74.24 15.36-130.56 79.36-138.24 158.72zM552.96 273.92c5.12 10.24 10.24 17.92 15.36 30.72 12.8 33.28 20.48 79.36 20.48 128h97.28c-5.12-79.36-58.88-140.8-133.12-158.72zM238.080 448c0 76.8 35.84 153.6 94.72 204.8v-40.96c0-7.68 5.12-12.8 12.8-12.8s12.8 5.12 12.8 12.8v74.24c0 7.68-5.12 12.8-12.8 12.8h-74.24c-7.68 0-12.8-5.12-12.8-12.8s5.12-12.8 12.8-12.8h38.4c-64-58.88-99.84-140.8-99.84-225.28s48.64-189.44 128-245.76c0 0 5.12 0 7.68 0 5.12 0 7.68 0 12.8 5.12s2.56 15.36-2.56 20.48c-74.24 51.2-117.76 133.12-117.76 220.16zM750.080 222.72h-38.4c64 56.32 102.4 135.68 102.4 225.28s-48.64 192-128 248.32c-7.68 5.12-15.36 2.56-20.48-2.56-5.12-7.68-2.56-15.36 2.56-20.48 74.24-51.2 117.76-133.12 117.76-222.72s-33.28-153.6-94.72-204.8v40.96c0 7.68-5.12 12.8-12.8 12.8s-12.8-5.12-12.8-12.8v-74.24c0-7.68 5.12-12.8 12.8-12.8h74.24c7.68 0 12.8 5.12 12.8 12.8s-5.12 12.8-12.8 12.8z" />
<glyph unicode="&#xe922;" glyph-name="Group-184" d="M611.84 704h-204.8c-28.16 0-51.2-23.040-51.2-51.2v-409.6c0-28.16 23.040-51.2 51.2-51.2h204.8c28.16 0 51.2 23.040 51.2 51.2v409.6c0 28.16-23.040 51.2-51.2 51.2zM560.64 678.4v0c0-5.12 0-10.24 0-12.8s0-5.12-2.56-7.68c0 0-5.12-2.56-7.68-2.56-5.12 0-7.68 0-12.8 0h-51.2c-5.12 0-10.24 0-12.8 0s-5.12 0-7.68 2.56-2.56 5.12-2.56 7.68c0 5.12 0 7.68 0 12.8h102.4zM637.44 243.2c0-15.36-10.24-25.6-25.6-25.6h-204.8c-15.36 0-25.6 10.24-25.6 25.6v409.6c0 15.36 10.24 25.6 25.6 25.6h25.6c0-7.68 0-12.8 0-17.92 0-10.24 5.12-17.92 10.24-23.040s12.8-10.24 23.040-10.24c5.12 0 10.24 0 17.92 0h51.2c5.12 0 12.8 0 17.92 0 10.24 0 15.36 5.12 23.040 10.24 5.12 5.12 10.24 12.8 10.24 23.040 0 5.12 0 10.24 0 17.92h25.6c15.36 0 25.6-10.24 25.6-25.6v-409.6zM537.6 253.44c0-14.138-11.462-25.6-25.6-25.6s-25.6 11.462-25.6 25.6c0 14.138 11.462 25.6 25.6 25.6s25.6-11.462 25.6-25.6zM747.52 540.16c0 12.8-5.12 25.6-15.36 33.28l-17.92 12.8c-5.12 5.12-12.8 2.56-17.92-2.56s-2.56-12.8 2.56-17.92l17.92-12.8c5.12-2.56 5.12-7.68 5.12-12.8s0-10.24-7.68-12.8c-10.24-7.68-17.92-20.48-17.92-33.28s0 0 0 0c0 0 0 0 0 0 0-12.8 7.68-25.6 17.92-33.28 5.12-2.56 5.12-7.68 5.12-12.8s0-10.24-5.12-12.8c-10.24-7.68-17.92-20.48-17.92-33.28s0 0 0 0c0 0 0 0 0 0 0-12.8 7.68-25.6 17.92-33.28 5.12-2.56 7.68-7.68 7.68-12.8s0-10.24-5.12-12.8l-17.92-12.8c-5.12-5.12-7.68-12.8-2.56-17.92 0-2.56 5.12-5.12 10.24-5.12s5.12 0 7.68 0l17.92 12.8c10.24 7.68 17.92 20.48 15.36 33.28 0 12.8-7.68 25.6-17.92 33.28-5.12 2.56-7.68 7.68-7.68 12.8s0 10.24 7.68 12.8c10.24 7.68 17.92 20.48 17.92 33.28s0 0 0 0c0 0 0 0 0 0 0 12.8-7.68 25.6-17.92 33.28-5.12 2.56-7.68 7.68-7.68 12.8s0 10.24 7.68 12.8c10.24 7.68 17.92 20.48 17.92 33.28zM801.28 540.16c0 12.8-5.12 25.6-15.36 33.28l-17.92 12.8c-5.12 5.12-12.8 2.56-17.92-2.56s-2.56-12.8 2.56-17.92l17.92-12.8c5.12-2.56 5.12-7.68 5.12-12.8s0-10.24-7.68-12.8c-10.24-7.68-17.92-20.48-17.92-33.28s0 0 0 0c0 0 0 0 0 0 0-12.8 7.68-25.6 17.92-33.28 5.12-2.56 5.12-7.68 5.12-12.8s0-10.24-5.12-12.8c-10.24-7.68-17.92-20.48-17.92-33.28s0 0 0 0c0 0 0 0 0 0 0-12.8 7.68-25.6 17.92-33.28 5.12-2.56 7.68-7.68 7.68-12.8s0-10.24-5.12-12.8l-17.92-12.8c-5.12-5.12-7.68-12.8-2.56-17.92 0-2.56 5.12-5.12 10.24-5.12s5.12 0 7.68 0l17.92 12.8c10.24 7.68 17.92 20.48 15.36 33.28 0 12.8-7.68 25.6-17.92 33.28-5.12 2.56-7.68 7.68-7.68 12.8s0 10.24 7.68 12.8c10.24 7.68 17.92 20.48 17.92 33.28s0 0 0 0c0 0 0 0 0 0 0 12.8-7.68 25.6-17.92 33.28-5.12 2.56-7.68 7.68-7.68 12.8s0 10.24 7.68 12.8c10.24 7.68 17.92 20.48 17.92 33.28zM276.48 540.16c0 12.8 5.12 25.6 15.36 33.28l17.92 12.8c5.12 5.12 12.8 2.56 17.92-2.56s2.56-12.8-2.56-17.92l-17.92-12.8c-5.12-2.56-5.12-7.68-5.12-12.8s0-10.24 7.68-12.8c10.24-7.68 17.92-20.48 17.92-33.28s0 0 0 0c0 0 0 0 0 0 0-12.8-7.68-25.6-17.92-33.28-5.12-2.56-5.12-7.68-5.12-12.8s0-10.24 5.12-12.8c10.24-7.68 17.92-20.48 17.92-33.28s0 0 0 0c0 0 0 0 0 0 0-12.8-7.68-25.6-17.92-33.28-5.12-2.56-7.68-7.68-7.68-12.8s0-10.24 5.12-12.8l17.92-12.8c5.12-5.12 7.68-12.8 2.56-17.92 0-2.56-5.12-5.12-10.24-5.12s-5.12 0-7.68 0l-17.92 12.8c-10.24 7.68-17.92 20.48-15.36 33.28 0 12.8 7.68 25.6 17.92 33.28 5.12 2.56 7.68 7.68 7.68 12.8s0 10.24-7.68 12.8c-10.24 7.68-17.92 20.48-17.92 33.28s0 0 0 0c0 0 0 0 0 0 0 12.8 7.68 25.6 17.92 33.28 5.12 2.56 7.68 7.68 7.68 12.8s0 10.24-7.68 12.8c-10.24 7.68-17.92 20.48-17.92 33.28zM222.72 540.16c0 12.8 5.12 25.6 15.36 33.28l17.92 12.8c5.12 5.12 12.8 2.56 17.92-2.56s2.56-12.8-2.56-17.92l-17.92-12.8c-5.12-2.56-5.12-7.68-5.12-12.8s0-10.24 7.68-12.8c10.24-7.68 17.92-20.48 17.92-33.28s0 0 0 0c0 0 0 0 0 0 0-12.8-7.68-25.6-17.92-33.28-5.12-2.56-5.12-7.68-5.12-12.8s0-10.24 5.12-12.8c10.24-7.68 17.92-20.48 17.92-33.28s0 0 0 0c0 0 0 0 0 0 0-12.8-7.68-25.6-17.92-33.28-5.12-2.56-7.68-7.68-7.68-12.8s0-10.24 5.12-12.8l17.92-12.8c5.12-5.12 7.68-12.8 2.56-17.92 0-2.56-5.12-5.12-10.24-5.12s-5.12 0-7.68 0l-17.92 12.8c-10.24 7.68-17.92 20.48-15.36 33.28 0 12.8 7.68 25.6 17.92 33.28 5.12 2.56 7.68 7.68 7.68 12.8s0 10.24-7.68 12.8c-10.24 7.68-17.92 20.48-17.92 33.28s0 0 0 0c0 0 0 0 0 0 0 12.8 7.68 25.6 17.92 33.28 5.12 2.56 7.68 7.68 7.68 12.8s0 10.24-7.68 12.8c-10.24 7.68-17.92 20.48-17.92 33.28z" />
<glyph unicode="&#xe923;" glyph-name="Group-185" d="M719.36 363.52c-10.24 0-20.48 0-30.72 5.12-2.56 0-5.12 2.56-7.68 5.12-2.56 5.12-7.68 10.24-10.24 15.36-10.24 0-25.6-5.12-35.84-7.68-2.56 0-7.68 0-7.68 2.56l-5.12 10.24c0 2.56 0 7.68 5.12 7.68 10.24 0 23.040 5.12 33.28 7.68 0 7.68-5.12 17.92-5.12 25.6-17.92-2.56-30.72-5.12-38.4-7.68-2.56 0-7.68 0-7.68 5.12v10.24c-5.12 2.56-2.56 7.68 0 7.68 12.8 2.56 28.16 7.68 40.96 10.24 0 10.24-2.56 20.48-2.56 25.6-25.6-5.12-40.96-10.24-48.64-12.8-2.56 0-7.68 0-7.68 2.56l-5.12 10.24c0 2.56 0 7.68 5.12 7.68 12.8 2.56 30.72 7.68 53.76 12.8 0 10.24-2.56 20.48-12.8 28.16 0 0 0 0 0 0-12.8 10.24-33.28 12.8-64 7.68-23.040-5.12-43.52 5.12-58.88 30.72-12.8 17.92-17.92 38.4-17.92 38.4s0 2.56 0 5.12c0 12.8-5.12 30.72-20.48 38.4-10.24 5.12-20.48 5.12-35.84 0-33.28-12.8-81.92-61.44-104.96-87.040l-5.12-5.12c-10.24-10.24-15.36-20.48-15.36-30.72 0-23.040 23.040-40.96 66.56-79.36 12.8-10.24 25.6-23.040 43.52-35.84 25.6-23.040 53.76-48.64 81.92-74.24 7.68-7.68 51.2-46.080 87.040-79.36 5.12-5.12 10.24-10.24 15.36-12.8 10.24-10.24 23.040-15.36 38.4-15.36 7.68 0 12.8 0 20.48 0s12.8 0 17.92 0c43.52 0 102.4 7.68 125.44 33.28 10.24 10.24 15.36 20.48 12.8 33.28-2.56 51.2-40.96 53.76-104.96 61.44v0zM788.48 286.72c-17.92-17.92-66.56-25.6-104.96-25.6s-20.48 0-35.84 0c-10.24 0-17.92 2.56-25.6 10.24-40.96 35.84-87.040 76.8-99.84 89.6v0c-28.16 25.6-56.32 53.76-81.92 76.8-12.8 10.24-23.040 20.48-33.28 28.16l-10.24 10.24c-33.28 28.16-56.32 48.64-58.88 61.44 0 0 0 5.12 7.68 12.8l7.68 7.68c25.6-25.6 104.96-97.28 143.36-130.56 12.8-12.8 46.080-43.52 46.080-43.52 23.040-23.040 71.68-71.68 92.16-84.48v0c7.68-5.12 15.36-10.24 25.6-10.24 28.16 0 51.2 0 71.68 5.12 28.16 5.12 48.64 10.24 61.44 15.36 0 0 0-2.56 0-5.12 0-5.12 0-10.24-5.12-12.8v0zM473.6 296.96h-110.080c-10.24 0-17.92-7.68-17.92-15.36s7.68-15.36 17.92-15.36h110.080c10.24 0 17.92 7.68 17.92 15.36s-7.68 15.36-17.92 15.36zM417.28 345.6c0 7.68-7.68 15.36-17.92 15.36h-110.080c-10.24 0-17.92-7.68-17.92-15.36s7.68-15.36 17.92-15.36h110.080c10.24 0 17.92 7.68 17.92 15.36zM345.6 412.16c0 7.68-7.68 15.36-17.92 15.36h-110.080c-10.24 0-17.92-7.68-17.92-15.36s7.68-15.36 17.92-15.36h110.080c10.24 0 17.92 7.68 17.92 15.36z" />
<glyph unicode="&#xe924;" glyph-name="Group-186" d="M368.64 212.48v0zM384 176.64c5.12 0 10.24 0 15.36 7.68l248.32 248.32c0 2.56 2.56 5.12 5.12 10.24v7.68c0 5.12-2.56 10.24-5.12 12.8l-245.76 245.76c-5.12 5.12-10.24 7.68-15.36 7.68s-10.24 0-15.36-7.68c-7.68-7.68-7.68-23.040 0-30.72l230.4-230.4-230.4-230.4c-7.68-7.68-7.68-23.040 0-30.72 5.12-5.12 10.24-7.68 15.36-7.68h-2.56z" />
<glyph unicode="&#xe925;" glyph-name="Group-187" d="M540.16 448l225.28 225.28c7.68 7.68 7.68 20.48 0 28.16s-20.48 7.68-28.16 0l-225.28-225.28-225.28 225.28c-7.68 7.68-20.48 7.68-28.16 0s-7.68-20.48 0-28.16l225.28-225.28-225.28-225.28c-7.68-7.68-7.68-20.48 0-28.16s10.24-5.12 15.36-5.12 10.24 0 15.36 5.12l225.28 225.28 225.28-225.28c5.12-5.12 10.24-5.12 15.36-5.12s10.24 0 15.36 5.12c7.68 7.68 7.68 20.48 0 28.16l-225.28 225.28z" />
<glyph unicode="&#xe926;" glyph-name="Group-188" d="M729.6 519.68c-15.36 15.36-35.84 20.48-64 23.040v23.040c0 84.48-69.12 153.6-153.6 153.6s-153.6-69.12-153.6-153.6v-23.040c-28.16 0-48.64-7.68-64-23.040-23.040-23.040-23.040-56.32-23.040-115.2v-28.16c0-89.6 0-133.12 33.28-166.4s76.8-33.28 166.4-33.28h87.040c89.6 0 133.12 0 166.4 33.28s33.28 76.8 33.28 166.4v28.16c0 58.88 0 92.16-23.040 115.2zM401.92 565.76c0 61.44 48.64 110.080 110.080 110.080s110.080-48.64 110.080-110.080v-23.040c-2.56 0-5.12 0-7.68 0h-204.8c-2.56 0-5.12 0-7.68 0v23.040zM711.68 373.76c0-76.8 0-115.2-20.48-135.68s-58.88-20.48-135.68-20.48h-87.040c-76.8 0-115.2 0-135.68 20.48s-20.48 58.88-20.48 135.68v28.16c0 51.2 0 74.24 10.24 84.48s33.28 10.24 84.48 10.24h204.8c51.2 0 74.24 0 84.48-10.24s10.24-33.28 10.24-84.48v-28.16z" />
<glyph unicode="&#xe927;" glyph-name="Group-189" d="M512 174.080c-151.040 0-273.92 122.88-273.92 273.92s122.88 273.92 273.92 273.92 273.92-122.88 273.92-273.92-122.88-273.92-273.92-273.92zM512 678.4c-128 0-230.4-102.4-230.4-230.4s102.4-230.4 230.4-230.4 230.4 102.4 230.4 230.4-102.4 230.4-230.4 230.4zM512 281.6c-12.8 0-25.6 10.24-25.6 25.6s10.24 25.6 25.6 25.6 25.6-10.24 25.6-25.6-10.24-25.6-25.6-25.6zM512 355.84c-10.24 0-17.92 7.68-17.92 17.92v20.48c0 23.040 12.8 46.080 33.28 58.88l15.36 10.24c17.92 12.8 28.16 30.72 28.16 53.76v7.68c0 30.72-25.6 56.32-56.32 56.32s-56.32-25.6-56.32-56.32-7.68-17.92-17.92-17.92-17.92 7.68-17.92 17.92c0 51.2 40.96 94.72 94.72 94.72s94.72-40.96 94.72-94.72v-7.68c0-33.28-17.92-64-43.52-84.48l-15.36-10.24c-10.24-7.68-15.36-17.92-15.36-30.72v-20.48c0-10.24-7.68-17.92-17.92-17.92z" />
</font>
</defs>
</svg>
