<svg width="18" height="24" viewBox="0 0 18 24" fill="none" xmlns="http://www.w3.org/2000/svg">
<path d="M17.9691 15.8194C17.9691 15.4032 17.9319 14.9961 17.8627 14.5983C17.8361 14.4396 17.5675 14.4419 17.5409 14.5983C17.243 16.3644 16.4717 19.692 12.7799 20.1635C11.974 20.267 9.62548 19.784 9.44727 17.7603C9.24513 15.463 11.3703 13.7842 12.0565 13.0851C15.0354 10.0519 14.6205 7.77289 13.7481 6.05504C13.6603 5.88027 13.3598 5.92166 13.3332 6.11023C12.9581 8.64446 11.5272 10.2565 9.67601 11.3328C8.4871 12.0227 5.13847 13.9107 5.20496 17.0727C5.20762 17.2567 4.88579 17.2866 4.85388 17.1026C4.22617 13.299 8.88339 11.4868 10.5963 8.55937C12.4209 5.44103 11.6362 2.55955 9.95262 0.0966158C9.83559 -0.0758589 9.52972 -0.00226913 9.5377 0.197802C9.63345 3.29775 7.52426 6.04124 6.12789 7.49693C5.13314 8.53408 2.80054 10.8774 1.95474 12.3446C0.97063 14.051 0.925415 15.8194 0.925415 15.8194C0.925415 20.0853 4.73951 23.544 9.44727 23.544C12.7773 23.544 15.8732 21.718 17.2324 18.9676C17.7191 17.9811 17.9691 16.9025 17.9691 15.8217V15.8194Z" fill="url(#paint0_linear_2497_3492)"/>
<path d="M14.945 14.3793C16.3679 13.6917 17.2457 12.2636 15.7695 9.89728C15.703 9.7915 15.5142 9.82369 15.5088 9.94327C15.4822 10.4055 15.0806 11.2978 14.6683 12.1073C14.0593 13.2962 12.7773 13.8182 11.8942 15.5131C11.8171 15.6625 12.0272 15.8005 12.1682 15.6901C12.9927 15.0531 14.0274 14.8232 14.9476 14.3793H14.945Z" fill="url(#paint1_linear_2497_3492)"/>
<defs>
<linearGradient id="paint0_linear_2497_3492" x1="9.44727" y1="9.0906" x2="9.44727" y2="23.4773" gradientUnits="userSpaceOnUse">
<stop stop-color="#FF9600"/>
<stop offset="1" stop-color="#FF5C00"/>
</linearGradient>
<linearGradient id="paint1_linear_2497_3492" x1="14.2055" y1="12.7811" x2="14.2055" y2="17.5069" gradientUnits="userSpaceOnUse">
<stop stop-color="#FF9600"/>
<stop offset="1" stop-color="#FF5C00"/>
</linearGradient>
</defs>
</svg>
