<svg width="6" height="11" viewBox="0 0 6 11" fill="none" xmlns="http://www.w3.org/2000/svg">
<g id="Vector">
<path id="Vector-9" fill-rule="evenodd" clip-rule="evenodd" d="M5.6664 3.46429C5.6664 4.96335 4.47249 6.17858 2.99974 6.17858C1.52698 6.17858 0.333069 4.96335 0.333069 3.46429C0.333069 1.96523 1.52698 0.75 2.99974 0.75C3.70698 0.75 4.38526 1.03597 4.88535 1.545C5.38545 2.05402 5.6664 2.74441 5.6664 3.46429Z" stroke="white" stroke-width="0.5" stroke-linecap="round" stroke-linejoin="round"/>
<path id="Vector-10" d="M3.2499 6.17845C3.2499 6.04038 3.13797 5.92845 2.9999 5.92845C2.86183 5.92845 2.7499 6.04038 2.7499 6.17845H3.2499ZM2.7499 10.2499C2.7499 10.388 2.86183 10.4999 2.9999 10.4999C3.13797 10.4999 3.2499 10.388 3.2499 10.2499H2.7499ZM2.97284 2.13922C2.83557 2.15412 2.73638 2.27748 2.75128 2.41474C2.76618 2.55201 2.88953 2.6512 3.0268 2.6363L2.97284 2.13922ZM4.08308 3.27045C4.13622 3.39788 4.2826 3.45811 4.41004 3.40497C4.53747 3.35183 4.5977 3.20544 4.54456 3.07801L4.08308 3.27045ZM2.7499 6.17845V10.2499H3.2499V6.17845H2.7499ZM3.0268 2.6363C3.47467 2.58768 3.90467 2.84261 4.08308 3.27045L4.54456 3.07801C4.28263 2.44988 3.64562 2.06619 2.97284 2.13922L3.0268 2.6363Z" fill="white"/>
</g>
</svg>
