<svg width="150" height="150" viewBox="0 0 150 150" fill="none" xmlns="http://www.w3.org/2000/svg">
<circle cx="75" cy="75" r="75" fill="#D9D9D9"/>
<ellipse cx="70.8353" cy="22.3544" rx="13.5309" ry="13.5309" fill="url(#paint0_linear_407_11456)"/>
<path d="M82.5266 95.7838C75.4591 95.6612 68.4104 95.0153 61.4383 93.8514C47.5501 91.5309 33.953 87.097 21.6177 80.2632C20.8854 79.8529 20.153 79.4382 19.4119 79.0147C30.3486 68.6338 38.4663 56.0735 45.3266 42.75C50.2677 33.1367 52.8266 26.797 63.4986 22.7514C82.0545 15.7235 107.122 22.5573 112.399 43.4338C114.627 52.2573 114.71 61.4823 113.444 70.4603C112.222 79.1426 109.006 95.8632 109.006 95.8632C109.006 95.8632 85.9898 95.8456 82.5266 95.7838Z" fill="url(#paint1_linear_407_11456)"/>
<path d="M130.893 124.019C101.401 146.727 60.2652 146.545 30.9751 123.578L52.4427 113.515C53.0999 113.204 53.7404 112.859 54.3619 112.482L54.856 112.174C55.0324 112.063 55.2045 111.949 55.3766 111.829C58.0855 109.96 60.3052 107.466 61.8486 104.559C63.6133 101.228 64.1957 97.5485 64.2222 93.7985C64.2222 91.7382 64.1383 89.6779 64.0854 87.622C64.0854 87.1573 64.0766 86.6941 64.0589 86.2323C64.0413 84.8323 64.0266 83.4338 64.0148 82.0367H64.0457L64.8883 82.4779L67.1824 83.6647L80.5457 85.9367L94.2751 88.275L94.5883 98.8632L94.6766 101.899V102.371L94.8839 109.372L99.9442 111.432L103.915 113.038L130.893 124.019Z" fill="#F2A196"/>
<path d="M94.5882 98.872C93.6374 99.5232 92.5015 99.8497 91.35 99.8029C84.825 99.1014 72.0971 93.9882 64.0853 84.525C64.0853 84.0603 64.0765 83.597 64.0588 83.1353V82.0456L64.9015 82.4867L67.1956 83.6735L80.5588 85.9456L94.2882 88.2838L94.5882 98.872Z" fill="#E88870"/>
<circle cx="52.981" cy="67.9103" r="7.5" fill="#F2A196"/>
<ellipse cx="55.6279" cy="67.0279" rx="7.5" ry="7.5" fill="#E88870"/>
<path d="M103.955 56.5544C109.138 74.5015 98.131 96.2029 91.3633 96.2029C82.0986 96.2029 59.5986 88.8 54.4236 70.8529C49.2486 52.9059 56.1133 35.1529 69.7898 31.2044C83.4663 27.2559 98.7751 38.6206 103.955 56.5544Z" fill="#F2A196"/>
<path d="M76.0899 60.2823C78.7811 60.3044 78.7811 64.4162 76.0899 64.4382H75.9664C73.2752 64.4162 73.2752 60.3044 75.9664 60.2823H76.0855H76.0899Z" fill="#00214E"/>
<path d="M98.2634 58.5882C100.765 58.6103 100.765 62.4265 98.2634 62.4485H98.1531C95.656 62.4485 95.656 58.6103 98.1531 58.5882H98.2634Z" fill="#00214E"/>
<circle cx="76.0855" cy="62.3956" r="8.38235" stroke="white"/>
<ellipse cx="99.5252" cy="61.0721" rx="8.38235" ry="8.38235" stroke="white"/>
<path d="M86.8809 32.6912C84.9794 40.9412 80.8368 47.947 73.2662 53.0514C65.0956 58.7073 56.4706 61.4338 47.0603 63.3088C47.2985 57.525 46.6632 49.3897 49.6456 44.2323C53.0304 38.5059 57.9743 33.8605 63.9 30.8382C70.4338 27.4632 80.5412 24.1544 87.8824 26.4926C87.6782 28.5777 87.3438 30.6479 86.8809 32.6912Z" fill="url(#paint2_linear_407_11456)"/>
<path d="M87.6485 57.3926C87.6132 57.5426 91.1426 71.6603 91.1426 71.6603H85.6279" stroke="#00214E"/>
<path d="M92.7046 52.8882C95.8202 51.296 99.4267 50.9551 102.785 51.9353" stroke="#00214E"/>
<path d="M68.3914 54.5029C72.6897 52.3136 77.7397 52.1519 82.1693 54.0618" stroke="#00214E"/>
<path d="M84.4678 62.3956L91.1428 61.8264" stroke="white"/>
<path d="M130.888 124.019C101.397 146.727 60.2608 146.545 30.9707 123.578L52.4383 113.515C53.4607 113.034 54.442 112.47 55.3722 111.829C55.6545 111.635 55.9369 111.432 56.206 111.221C58.5445 109.432 60.4692 107.16 61.8486 104.559C62.8884 102.564 63.5793 100.407 63.8913 98.1794C64.2029 98.4813 64.5298 98.767 64.8707 99.0353C67.5758 101.036 70.5116 102.703 73.6148 104.003C75.1214 104.631 76.6621 105.175 78.2295 105.631C82.9519 107.008 87.8824 107.529 92.7883 107.171C93.4678 107.118 94.1516 107.051 94.831 107.003L94.8972 109.244V109.39L100.235 111.56L130.888 124.019Z" fill="#845161"/>
<path d="M76.1826 76.6412C76.3054 76.448 76.5029 76.3146 76.728 76.2727C76.953 76.2309 77.1853 76.2845 77.3693 76.4206C78.2826 77.0647 79.959 78.4323 82.3414 78.9044C85.5884 79.5529 88.4076 78.2515 89.0781 79.0897C89.4576 79.5618 88.9943 80.1397 88.1076 80.8765C86.2319 82.2788 83.87 82.8657 81.5561 82.5044C78.4281 81.9176 76.0855 78.3 76.0855 77.0162C76.084 76.8848 76.1175 76.7553 76.1826 76.6412Z" fill="white"/>
<defs>
<linearGradient id="paint0_linear_407_11456" x1="57.3044" y1="35.8875" x2="84.3706" y2="35.8875" gradientUnits="userSpaceOnUse">
<stop stop-color="#16243F"/>
<stop offset="1" stop-color="#6878B1"/>
</linearGradient>
<linearGradient id="paint1_linear_407_11456" x1="77.7814" y1="123.562" x2="118.097" y2="58.9507" gradientUnits="userSpaceOnUse">
<stop stop-color="#16243F"/>
<stop offset="1" stop-color="#6878B1"/>
</linearGradient>
<linearGradient id="paint2_linear_407_11456" x1="60.9631" y1="76.1133" x2="80.9336" y2="48.7796" gradientUnits="userSpaceOnUse">
<stop stop-color="#16243F"/>
<stop offset="1" stop-color="#6878B1"/>
</linearGradient>
</defs>
</svg>
