<svg width="23" height="22" viewBox="0 0 23 22" fill="none" xmlns="http://www.w3.org/2000/svg">
<g id="Group 92">
<path id="Ellipse 136" d="M22.5 10.8235C22.5 16.5049 17.6841 21.1471 11.6974 21.1471C5.71073 21.1471 0.894897 16.5049 0.894897 10.8235C0.894897 5.14219 5.71073 0.5 11.6974 0.5C17.6841 0.5 22.5 5.14219 22.5 10.8235Z" fill="white" stroke="#FFC42B"/>
<g id="7">
<path id="Vector" d="M17.1031 13.2653C17.1031 12.9657 17.0789 12.6729 17.034 12.3866C17.0167 12.2724 16.8422 12.2741 16.8249 12.3866C16.6313 13.6574 16.1302 16.0518 13.7318 16.391C13.2082 16.4655 11.6825 16.118 11.5667 14.6618C11.4354 13.0088 12.816 11.8008 13.2618 11.2978C15.1971 9.11518 14.9276 7.47534 14.3608 6.23926C14.3038 6.1135 14.1085 6.14328 14.0912 6.27897C13.8476 8.10249 12.9179 9.26245 11.7153 10.0369C10.9429 10.5333 8.76737 11.8918 8.81057 14.1671C8.8123 14.2995 8.60322 14.321 8.58248 14.1886C8.17468 11.4517 11.2003 10.1477 12.3132 8.04126C13.4985 5.79744 12.9888 3.72406 11.895 1.95184C11.819 1.82774 11.6202 1.88069 11.6254 2.02465C11.6876 4.25523 10.3174 6.22933 9.41017 7.27677C8.76391 8.02306 7.24849 9.70923 6.69899 10.7649C6.05965 11.9928 6.03027 13.2653 6.03027 13.2653C6.03027 16.3348 8.50818 18.8235 11.5667 18.8235C13.7301 18.8235 15.7414 17.5096 16.6244 15.5306C16.9406 14.8207 17.1031 14.0446 17.1031 13.2669V13.2653Z" fill="url(#paint0_linear_2497_3428)"/>
<path id="Vector_2" d="M15.1383 12.2289C16.0628 11.7341 16.633 10.7066 15.674 9.00384C15.6308 8.92772 15.5081 8.95088 15.5047 9.03693C15.4874 9.36953 15.2265 10.0116 14.9586 10.594C14.5629 11.4495 13.7301 11.8252 13.1564 13.0447C13.1063 13.1522 13.2428 13.2515 13.3344 13.1721C13.87 12.7137 14.5422 12.5483 15.1401 12.2289H15.1383Z" fill="url(#paint1_linear_2497_3428)"/>
</g>
</g>
<defs>
<linearGradient id="paint0_linear_2497_3428" x1="11.5667" y1="8.4235" x2="11.5667" y2="18.7755" gradientUnits="userSpaceOnUse">
<stop stop-color="#FF9600"/>
<stop offset="1" stop-color="#FF5C00"/>
</linearGradient>
<linearGradient id="paint1_linear_2497_3428" x1="14.658" y1="11.0789" x2="14.658" y2="14.4793" gradientUnits="userSpaceOnUse">
<stop stop-color="#FF9600"/>
<stop offset="1" stop-color="#FF5C00"/>
</linearGradient>
</defs>
</svg>
