<svg width="94" height="95" viewBox="0 0 94 95" fill="none" xmlns="http://www.w3.org/2000/svg">
<g id="Sun">
<path id="Vector-5" fill-rule="evenodd" clip-rule="evenodd" d="M61.9998 43.4992C61.9998 51.7835 55.284 58.4993 46.9998 58.4993C38.7155 58.4993 31.9998 51.7835 31.9998 43.4992C31.9998 35.2148 38.7155 28.499 46.9998 28.499C55.284 28.499 61.9998 35.2148 61.9998 43.4992Z" fill="#FFC42B" stroke="#FFC42B" stroke-width="6" stroke-linecap="round" stroke-linejoin="round"/>
<g id="Vector-6" filter="url(#filter0_d_2497_1596)">
<path fill-rule="evenodd" clip-rule="evenodd" d="M86.9998 43.5013H76.9998H86.9998ZM17 43.5013H7H17ZM47.0002 3.5V13.5001V3.5ZM47.0002 73.4999V83.5V73.4999ZM75.2857 15.214L68.2114 22.2884L75.2857 15.214ZM25.7884 64.7104L18.7141 71.7847L25.7884 64.7104ZM18.7141 15.214L25.7884 22.2884L18.7141 15.214ZM68.2175 64.717L75.2861 71.7856L68.2175 64.717Z" fill="#FFC42B"/>
<path d="M86.9998 46.5013C88.6566 46.5013 89.9998 45.1582 89.9998 43.5013C89.9998 41.8445 88.6566 40.5013 86.9998 40.5013V46.5013ZM76.9998 40.5013C75.3429 40.5013 73.9998 41.8445 73.9998 43.5013C73.9998 45.1582 75.3429 46.5013 76.9998 46.5013V40.5013ZM17 46.5013C18.6569 46.5013 20 45.1582 20 43.5013C20 41.8445 18.6569 40.5013 17 40.5013V46.5013ZM7 40.5013C5.34315 40.5013 4 41.8445 4 43.5013C4 45.1582 5.34315 46.5013 7 46.5013V40.5013ZM50.0002 3.5C50.0002 1.84315 48.6571 0.5 47.0002 0.5C45.3434 0.5 44.0002 1.84315 44.0002 3.5H50.0002ZM44.0002 13.5001C44.0002 15.157 45.3434 16.5001 47.0002 16.5001C48.6571 16.5001 50.0002 15.157 50.0002 13.5001H44.0002ZM50.0002 73.4999C50.0002 71.843 48.6571 70.4999 47.0002 70.4999C45.3434 70.4999 44.0002 71.843 44.0002 73.4999H50.0002ZM44.0002 83.5C44.0002 85.1569 45.3434 86.5 47.0002 86.5C48.6571 86.5 50.0002 85.1569 50.0002 83.5H44.0002ZM77.407 17.3353C78.5786 16.1638 78.5786 14.2643 77.407 13.0927C76.2354 11.9211 74.3359 11.9211 73.1644 13.0927L77.407 17.3353ZM66.0901 20.1671C64.9185 21.3387 64.9185 23.2381 66.0901 24.4097C67.2617 25.5813 69.1612 25.5813 70.3328 24.4097L66.0901 20.1671ZM27.9097 66.8317C29.0813 65.6601 29.0813 63.7606 27.9097 62.5891C26.7381 61.4175 24.8386 61.4175 23.6671 62.5891L27.9097 66.8317ZM16.5928 69.6634C15.4212 70.835 15.4212 72.7345 16.5928 73.9061C17.7644 75.0776 19.6639 75.0776 20.8354 73.9061L16.5928 69.6634ZM20.8354 13.0927C19.6639 11.9211 17.7644 11.9211 16.5928 13.0927C15.4212 14.2643 15.4212 16.1638 16.5928 17.3353L20.8354 13.0927ZM23.6671 24.4097C24.8386 25.5813 26.7381 25.5813 27.9097 24.4097C29.0813 23.2381 29.0813 21.3387 27.9097 20.1671L23.6671 24.4097ZM70.3389 62.5957C69.1673 61.4241 67.2678 61.4241 66.0962 62.5956C64.9246 63.7672 64.9246 65.6667 66.0962 66.8383L70.3389 62.5957ZM73.1648 73.9069C74.3363 75.0785 76.2358 75.0785 77.4074 73.9069C78.579 72.7354 78.579 70.8359 77.4074 69.6643L73.1648 73.9069ZM86.9998 40.5013H76.9998V46.5013H86.9998V40.5013ZM17 40.5013H7V46.5013H17V40.5013ZM44.0002 3.5V13.5001H50.0002V3.5H44.0002ZM44.0002 73.4999V83.5H50.0002V73.4999H44.0002ZM73.1644 13.0927L66.0901 20.1671L70.3328 24.4097L77.407 17.3353L73.1644 13.0927ZM23.6671 62.5891L16.5928 69.6634L20.8354 73.9061L27.9097 66.8317L23.6671 62.5891ZM16.5928 17.3353L23.6671 24.4097L27.9097 20.1671L20.8354 13.0927L16.5928 17.3353ZM66.0962 66.8383L73.1648 73.9069L77.4074 69.6643L70.3389 62.5957L66.0962 66.8383Z" fill="#FFC42B"/>
</g>
</g>
<defs>
<filter id="filter0_d_2497_1596" x="0" y="0.5" width="93.9998" height="94" filterUnits="userSpaceOnUse" color-interpolation-filters="sRGB">
<feFlood flood-opacity="0" result="BackgroundImageFix"/>
<feColorMatrix in="SourceAlpha" type="matrix" values="0 0 0 0 0 0 0 0 0 0 0 0 0 0 0 0 0 0 127 0" result="hardAlpha"/>
<feOffset dy="4"/>
<feGaussianBlur stdDeviation="2"/>
<feComposite in2="hardAlpha" operator="out"/>
<feColorMatrix type="matrix" values="0 0 0 0 0 0 0 0 0 0 0 0 0 0 0 0 0 0 0.25 0"/>
<feBlend mode="normal" in2="BackgroundImageFix" result="effect1_dropShadow_2497_1596"/>
<feBlend mode="normal" in="SourceGraphic" in2="effect1_dropShadow_2497_1596" result="shape"/>
</filter>
</defs>
</svg>
