<?xml version="1.0" encoding="UTF-8"?>
<svg id="Layer_1" data-name="Layer 1" xmlns="http://www.w3.org/2000/svg" version="1.1" viewBox="0 0 40 40">
  <defs>
    <style>
      .cls-1 {
        fill-rule: evenodd;
      }

      .cls-1, .cls-2 {
        fill: #ffc42b;
        stroke-width: 0px;
      }
    </style>
  </defs>
  <rect class="cls-2" x="18.9" y="5" width="2.1" height="3.2" rx="1.1" ry="1.1"/>
  <rect class="cls-2" x="25.1" y="7.3" width="3.2" height="2.1" rx="1.1" ry="1.1" transform="translate(6.1 27.3) rotate(-60)"/>
  <path class="cls-1" d="M20,27.5c4.1,0,7.5-3.4,7.5-7.5s-3.4-7.5-7.5-7.5-7.5,3.4-7.5,7.5,3.4,7.5,7.5,7.5ZM20,29.6c5.3,0,9.6-4.3,9.6-9.6s-4.3-9.6-9.6-9.6-9.6,4.3-9.6,9.6,4.3,9.6,9.6,9.6Z"/>
  <rect class="cls-2" x="31.8" y="18.9" width="3.2" height="2.1" rx="1.1" ry="1.1"/>
  <rect class="cls-2" x="30" y="12.2" width="3.2" height="2.1" rx="1.1" ry="1.1" transform="translate(-2.4 17.6) rotate(-30)"/>
  <rect class="cls-2" x="12.2" y="6.8" width="2.1" height="3.2" rx="1.1" ry="1.1" transform="translate(-2.4 7.8) rotate(-30)"/>
  <rect class="cls-2" x="7.3" y="11.7" width="2.1" height="3.2" rx="1.1" ry="1.1" transform="translate(-7.3 13.9) rotate(-60)"/>
  <rect class="cls-2" x="18.9" y="31.8" width="2.1" height="3.2" rx="1.1" ry="1.1"/>
  <rect class="cls-2" x="5" y="18.9" width="3.2" height="2.1" rx="1.1" ry="1.1"/>
  <rect class="cls-2" x="6.8" y="25.6" width="3.2" height="2.1" rx="1.1" ry="1.1" transform="translate(-12.2 7.8) rotate(-30)"/>
  <rect class="cls-2" x="11.7" y="30.5" width="3.2" height="2.1" rx="1.1" ry="1.1" transform="translate(-20.7 27.3) rotate(-60)"/>
  <rect class="cls-2" x="25.6" y="30" width="2.1" height="3.2" rx="1.1" ry="1.1" transform="translate(-12.2 17.6) rotate(-30)"/>
  <rect class="cls-2" x="30.5" y="25.1" width="2.1" height="3.2" rx="1.1" ry="1.1" transform="translate(-7.3 40.7) rotate(-60)"/>
</svg>