<?xml version="1.0" encoding="UTF-8"?>
<svg id="Layer_1" data-name="Layer 1" xmlns="http://www.w3.org/2000/svg" version="1.1" viewBox="0 0 40 40">
  <defs>
    <style>
      .cls-1 {
        fill: #ffc42b;
      }

      .cls-1, .cls-2 {
        fill-rule: evenodd;
        stroke-width: 0px;
      }

      .cls-2 {
        fill: #fff;
      }
    </style>
  </defs>
  <path class="cls-2" d="M34.793,17.515c-.464,1.49-1.293,2.776-2.362,3.786v.011c-.801.788-1.744,1.417-2.78,1.855-1.165.491-2.421.728-3.684.695-1.264-.033-2.506-.336-3.643-.888-1.137-.552-2.144-1.34-2.952-2.312-.808-.972-1.399-2.105-1.734-3.324-.335-1.219-.406-2.495-.208-3.744.198-1.248.66-2.44,1.356-3.496.649-.984,1.487-1.829,2.464-2.485,1.246-.871,2.712-1.42,4.257-1.564-.525-.206-1.067-.385-1.624-.535C15.881,3.371,7.658,8.119,5.515,16.119s2.604,16.223,10.604,18.367c8,2.144,16.223-2.604,18.367-10.604.575-2.147.654-4.309.307-6.366ZM16.766,32.071c-6.667-1.786-10.623-8.639-8.837-15.306,1.234-4.604,4.883-7.915,9.22-8.935-.205.26-.4.529-.583.806-.904,1.371-1.504,2.92-1.762,4.542-.257,1.622-.165,3.28.27,4.864.435,1.584,1.203,3.056,2.254,4.319,1.05,1.263,2.358,2.287,3.835,3.004,1.478.717,3.091,1.11,4.733,1.153,1.642.043,3.274-.265,4.787-.903.21-.089.417-.183.622-.284-2.525,5.37-8.606,8.329-14.539,6.739Z"/>
  <path class="cls-1" d="M31.386,8.955c.032-.117.149-.202.276-.202s.244.085.287.202c.159.499.446,1.381.446,1.381,0,0,.159.202.287.202h1.444c.127,0,.244.085.287.212.042.117-.011.255-.106.329-.425.308-.924.669-1.179.85-.106.074-.149.212-.106.34.096.297.287.881.446,1.37.042.127,0,.255-.106.34-.106.074-.244.074-.35,0-.425-.308-.913-.669-1.168-.86-.106-.074-.244-.074-.35,0-.255.191-.754.552-1.179.86-.096.074-.244.074-.34,0-.106-.085-.149-.212-.117-.34.17-.489.35-1.073.457-1.37.032-.127-.011-.266-.117-.34-.255-.181-.743-.542-1.168-.85-.106-.074-.149-.212-.106-.329.042-.127.149-.212.276-.212h1.455c.127,0,.244-.074.287-.202.096-.297.276-.881.446-1.381h0Z"/>
  <path class="cls-1" d="M23.888,8.955c.032-.117.149-.202.276-.202s.244.085.287.202c.159.499.446,1.381.446,1.381,0,0,.159.202.287.202h1.444c.127,0,.244.085.287.212.042.117-.011.255-.106.329-.425.308-.924.669-1.179.85-.106.074-.149.212-.106.34.096.297.287.881.446,1.37.042.127,0,.255-.106.34-.106.074-.244.074-.35,0-.425-.308-.913-.669-1.168-.86-.106-.074-.244-.074-.35,0-.255.191-.754.552-1.179.86-.096.074-.244.074-.34,0-.106-.085-.149-.212-.117-.34.17-.489.35-1.073.457-1.37.032-.127-.011-.266-.117-.34-.255-.181-.743-.542-1.168-.85-.106-.074-.149-.212-.106-.329.042-.127.149-.212.276-.212h1.455c.127,0,.244-.074.287-.202.096-.297.276-.881.446-1.381h0Z"/>
  <path class="cls-1" d="M27.637,13.953c.032-.117.149-.202.276-.202s.244.085.287.202c.159.499.446,1.381.446,1.381,0,0,.159.202.287.202h1.444c.127,0,.244.085.287.212.042.117-.011.255-.106.329-.425.308-.924.669-1.179.85-.106.074-.149.212-.106.34.096.297.287.881.446,1.37.042.127,0,.255-.106.34-.106.074-.244.074-.35,0-.425-.308-.913-.669-1.168-.86-.106-.074-.244-.074-.35,0-.255.191-.754.552-1.179.86-.096.074-.244.074-.34,0-.106-.085-.149-.212-.117-.34.17-.489.35-1.073.457-1.37.032-.127-.011-.266-.117-.34-.255-.181-.743-.542-1.168-.85-.106-.074-.149-.212-.106-.329.042-.127.149-.212.276-.212h1.455c.127,0,.244-.074.287-.202.096-.297.276-.881.446-1.381h0Z"/>
</svg>