<?xml version="1.0" encoding="UTF-8"?>
<svg id="Layer_1" data-name="Layer 1" xmlns="http://www.w3.org/2000/svg" version="1.1" viewBox="0 0 40 40">
  <defs>
    <style>
      .cls-1 {
        fill: #fff;
        fill-rule: evenodd;
        stroke-width: 0px;
      }
    </style>
  </defs>
  <path class="cls-1" d="M15.213,11.489c.379-.04.764-.06,1.154-.06,5.208,0,9.598,3.632,10.942,8.586.108-.007.216-.012.325-.014-.044,0-.089-.001-.133-.001h-.036s0,0,0,0h1.708c2.041-.035,3.686-1.7,3.686-3.75,0-2.071-1.679-3.75-3.75-3.75-.695,0-1.347.189-1.905.519-.002-.599-.093-1.176-.26-1.72-.835-2.419-3.131-4.156-5.834-4.156-2.773,0-5.118,1.829-5.896,4.346ZM31.975,21.399c1.832,1.361,3.025,3.586,3.025,6.101,0,4.142-3.238,7.5-7.233,7.5-.089,0-.178-.002-.267-.005v.005h-10.964c-.057,0-.113,0-.17,0-6.277,0-11.366-5.277-11.366-11.786,0-5.256,3.318-9.709,7.901-11.228.635-3.961,4.068-6.986,8.208-6.986,3.552,0,6.583,2.227,7.774,5.361.075-.003.15-.004.225-.004,3.254,0,5.893,2.638,5.893,5.893,0,2.213-1.22,4.142-3.025,5.149ZM27.5,32.857h-11.087s-.047,0-.047,0c-5.021,0-9.223-4.243-9.223-9.643s4.202-9.643,9.223-9.643c4.26,0,7.929,3.054,8.945,7.276h.003c.143.585.235,1.192.269,1.815.668-.335,1.41-.52,2.184-.52,2.739,0,5.09,2.325,5.09,5.357,0,3.011-2.319,5.324-5.033,5.357h0s-.325,0-.325,0Z"/>
</svg>