<?xml version="1.0" encoding="UTF-8"?>
<svg id="Layer_1" data-name="Layer 1" xmlns="http://www.w3.org/2000/svg" version="1.1" viewBox="0 0 40 40">
  <defs>
    <style>
      .cls-1 {
        fill-rule: evenodd;
      }

      .cls-1, .cls-2 {
        fill: #fff;
        stroke-width: 0px;
      }
    </style>
  </defs>
  <path class="cls-1" d="M32.857,21.723c0,2.435-1.584,4.478-3.75,5.167v2.217c3.37-.741,5.893-3.766,5.893-7.384,0-4.174-3.358-7.558-7.5-7.558-.212,0-.423.009-.631.026-1.537-4.417-5.711-7.584-10.619-7.584-6.213,0-11.25,5.076-11.25,11.337,0,4.732,2.877,8.787,6.964,10.485v-2.372c-2.865-1.545-4.821-4.592-4.821-8.114,0-5.093,4.093-9.194,9.107-9.194,3.882,0,7.212,2.458,8.518,5.932l.009-.004c.248.671.421,1.378.511,2.112.676-.31,1.425-.483,2.213-.483,2.943,0,5.357,2.409,5.357,5.415Z"/>
  <rect class="cls-2" x="16.786" y="22.679" width="10.714" height="2.143"/>
  <rect class="cls-2" x="14.643" y="26.964" width="10.714" height="2.143"/>
  <rect class="cls-2" x="16.786" y="31.25" width="10.714" height="2.143"/>
</svg>