<?xml version="1.0" encoding="UTF-8"?>
<svg id="Layer_1" data-name="Layer 1" xmlns="http://www.w3.org/2000/svg" version="1.1" viewBox="0 0 40 40">
  <defs>
    <style>
      .cls-1 {
        fill-rule: evenodd;
      }

      .cls-1, .cls-2 {
        fill: #fff;
        stroke-width: 0px;
      }
    </style>
  </defs>
  <path class="cls-1" d="M11.429,27.405c-3.804-1.905-6.429-5.944-6.429-10.619,0-6.509,5.089-11.786,11.366-11.786,5.208,0,9.598,3.632,10.942,8.586.152-.01.305-.015.459-.015,3.995,0,7.233,3.358,7.233,7.5,0,3.86-2.812,7.039-6.429,7.454v-2.164c2.379-.402,4.286-2.559,4.286-5.29,0-3.033-2.351-5.357-5.09-5.357-.774,0-1.516.186-2.184.52-.034-.623-.125-1.231-.269-1.817h-.003c-1.015-4.221-4.685-7.275-8.945-7.275-5.021,0-9.223,4.243-9.223,9.643,0,3.46,1.725,6.445,4.286,8.143v2.477Z"/>
  <path class="cls-1" d="M16.25,27.503c.26,0,.536-.225.536-.585,0-.197-.068-.568-.277-1.113-.083-.218-.181-.442-.288-.667-.32.696-.507,1.322-.506,1.781,0,.36.277.585.536.585h0ZM14.954,22.955c.151-.253.3-.489.442-.703.396-.599,1.284-.59,1.669.016.138.217.284.455.432.709.699,1.2,1.432,2.743,1.432,3.941,0,1.507-1.198,2.728-2.678,2.728s-2.679-1.221-2.68-2.728c0-1.315.699-2.813,1.383-3.963Z"/>
  <path class="cls-1" d="M24.288,26.918c0,.36-.276.585-.536.585s-.536-.225-.536-.585c0-.459.186-1.085.506-1.781.107.226.205.45.288.667.209.546.277.916.277,1.113h0ZM24.567,22.268c-.385-.606-1.273-.616-1.669-.016-.141.214-.291.45-.442.704-.684,1.15-1.383,2.648-1.383,3.963,0,1.507,1.2,2.728,2.68,2.728s2.678-1.221,2.678-2.728c0-1.198-.733-2.741-1.432-3.941-.148-.254-.294-.493-.432-.709Z"/>
  <path class="cls-2" d="M20,30.715l1.856,1.071v2.143l-1.856,1.071-1.856-1.071v-2.143s1.856-1.071,1.856-1.071Z"/>
  <path class="cls-2" d="M26.429,30.715l1.856,1.071v2.143l-1.856,1.071-1.856-1.071v-2.143s1.856-1.071,1.856-1.071Z"/>
  <path class="cls-2" d="M13.572,30.715l1.856,1.071v2.143l-1.856,1.071-1.856-1.071v-2.143s1.856-1.071,1.856-1.071Z"/>
</svg>