<?xml version="1.0" encoding="UTF-8"?>
<svg id="Layer_1" data-name="Layer 1" xmlns="http://www.w3.org/2000/svg" version="1.1" viewBox="0 0 40 40">
  <defs>
    <style>
      .cls-1 {
        fill: #ffc42b;
      }

      .cls-1, .cls-2 {
        fill-rule: evenodd;
        stroke-width: 0px;
      }

      .cls-2 {
        fill: #fff;
      }
    </style>
  </defs>
  <path class="cls-1" d="M32.977,15.275c-1.14,1.13-2.673,1.789-4.287,1.842-1.638.053-3.233-.522-4.453-1.606-1.22-1.084-1.97-2.593-2.093-4.211-.121-1.589.371-3.164,1.375-4.407.537-.646,1.202-1.184,1.957-1.577-.898-.206-1.834-.315-2.795-.315-6.804,0-12.319,5.463-12.319,12.201,0,1.484.268,2.906.758,4.222.583-.415,1.233-.744,1.931-.966-.354-1.022-.546-2.118-.546-3.256,0-4.881,3.527-8.975,8.228-9.875-.591,1.283-.852,2.704-.743,4.133.165,2.169,1.17,4.19,2.804,5.643,1.634,1.452,3.772,2.223,5.966,2.152,1.442-.047,2.836-.455,4.058-1.171-.39,4.431-3.692,8.058-8.027,8.961.453.567.763,1.25.877,1.998,5.36-1.322,9.332-6.122,9.332-11.84,0-1.388-.234-2.722-.665-3.966-.316.767-.78,1.458-1.358,2.039Z"/>
  <path class="cls-2" d="M13.038,32.847h.022s3.714,0,3.714,0c0,0,0,0,.001.001h.008s0,0,0-.001h4.047c.006,0,.012,0,.019.001h.226v.008h.003c1.776,0,3.216-1.44,3.216-3.216s-1.44-3.216-3.216-3.216c-.823,0-1.574.309-2.143.818.003-.071.004-.143.004-.215,0-.717-.13-1.404-.369-2.038l-.006.003c-.834-2.202-2.981-3.784-5.524-3.784-3.275,0-5.896,2.624-5.896,5.819s2.62,5.819,5.896,5.819ZM20.781,34.992c.098.005.196.008.296.008,2.96,0,5.359-2.399,5.359-5.358s-2.399-5.358-5.359-5.358c-.163,0-.324.007-.483.021-1.123-3.056-4.082-5.238-7.556-5.238-4.439,0-8.038,3.565-8.038,7.962s3.599,7.961,8.038,7.961h.007v.002h7.736Z"/>
</svg>