<?xml version="1.0" encoding="UTF-8"?>
<svg id="Layer_1" data-name="Layer 1" xmlns="http://www.w3.org/2000/svg" version="1.1" viewBox="0 0 40 40">
  <defs>
    <style>
      .cls-1, .cls-2 {
        fill-rule: evenodd;
      }

      .cls-1, .cls-2, .cls-3 {
        stroke-width: 0px;
      }

      .cls-1, .cls-3 {
        fill: #ffc42b;
      }

      .cls-2 {
        fill: #fff;
      }
    </style>
  </defs>
  <rect class="cls-3" x="18.929" y="5" width="2.143" height="3.214" rx="1.071" ry="1.071"/>
  <path class="cls-1" d="M24.942,25.642c1.568-1.375,2.558-3.393,2.558-5.642,0-4.142-3.358-7.5-7.5-7.5s-7.5,3.358-7.5,7.5c0,.152.005.303.013.452-.734.258-1.419.619-2.037,1.066-.078-.495-.119-1.002-.119-1.519,0-5.326,4.317-9.643,9.643-9.643s9.643,4.317,9.643,9.643c0,2.645-1.065,5.041-2.789,6.783-.544-.504-1.194-.897-1.912-1.141Z"/>
  <rect class="cls-3" x="31.786" y="18.929" width="3.214" height="2.143" rx="1.071" ry="1.071"/>
  <rect class="cls-3" x="29.991" y="12.232" width="3.214" height="2.143" rx="1.071" ry="1.071" transform="translate(-2.418 17.582) rotate(-30.001)"/>
  <rect class="cls-3" x="25.089" y="7.33" width="3.214" height="2.143" rx="1.071" ry="1.071" transform="translate(6.072 27.321) rotate(-60)"/>
  <rect class="cls-3" x="12.232" y="6.794" width="2.143" height="3.214" rx="1.071" ry="1.071" transform="translate(-2.418 7.777) rotate(-30)"/>
  <rect class="cls-3" x="7.33" y="11.696" width="2.143" height="3.214" rx="1.071" ry="1.071" transform="translate(-7.321 13.928) rotate(-60.001)"/>
  <rect class="cls-3" x="5" y="18.929" width="3.214" height="2.143" rx="1.071" ry="1.071"/>
  <rect class="cls-3" x="30.527" y="25.089" width="2.143" height="3.214" rx="1.071" ry="1.071" transform="translate(-7.32 40.714) rotate(-60)"/>
  <path class="cls-2" d="M15.179,32.857c.03,0,.06,0,.089,0h7.875c.014,0,.027,0,.041,0h.03c1.775,0,3.214-1.439,3.214-3.214s-1.439-3.214-3.214-3.214c-.824,0-1.576.31-2.145.82.004-.094.007-.189.007-.285,0-.724-.13-1.417-.369-2.057.748-.397,1.601-.622,2.507-.622,2.959,0,5.357,2.398,5.357,5.357s-2.398,5.357-5.357,5.357c-.013,0-.026,0-.039,0h-7.955c-.014,0-.028,0-.042,0-4.438,0-8.036-3.598-8.036-8.036s3.598-8.036,8.036-8.036c3.506,0,6.487,2.245,7.585,5.376-.74.062-1.437.273-2.06.605-.834-2.241-2.993-3.838-5.525-3.838-3.255,0-5.893,2.638-5.893,5.893s2.638,5.893,5.893,5.893Z"/>
</svg>