<?xml version="1.0" encoding="UTF-8"?>
<svg id="Layer_1" data-name="Layer 1" xmlns="http://www.w3.org/2000/svg" version="1.1" viewBox="0 0 40 40">
  <defs>
    <style>
      .cls-1 {
        fill: #fff;
        fill-rule: evenodd;
        stroke-width: 0px;
      }
    </style>
  </defs>
  <path class="cls-1" d="M28.571,28.524c3.616-.415,6.429-3.594,6.429-7.454,0-4.142-3.238-7.5-7.233-7.5-.154,0-.307.005-.459.015-1.345-4.954-5.734-8.586-10.942-8.586-6.277,0-11.366,5.277-11.366,11.786,0,5.509,3.645,10.136,8.571,11.427v-2.237c-3.694-1.23-6.429-4.834-6.429-9.19,0-5.4,4.202-9.643,9.223-9.643,4.26,0,7.929,3.054,8.945,7.276h.003c.143.585.235,1.192.269,1.815.668-.335,1.41-.52,2.184-.52,2.739,0,5.09,2.325,5.09,5.357,0,2.731-1.907,4.887-4.286,5.29v2.164Z"/>
  <path class="cls-1" d="M17.324,32.858c.259,0,.536-.225.536-.585,0-.197-.068-.568-.277-1.113-.083-.218-.181-.442-.288-.667-.32.696-.507,1.322-.506,1.781,0,.36.277.585.536.585ZM16.027,28.31c.151-.253.3-.49.442-.703.396-.599,1.284-.59,1.669.017.138.217.284.455.432.709.699,1.2,1.432,2.743,1.432,3.941,0,1.507-1.198,2.728-2.678,2.728s-2.679-1.221-2.68-2.728c0-1.315.699-2.813,1.383-3.963Z"/>
  <path class="cls-1" d="M24.288,29.059c0,.36-.276.585-.536.585s-.536-.225-.536-.585c0-.459.186-1.085.506-1.781.107.226.205.45.288.667.209.546.277.916.277,1.113ZM24.567,24.409c-.385-.606-1.273-.616-1.669-.017-.141.214-.291.45-.442.703-.684,1.15-1.383,2.648-1.383,3.963,0,1.507,1.2,2.728,2.68,2.728s2.678-1.221,2.678-2.728c0-1.198-.733-2.741-1.432-3.941-.148-.254-.294-.492-.432-.709Z"/>
</svg>