<?xml version="1.0" encoding="UTF-8"?>
<svg id="Layer_1" data-name="Layer 1" xmlns="http://www.w3.org/2000/svg" version="1.1" viewBox="0 0 40 40">
  <defs>
    <style>
      .cls-1 {
        fill: #ffc42b;
      }

      .cls-1, .cls-2 {
        fill-rule: evenodd;
        stroke-width: 0px;
      }

      .cls-2 {
        fill: #fff;
      }
    </style>
  </defs>
  <path class="cls-1" d="M34.803,12.25c.229-.854.253-1.714.103-2.529-.58,1.327-2.05,2.078-3.5,1.71-.474-.12-.894-.347-1.239-.648-.15-.111-.287-.24-.407-.384-.211-.254-.365-.55-.453-.868l-.009-.033c-.187-.538-.225-1.135-.074-1.728.304-1.201,1.29-2.049,2.439-2.235-.295-.136-.605-.249-.929-.336-2.886-.774-5.848.792-6.876,3.535.671.591,1.268,1.264,1.774,2.004.002-.302.042-.608.124-.913.229-.855.745-1.555,1.416-2.025-.034.135-.063.272-.085.41-.101.634-.065,1.283.106,1.903s.47,1.195.881,1.689c.41.494.921.895,1.499,1.175.578.28,1.208.434,1.85.451.087.002.174.002.26,0-.88.805-2.138,1.156-3.374.825-.484-.13-.918-.352-1.289-.642.105.338.193.683.264,1.035.071-.002.142-.004.214-.004,1.52,0,2.916.528,4.016,1.41,1.563-.673,2.813-2.029,3.288-3.801Z"/>
  <path class="cls-2" d="M28.57,28.524c3.616-.415,6.428-3.594,6.428-7.454,0-4.142-3.238-7.5-7.232-7.5-.154,0-.307.005-.459.015-1.344-4.954-5.734-8.586-10.941-8.586-6.277,0-11.365,5.276-11.365,11.785,0,5.509,3.645,10.135,8.571,11.426v-2.237c-3.693-1.23-6.428-4.833-6.428-9.189,0-5.399,4.202-9.642,9.223-9.642,4.259,0,7.929,3.053,8.944,7.276h.003c.143.585.235,1.192.269,1.815.668-.335,1.41-.52,2.184-.52,2.738,0,5.09,2.324,5.09,5.357,0,2.73-1.906,4.887-4.285,5.289v2.164Z"/>
  <path class="cls-2" d="M17.323,32.857c.259,0,.536-.225.536-.585,0-.197-.068-.567-.277-1.113-.083-.218-.181-.442-.288-.667-.32.696-.507,1.322-.506,1.781,0,.36.277.585.536.585ZM16.027,28.31c.15-.253.3-.489.442-.703.396-.599,1.284-.59,1.669.017.138.217.284.455.432.709.699,1.2,1.432,2.743,1.432,3.941,0,1.507-1.198,2.728-2.678,2.728s-2.679-1.221-2.679-2.728c0-1.315.699-2.812,1.383-3.963Z"/>
  <path class="cls-2" d="M24.287,29.058c0,.36-.276.585-.536.585s-.536-.225-.536-.585c0-.459.186-1.085.506-1.781.107.226.205.45.288.667.209.546.277.916.277,1.113ZM24.566,24.409c-.385-.606-1.273-.616-1.669-.017-.141.214-.291.45-.442.703-.684,1.15-1.383,2.648-1.383,3.963,0,1.507,1.2,2.728,2.679,2.728s2.678-1.221,2.678-2.728c0-1.198-.733-2.741-1.432-3.941-.148-.254-.294-.492-.432-.709Z"/>
</svg>