<?xml version="1.0" encoding="UTF-8"?>
<svg id="Layer_1" data-name="Layer 1" xmlns="http://www.w3.org/2000/svg" version="1.1" viewBox="0 0 40 40">
  <defs>
    <style>
      .cls-1 {
        fill: #ffc42b;
      }

      .cls-1, .cls-2 {
        fill-rule: evenodd;
        stroke-width: 0px;
      }

      .cls-2 {
        fill: #fff;
      }
    </style>
  </defs>
  <path class="cls-1" d="M31.069,16.172c.587-.842.931-1.866.931-2.97,0-2.873-2.329-5.202-5.202-5.202-1.314,0-2.514.487-3.429,1.29-.526-.435-1.097-.817-1.705-1.138,1.306-1.328,3.124-2.152,5.134-2.152,3.978,0,7.202,3.224,7.202,7.202,0,1.788-.651,3.423-1.73,4.682-.314-.631-.72-1.207-1.201-1.712Z"/>
  <path class="cls-2" d="M28,27.956c3.375-.387,6-3.354,6-6.957,0-3.866-3.022-7-6.751-7-.144,0-.287.005-.428.014-1.255-4.624-5.352-8.014-10.213-8.014-5.859,0-10.608,4.925-10.608,11,0,5.142,3.402,9.46,8,10.665v-2.088c-3.447-1.148-6-4.511-6-8.577,0-5.04,3.922-9,8.608-9,3.976,0,7.401,2.85,8.349,6.791h.003c.134.546.219,1.113.251,1.694.623-.312,1.316-.486,2.038-.486,2.556,0,4.751,2.17,4.751,5,0,2.549-1.779,4.562-4,4.937v2.02Z"/>
  <path class="cls-2" d="M17.502,32.001c.242,0,.5-.21.5-.546,0-.184-.063-.53-.259-1.039-.078-.203-.169-.412-.269-.623-.299.65-.473,1.234-.473,1.662,0,.336.258.546.5.546ZM16.292,27.756c.117-.197.233-.382.345-.554.401-.615,1.298-.608,1.689.014.11.175.224.363.34.561.653,1.12,1.336,2.56,1.337,3.678,0,1.406-1.119,2.546-2.499,2.546s-2.501-1.14-2.501-2.546c0-1.227.652-2.625,1.291-3.699Z"/>
  <path class="cls-2" d="M24.002,28.455c0,.336-.258.546-.5.546s-.5-.21-.5-.546c0-.428.174-1.012.473-1.662.1.211.191.42.269.623.195.51.259.855.259,1.039ZM24.326,24.216c-.39-.622-1.288-.629-1.689-.014-.112.172-.228.358-.345.554-.638,1.074-1.291,2.472-1.291,3.699,0,1.406,1.12,2.546,2.501,2.546s2.5-1.14,2.499-2.546c0-1.118-.684-2.558-1.337-3.678-.115-.198-.23-.386-.34-.561Z"/>
</svg>