<?xml version="1.0" encoding="UTF-8"?>
<svg id="Layer_1" data-name="Layer 1" xmlns="http://www.w3.org/2000/svg" version="1.1" viewBox="0 0 40 40">
  <defs>
    <style>
      .cls-1 {
        fill: #fff;
        fill-rule: evenodd;
        stroke-width: 0px;
      }
    </style>
  </defs>
  <path class="cls-1" d="M22.143,18.927l-.797.558.169.958-.958-.169-.558.797-.558-.797-.958.169.169-.958-.797-.558.797-.558-.169-.958.958.169.558-.797.558.797.958-.169-.169.958.797.558ZM17.061,22.699l.797-.558-.797-.558.169-.958-.958.169-.558-.797-.558.797-.958-.169.169.958-.797.558.797.558-.169.958.958-.169.558.797.558-.797.958.169-.169-.958ZM21.346,25.914l.797-.558-.797-.558.169-.958-.958.169-.558-.797-.558.797-.958-.169.169.958-.797.558.797.558-.169.958.958-.169.558.797.558-.797.958.169-.169-.958ZM25.632,22.699l.797-.558-.797-.558.169-.958-.958.169-.558-.797-.558.797-.958-.169.169.958-.797.558.797.558-.169.958.958-.169.558.797.558-.797.958.169-.169-.958Z"/>
  <path class="cls-1" d="M12.5,27.871c-4.374-1.64-7.5-5.985-7.5-11.086,0-6.509,5.089-11.786,11.366-11.786,5.208,0,9.598,3.632,10.942,8.586.152-.01.305-.015.459-.015,3.995,0,7.233,3.358,7.233,7.5,0,3.86-2.812,7.039-6.429,7.454v-2.164c2.379-.402,4.286-2.559,4.286-5.29,0-3.033-2.351-5.357-5.09-5.357-.774,0-1.516.186-2.184.52-.034-.623-.125-1.231-.269-1.817h-.003c-1.015-4.221-4.685-7.275-8.945-7.275-5.021,0-9.223,4.243-9.223,9.643,0,3.923,2.218,7.236,5.357,8.754v2.332Z"/>
  <path class="cls-1" d="M16.252,32.858c.259,0,.536-.225.536-.585,0-.197-.068-.568-.277-1.113-.083-.218-.181-.442-.288-.667-.32.696-.507,1.322-.506,1.781,0,.36.277.585.536.585ZM14.956,28.31c.151-.253.3-.49.442-.703.396-.599,1.284-.59,1.669.017.138.217.284.455.432.709.699,1.2,1.432,2.743,1.432,3.941,0,1.507-1.198,2.728-2.678,2.728s-2.679-1.221-2.68-2.728c0-1.315.699-2.813,1.383-3.963Z"/>
  <path class="cls-1" d="M23.752,32.858c.259,0,.536-.225.536-.585,0-.197-.068-.568-.277-1.113-.083-.218-.181-.442-.288-.667-.32.696-.507,1.322-.506,1.781,0,.36.277.585.536.585ZM22.456,28.31c.151-.253.3-.49.442-.703.396-.599,1.284-.59,1.669.017.138.217.284.455.432.709.699,1.2,1.432,2.743,1.432,3.941,0,1.507-1.199,2.728-2.678,2.728s-2.679-1.221-2.68-2.728c0-1.315.699-2.813,1.383-3.963Z"/>
</svg>