<?xml version="1.0" encoding="UTF-8"?>
<svg id="Layer_1" data-name="Layer 1" xmlns="http://www.w3.org/2000/svg" version="1.1" viewBox="0 0 40 40">
  <defs>
    <style>
      .cls-1 {
        fill: #ffc42b;
      }

      .cls-1, .cls-2 {
        fill-rule: evenodd;
        stroke-width: 0px;
      }

      .cls-2 {
        fill: #fff;
      }
    </style>
  </defs>
  <path class="cls-1" d="M34.803,12.787c.229-.854.253-1.714.103-2.529-.58,1.327-2.05,2.078-3.5,1.71-.474-.12-.894-.347-1.239-.648-.15-.111-.287-.24-.407-.384-.211-.254-.365-.55-.453-.868l-.009-.033c-.187-.538-.225-1.135-.074-1.728.304-1.201,1.29-2.049,2.439-2.235-.295-.136-.605-.249-.929-.336-2.886-.774-5.848.792-6.876,3.535.671.591,1.268,1.264,1.774,2.004.002-.302.042-.608.124-.913.229-.855.745-1.555,1.416-2.025-.034.135-.063.272-.085.41-.101.634-.065,1.283.106,1.903s.47,1.195.881,1.689c.41.494.921.895,1.499,1.175.578.28,1.208.434,1.85.451.087.002.174.002.26,0-.88.805-2.138,1.156-3.374.825-.484-.13-.918-.352-1.289-.642.105.338.193.683.264,1.035.071-.002.142-.004.214-.004,1.52,0,2.916.528,4.016,1.41,1.563-.673,2.813-2.029,3.288-3.801Z"/>
  <path class="cls-2" d="M34.998,21.607c0,3.469-2.272,6.388-5.357,7.245v-2.267c1.855-.777,3.214-2.673,3.214-4.978,0-3.032-2.351-5.357-5.09-5.357-.774,0-1.516.186-2.184.52-.034-.623-.125-1.231-.269-1.817h-.003c-1.015-4.221-4.685-7.274-8.944-7.274-5.021,0-9.223,4.243-9.223,9.642,0,3.46,1.725,6.444,4.285,8.143v2.475c-3.804-1.905-6.428-5.944-6.428-10.618,0-6.509,5.088-11.785,11.365-11.785,5.208,0,9.597,3.632,10.941,8.586.152-.01.305-.015.459-.015,3.994,0,7.232,3.358,7.232,7.5Z"/>
  <path class="cls-2" d="M14.541,27.064l-.587.343c-.051.03-.114.033-.168.008l-.491-.225c-.092-.042-.2-.002-.242.09l-.002.004c-.042.091,0,.199.09.241l.342.157-.123.072c-.086.05-.116.161-.066.248v.002c.051.088.164.118.252.067l.12-.07-.037.379c-.01.101.064.19.165.199h0c.1.009.189-.064.199-.164l.053-.549c.006-.058.039-.11.089-.14l.583-.341c.122-.071.275.017.275.157v.692c0,.058-.028.113-.075.148l-.441.32c-.082.059-.1.173-.04.255v.002c.06.082.174.1.256.04l.301-.218v.143c0,.101.082.182.182.182h.002c.101,0,.182-.082.182-.182v-.143l.301.218c.082.059.196.041.255-.04v-.002c.06-.082.042-.196-.039-.255l-.441-.32c-.047-.034-.075-.089-.075-.148v-.69c0-.141.153-.229.275-.157l.585.342c.051.03.084.082.089.14l.053.549c.01.1.099.173.199.164h0c.101-.009.174-.099.165-.199l-.037-.379.12.07c.088.051.2.021.251-.067v-.002c.05-.087.021-.197-.065-.248l-.123-.072.342-.157c.091-.042.132-.15.09-.241l-.002-.004c-.042-.092-.15-.132-.242-.09l-.491.225c-.054.025-.117.022-.168-.008l-.593-.347c-.12-.07-.12-.245,0-.315l.59-.345c.051-.03.114-.033.168-.008l.496.228c.092.042.2.002.242-.09l.002-.004c.042-.091,0-.199-.09-.241l-.347-.159.127-.074c.086-.05.116-.161.066-.248v-.002c-.051-.088-.164-.118-.252-.067l-.118.069.036-.374c.01-.101-.064-.19-.165-.199h0c-.1-.009-.189.064-.199.164l-.053.544c-.006.058-.039.11-.089.14l-.588.344c-.122.071-.275-.017-.275-.157v-.686c0-.058.028-.113.075-.148l.445-.323c.082-.059.1-.173.04-.255v-.002c-.06-.082-.174-.1-.256-.04l-.305.221v-.147c0-.101-.082-.182-.182-.182h-.002c-.101,0-.182.082-.182.182v.141l-.297-.215c-.082-.059-.196-.041-.255.04v.002c-.06.082-.042.196.039.255l.437.317c.047.034.075.089.075.148v.695c0,.141-.153.229-.275.157l-.581-.34c-.051-.03-.084-.082-.089-.14l-.054-.555c-.01-.1-.099-.173-.199-.164h0c-.101.009-.174.099-.165.199l.037.385-.123-.072c-.088-.051-.2-.021-.251.067v.002c-.05.087-.021.197.065.248l.121.071-.337.155c-.091.042-.132.15-.09.241l.002.004c.042.092.15.132.242.09l.486-.223c.054-.025.117-.022.168.008l.589.345c.12.07.12.245,0,.315h.003ZM19.898,27.064l-.587.343c-.051.03-.114.033-.168.008l-.491-.225c-.092-.042-.2-.002-.242.09l-.002.004c-.042.091,0,.199.09.241l.342.157-.123.072c-.086.05-.116.161-.066.248v.002c.051.088.164.118.252.067l.12-.07-.037.379c-.01.101.064.19.165.199h0c.1.009.189-.064.199-.164l.053-.549c.006-.058.039-.11.089-.14l.583-.341c.122-.071.275.017.275.157v.692c0,.058-.028.113-.075.148l-.441.32c-.082.059-.1.173-.04.255v.002c.06.082.174.1.256.04l.301-.218v.143c0,.101.082.182.182.182h.002c.101,0,.182-.082.182-.182v-.143l.301.218c.082.059.196.041.255-.04v-.002c.06-.082.042-.196-.039-.255l-.441-.32c-.047-.034-.075-.089-.075-.148v-.69c0-.141.153-.229.275-.157l.585.342c.051.03.084.082.089.14l.053.549c.01.1.099.173.199.164h0c.101-.009.174-.099.165-.199l-.037-.379.12.07c.088.051.2.021.251-.067v-.002c.05-.087.021-.197-.065-.248l-.123-.072.342-.157c.091-.042.132-.15.09-.241l-.002-.004c-.042-.092-.15-.132-.242-.09l-.491.225c-.054.025-.117.022-.168-.008l-.593-.347c-.12-.07-.12-.245,0-.315l.59-.345c.051-.03.114-.033.168-.008l.496.228c.092.042.2.002.242-.09l.002-.004c.042-.091,0-.199-.09-.241l-.347-.159.127-.074c.086-.05.116-.161.066-.248v-.002c-.051-.088-.164-.118-.252-.067l-.118.069.036-.374c.01-.101-.064-.19-.165-.199h0c-.1-.009-.189.064-.199.164l-.053.544c-.006.058-.039.11-.089.14l-.588.344c-.122.071-.275-.017-.275-.157v-.686c0-.058.028-.113.075-.148l.445-.323c.082-.059.1-.173.04-.255v-.002c-.06-.082-.174-.1-.256-.04l-.305.221v-.147c0-.101-.082-.182-.182-.182h-.002c-.101,0-.182.082-.182.182v.141l-.297-.215c-.082-.059-.196-.041-.255.04v.002c-.06.082-.042.196.039.255l.437.317c.047.034.075.089.075.148v.695c0,.141-.153.229-.275.157l-.581-.34c-.051-.03-.084-.082-.089-.14l-.054-.555c-.01-.1-.099-.173-.199-.164h0c-.101.009-.174.099-.165.199l.037.385-.123-.072c-.088-.051-.2-.021-.251.067v.002c-.05.087-.021.197.065.248l.121.071-.337.155c-.091.042-.132.15-.09.241l.002.004c.042.092.15.132.242.09l.486-.223c.054-.025.117-.022.168.008l.589.345c.12.07.12.245,0,.315h.003,0ZM25.255,27.064l-.587.343c-.051.03-.114.033-.168.008l-.491-.225c-.092-.042-.2-.002-.242.09l-.002.004c-.042.091,0,.199.09.241l.342.157-.123.072c-.086.05-.116.161-.066.248v.002c.051.088.164.118.252.067l.12-.07-.037.379c-.01.101.064.19.165.199h0c.1.009.189-.064.199-.164l.053-.549c.006-.058.039-.11.089-.14l.583-.341c.122-.071.275.017.275.157v.692c0,.058-.028.113-.075.148l-.441.32c-.082.059-.1.173-.04.255v.002c.06.082.174.1.256.04l.301-.218v.143c0,.101.082.182.182.182h.002c.101,0,.182-.082.182-.182v-.143l.301.218c.082.059.196.041.255-.04v-.002c.06-.082.042-.196-.039-.255l-.441-.32c-.047-.034-.075-.089-.075-.148v-.69c0-.141.153-.229.275-.157l.585.342c.051.03.084.082.089.14l.053.549c.01.1.099.173.199.164h0c.101-.009.174-.099.165-.199l-.037-.379.12.07c.088.051.2.021.251-.067v-.002c.05-.087.021-.197-.065-.248l-.123-.072.342-.157c.091-.042.132-.15.09-.241l-.002-.004c-.042-.092-.15-.132-.242-.09l-.491.225c-.054.025-.117.022-.168-.008l-.593-.347c-.12-.07-.12-.245,0-.315l.59-.345c.051-.03.114-.033.168-.008l.496.228c.092.042.2.002.242-.09l.002-.004c.042-.091,0-.199-.09-.241l-.347-.159.127-.074c.086-.05.116-.161.066-.248v-.002c-.051-.088-.164-.118-.252-.067l-.118.069.036-.374c.01-.101-.064-.19-.165-.199h0c-.1-.009-.189.064-.199.164l-.053.544c-.006.058-.039.11-.089.14l-.588.344c-.122.071-.275-.017-.275-.157v-.686c0-.058.028-.113.075-.148l.445-.323c.082-.059.1-.173.04-.255v-.002c-.06-.082-.174-.1-.256-.04l-.305.221v-.147c0-.101-.082-.182-.182-.182h-.002c-.101,0-.182.082-.182.182v.141l-.297-.215c-.082-.059-.196-.041-.255.04v.002c-.06.082-.042.196.039.255l.437.317c.047.034.075.089.075.148v.695c0,.141-.153.229-.275.157l-.581-.34c-.051-.03-.084-.082-.089-.14l-.054-.555c-.01-.1-.099-.173-.199-.164h0c-.101.009-.174.099-.165.199l.037.385-.123-.072c-.088-.051-.2-.021-.251.067v.002c-.05.087-.021.197.065.248l.121.071-.337.155c-.091.042-.132.15-.09.241l.002.004c.042.092.15.132.242.09l.486-.223c.054-.025.117-.022.168.008l.589.345c.12.07.12.245,0,.315h.003,0ZM17.62,32.421l-.587.343c-.051.03-.114.033-.168.008l-.491-.225c-.092-.042-.2-.002-.242.09l-.002.004c-.042.091,0,.199.09.241l.342.157-.123.072c-.086.05-.116.161-.066.248v.002c.051.088.164.118.252.067l.12-.07-.037.379c-.01.101.064.19.165.199h0c.1.009.189-.064.199-.164l.053-.549c.006-.058.039-.11.089-.14l.583-.341c.122-.071.275.017.275.157v.692c0,.058-.028.113-.075.148l-.441.32c-.082.059-.1.173-.04.255v.002c.06.082.174.1.256.04l.301-.218v.143c0,.101.082.182.182.182h.002c.101,0,.182-.082.182-.182v-.143l.301.218c.082.059.196.041.255-.04v-.002c.06-.082.042-.196-.039-.255l-.441-.32c-.047-.034-.075-.089-.075-.148v-.69c0-.141.153-.229.275-.157l.585.342c.051.03.084.082.089.14l.053.549c.01.1.099.173.199.164h0c.101-.009.174-.099.165-.199l-.037-.379.12.07c.088.051.2.021.251-.067v-.002c.05-.087.021-.197-.065-.248l-.123-.072.342-.157c.091-.042.132-.15.09-.241l-.002-.004c-.042-.092-.15-.132-.242-.09l-.491.225c-.054.025-.117.022-.168-.008l-.593-.347c-.12-.07-.12-.245,0-.315l.59-.345c.051-.03.114-.033.168-.008l.496.228c.092.042.2.002.242-.09l.002-.004c.042-.091,0-.199-.09-.241l-.347-.159.127-.074c.086-.05.116-.161.066-.248v-.002c-.051-.088-.164-.118-.252-.067l-.118.069.036-.374c.01-.101-.064-.19-.165-.199h0c-.1-.009-.189.064-.199.164l-.053.544c-.006.058-.039.11-.089.14l-.588.344c-.122.071-.275-.017-.275-.157v-.686c0-.058.028-.113.075-.148l.445-.323c.082-.059.1-.173.04-.255v-.002c-.06-.082-.174-.1-.256-.04l-.305.221v-.147c0-.101-.082-.182-.182-.182h-.002c-.101,0-.182.082-.182.182v.141l-.297-.215c-.082-.059-.196-.041-.255.04v.002c-.06.082-.042.196.039.255l.437.317c.047.034.075.089.075.148v.695c0,.141-.153.229-.275.157l-.581-.34c-.051-.03-.084-.082-.089-.14l-.054-.555c-.01-.1-.099-.173-.199-.164h0c-.101.009-.174.099-.165.199l.037.385-.123-.072c-.088-.051-.2-.021-.251.067v.002c-.05.087-.021.197.065.248l.121.071-.337.155c-.091.042-.132.15-.09.241l.002.004c.042.092.15.132.242.09l.486-.223c.054-.025.117-.022.168.008l.589.345c.12.07.12.245,0,.315h.003,0ZM22.993,32.421l-.587.343c-.051.03-.114.033-.168.008l-.491-.225c-.092-.042-.2-.002-.242.09l-.002.004c-.042.091,0,.199.09.241l.342.157-.123.072c-.086.05-.116.161-.066.248v.002c.051.088.164.118.252.067l.12-.07-.037.379c-.01.101.064.19.165.199h0c.1.009.189-.064.199-.164l.053-.549c.006-.058.039-.11.089-.14l.583-.341c.122-.071.275.017.275.157v.692c0,.058-.028.113-.075.148l-.441.32c-.082.059-.1.173-.04.255v.002c.06.082.174.1.256.04l.301-.218v.143c0,.101.082.182.182.182h.002c.101,0,.182-.082.182-.182v-.143l.301.218c.082.059.196.041.255-.04v-.002c.06-.082.042-.196-.039-.255l-.441-.32c-.047-.034-.075-.089-.075-.148v-.69c0-.141.153-.229.275-.157l.585.342c.051.03.084.082.089.14l.053.549c.01.1.099.173.199.164h0c.101-.009.174-.099.165-.199l-.037-.379.12.07c.088.051.2.021.251-.067v-.002c.05-.087.021-.197-.065-.248l-.123-.072.342-.157c.091-.042.132-.15.09-.241l-.002-.004c-.042-.092-.15-.132-.242-.09l-.491.225c-.054.025-.117.022-.168-.008l-.593-.347c-.12-.07-.12-.245,0-.315l.59-.345c.051-.03.114-.033.168-.008l.496.228c.092.042.2.002.242-.09l.002-.004c.042-.091,0-.199-.09-.241l-.347-.159.127-.074c.086-.05.116-.161.066-.248v-.002c-.051-.088-.164-.118-.252-.067l-.118.069.036-.374c.01-.101-.064-.19-.165-.199h0c-.1-.009-.189.064-.199.164l-.053.544c-.006.058-.039.11-.089.14l-.588.344c-.122.071-.275-.017-.275-.157v-.686c0-.058.028-.113.075-.148l.445-.323c.082-.059.1-.173.04-.255v-.002c-.06-.082-.174-.1-.256-.04l-.305.221v-.147c0-.101-.082-.182-.182-.182h-.002c-.101,0-.182.082-.182.182v.141l-.297-.215c-.082-.059-.196-.041-.255.04v.002c-.06.082-.042.196.039.255l.437.317c.047.034.075.089.075.148v.695c0,.141-.153.229-.275.157l-.581-.34c-.051-.03-.084-.082-.089-.14l-.054-.555c-.01-.1-.099-.173-.199-.164h0c-.101.009-.174.099-.165.199l.037.385-.123-.072c-.088-.051-.2-.021-.251.067v.002c-.05.087-.021.197.065.248l.121.071-.337.155c-.091.042-.132.15-.09.241l.002.004c.042.092.15.132.242.09l.486-.223c.054-.025.117-.022.168.008l.589.345c.12.07.12.245,0,.315h.003,0Z"/>
</svg>