<?xml version="1.0" encoding="UTF-8"?>
<svg id="Layer_1" data-name="Layer 1" xmlns="http://www.w3.org/2000/svg" version="1.1" viewBox="0 0 40 40">
  <defs>
    <style>
      .cls-1 {
        fill: #fff;
        fill-rule: evenodd;
        stroke-width: 0px;
      }
    </style>
  </defs>
  <path class="cls-1" d="M28.571,28.523c3.616-.415,6.429-3.594,6.429-7.454,0-4.142-3.238-7.5-7.233-7.5-.154,0-.307.005-.459.015-1.345-4.954-5.734-8.586-10.942-8.586-6.277,0-11.366,5.277-11.366,11.786,0,5.509,3.645,10.136,8.571,11.427v-2.237c-3.694-1.23-6.429-4.834-6.429-9.19,0-5.4,4.202-9.643,9.223-9.643,4.26,0,7.929,3.054,8.945,7.276h.003c.143.585.235,1.192.269,1.815.668-.335,1.41-.52,2.184-.52,2.739,0,5.09,2.325,5.09,5.357,0,2.731-1.907,4.887-4.286,5.29v2.164h0Z"/>
  <path class="cls-1" d="M16.331,31.92l-.913.533c-.079.047-.177.051-.261.012l-.764-.35c-.143-.065-.311-.003-.376.14l-.003.006c-.065.142,0,.309.14.375l.532.244-.191.112c-.134.078-.18.25-.103.386v.003c.079.137.255.184.392.104l.187-.109-.058.589c-.016.157.1.295.257.309h0c.156.014.294-.1.309-.255l.082-.854c.009-.09.061-.171.138-.218l.907-.53c.19-.11.428.026.428.244v1.076c0,.09-.044.176-.117.23l-.686.498c-.128.092-.156.269-.062.397v.003c.093.128.271.156.398.062l.468-.339v.222c0,.157.128.283.283.283h.003c.157,0,.283-.128.283-.283v-.222l.468.339c.128.092.305.064.397-.062v-.003c.093-.128.065-.305-.061-.397l-.686-.498c-.073-.053-.117-.138-.117-.23v-1.073c0-.219.238-.356.428-.244l.91.532c.079.047.131.128.138.218l.082.854c.016.156.154.269.309.255h0c.157-.014.271-.154.257-.309l-.058-.589.187.109c.137.079.311.033.39-.104v-.003c.078-.135.033-.306-.101-.386l-.191-.112.532-.244c.142-.065.205-.233.14-.375l-.003-.006c-.065-.143-.233-.205-.376-.14l-.764.35c-.084.039-.182.034-.261-.012l-.922-.54c-.187-.109-.187-.381,0-.49l.918-.537c.079-.047.177-.051.261-.012l.771.355c.143.065.311.003.376-.14l.003-.006c.065-.142,0-.309-.14-.375l-.54-.247.198-.115c.134-.078.18-.25.103-.386v-.003c-.079-.137-.255-.184-.392-.104l-.184.107.056-.582c.016-.157-.1-.295-.257-.309h0c-.156-.014-.294.1-.309.255l-.082.846c-.009.09-.061.171-.138.218l-.914.535c-.19.11-.428-.026-.428-.244v-1.067c0-.09.044-.176.117-.23l.692-.502c.128-.092.156-.269.062-.397v-.003c-.093-.128-.271-.156-.398-.062l-.474.344v-.229c0-.157-.128-.283-.283-.283h-.003c-.157,0-.283.128-.283.283v.219l-.462-.334c-.128-.092-.305-.064-.397.062v.003c-.093.128-.065.305.061.397l.68.493c.073.053.117.138.117.23v1.081c0,.219-.238.356-.428.244l-.904-.529c-.079-.047-.131-.128-.138-.218l-.084-.863c-.016-.156-.154-.269-.309-.255h0c-.157.014-.271.154-.257.309l.058.599-.191-.112c-.137-.079-.311-.033-.39.104v.003c-.078.135-.033.306.101.386l.188.11-.524.241c-.142.065-.205.233-.14.375l.003.006c.065.143.233.205.376.14l.756-.347c.084-.039.182-.034.261.012l.916.537c.187.109.187.381,0,.49h.005v-.002Z"/>
  <path class="cls-1" d="M23.001,28.077l-.913.533c-.079.047-.177.051-.261.012l-.764-.35c-.143-.065-.311-.003-.376.14l-.003.006c-.065.142,0,.309.14.375l.532.244-.191.112c-.134.078-.18.25-.103.386v.003c.079.137.255.184.392.104l.187-.109-.058.589c-.016.157.1.295.257.309h0c.156.014.294-.1.309-.255l.082-.854c.009-.09.061-.171.138-.218l.907-.53c.19-.11.428.026.428.244v1.076c0,.09-.044.176-.117.23l-.686.498c-.128.092-.156.269-.062.397v.003c.093.128.271.156.398.062l.468-.339v.222c0,.157.128.283.283.283h.003c.157,0,.283-.128.283-.283v-.222l.468.339c.128.092.305.064.397-.062v-.003c.093-.128.065-.305-.061-.397l-.686-.498c-.073-.053-.117-.138-.117-.23v-1.073c0-.219.238-.356.428-.244l.91.532c.079.047.131.128.138.218l.082.854c.016.156.154.269.309.255h0c.157-.014.271-.154.257-.309l-.058-.589.187.109c.137.079.311.033.39-.104v-.003c.078-.135.033-.306-.101-.386l-.191-.112.532-.244c.142-.065.205-.233.14-.375l-.003-.006c-.065-.143-.233-.205-.376-.14l-.764.35c-.084.039-.182.034-.261-.012l-.922-.54c-.187-.109-.187-.381,0-.49l.918-.537c.079-.047.177-.051.261-.012l.771.355c.143.065.311.003.376-.14l.003-.006c.065-.142,0-.309-.14-.375l-.54-.247.198-.115c.134-.078.18-.25.103-.386v-.003c-.079-.137-.255-.184-.392-.104l-.184.107.056-.582c.016-.157-.1-.295-.257-.309h0c-.156-.014-.294.1-.309.255l-.082.846c-.009.09-.061.171-.138.218l-.914.535c-.19.11-.428-.026-.428-.244v-1.067c0-.09.044-.176.117-.23l.692-.502c.128-.092.156-.269.062-.397v-.003c-.093-.128-.271-.156-.398-.062l-.474.344v-.229c0-.157-.128-.283-.283-.283h-.003c-.157,0-.283.128-.283.283v.219l-.462-.334c-.128-.092-.305-.064-.397.062v.003c-.093.128-.065.305.061.397l.68.493c.073.053.117.138.117.23v1.081c0,.219-.238.356-.428.244l-.904-.529c-.079-.047-.131-.128-.138-.218l-.084-.863c-.016-.156-.154-.269-.309-.255h0c-.157.014-.271.154-.257.309l.058.599-.191-.112c-.137-.079-.311-.033-.39.104v.003c-.078.135-.033.306.101.386l.188.11-.524.241c-.142.065-.205.233-.14.375l.003.006c.065.143.233.205.376.14l.756-.347c.084-.039.182-.034.261.012l.916.537c.187.109.187.381,0,.49h.005v-.002Z"/>
</svg>