<?xml version="1.0" encoding="UTF-8"?>
<svg id="Layer_1" data-name="Layer 1" xmlns="http://www.w3.org/2000/svg" version="1.1" viewBox="0 0 40 40">
  <defs>
    <style>
      .cls-1 {
        fill: #ffc42b;
      }

      .cls-1, .cls-2 {
        fill-rule: evenodd;
        stroke-width: 0px;
      }

      .cls-2 {
        fill: #fff;
      }
    </style>
  </defs>
  <path class="cls-1" d="M21.251,20.699l1.783,1.189-3.175,4.763h5.451l-5.87,8.127-1.737-1.255,3.416-4.73h-5.264l5.396-8.094Z"/>
  <path class="cls-2" d="M13.571,28.435c-4.926-1.291-8.571-5.918-8.571-11.427,0-6.509,5.089-11.786,11.366-11.786,5.208,0,9.598,3.632,10.942,8.586.152-.01.305-.015.459-.015,3.995,0,7.233,3.358,7.233,7.5s-3.238,7.5-7.233,7.5c-.089,0-.178-.002-.267-.005v-2.138h.325c2.714-.033,5.033-2.346,5.033-5.357,0-3.033-2.351-5.357-5.09-5.357-.774,0-1.516.186-2.184.52-.034-.623-.125-1.231-.269-1.817h-.003c-1.015-4.221-4.685-7.275-8.945-7.275-5.021,0-9.223,4.243-9.223,9.643,0,4.356,2.735,7.96,6.429,9.19v2.237Z"/>
</svg>