<?xml version="1.0" encoding="UTF-8"?>
<svg id="Layer_1" data-name="Layer 1" xmlns="http://www.w3.org/2000/svg" version="1.1" viewBox="0 0 40 40">
  <defs>
    <style>
      .cls-1 {
        fill: #ffc42b;
      }

      .cls-1, .cls-2 {
        fill-rule: evenodd;
        stroke-width: 0px;
      }

      .cls-2 {
        fill: #fff;
      }
    </style>
  </defs>
  <path class="cls-1" d="M34.802,12.153c.229-.854.253-1.714.103-2.529-.58,1.327-2.05,2.078-3.5,1.71-.474-.12-.894-.347-1.239-.648-.15-.111-.287-.24-.407-.384-.211-.254-.365-.55-.453-.868l-.009-.033c-.187-.538-.225-1.135-.074-1.728.304-1.201,1.29-2.049,2.439-2.235-.295-.136-.605-.249-.929-.336-2.886-.774-5.848.792-6.876,3.535.671.591,1.268,1.264,1.774,2.004.002-.302.042-.608.124-.913.229-.855.745-1.555,1.416-2.025-.034.135-.063.272-.085.41-.101.634-.065,1.283.106,1.903s.47,1.195.881,1.689c.41.494.921.895,1.499,1.175.578.28,1.208.434,1.85.451.087.002.174.002.26,0-.88.805-2.138,1.156-3.374.825-.484-.13-.918-.352-1.289-.642.105.338.193.683.264,1.035.071-.002.142-.004.214-.004,1.52,0,2.916.528,4.016,1.41,1.563-.673,2.813-2.029,3.288-3.801h0Z"/>
  <g>
    <path class="cls-2" d="M12.5,27.967c-4.374-1.64-7.5-5.985-7.5-11.086,0-6.509,5.089-11.786,11.366-11.786,5.208,0,9.598,3.632,10.942,8.586.152-.01.305-.015.459-.015,3.995,0,7.233,3.358,7.233,7.5s-3.238,7.5-7.233,7.5c-.089,0-.178-.002-.267-.005v-2.138h.325c2.714-.033,5.033-2.346,5.033-5.357,0-3.033-2.351-5.357-5.09-5.357-.774,0-1.516.186-2.184.52-.034-.623-.125-1.231-.269-1.817h-.003c-1.015-4.221-4.685-7.275-8.945-7.275-5.021,0-9.223,4.243-9.223,9.643,0,3.923,2.218,7.236,5.357,8.754v2.332h-.001Z"/>
    <path class="cls-1" d="M21.251,20.572l1.783,1.189-3.175,4.763h5.451l-5.87,8.127-1.737-1.255,3.416-4.73h-5.264s5.396-8.094,5.396-8.094Z"/>
    <path class="cls-2" d="M24.672,31.8c-.222.521-.386,1.078-.386,1.591,0,.941.72,1.705,1.608,1.705s1.607-.763,1.607-1.705c0-.479-.18-1.047-.42-1.59-.102-.231-.215-.458-.329-.672-.371-.694-1.377-.698-1.751-.006-.115.213-.228.441-.328.677h-.001Z"/>
    <path class="cls-2" d="M12.887,31.8c-.222.521-.386,1.078-.386,1.591,0,.941.72,1.705,1.608,1.705s1.607-.763,1.607-1.705c0-.479-.18-1.047-.42-1.59-.102-.231-.215-.458-.329-.672-.371-.694-1.377-.698-1.751-.006-.115.213-.228.441-.328.677h-.001Z"/>
  </g>
</svg>