<?xml version="1.0" encoding="UTF-8"?>
<svg id="Layer_1" data-name="Layer 1" xmlns="http://www.w3.org/2000/svg" version="1.1" viewBox="0 0 40 40">
  <defs>
    <style>
      .cls-1 {
        fill: #ffc42b;
      }

      .cls-1, .cls-2 {
        fill-rule: evenodd;
        stroke-width: 0px;
      }

      .cls-2 {
        fill: #fff;
      }
    </style>
  </defs>
  <path class="cls-1" d="M31.861,15.899c.629-.902.997-1.999.997-3.183,0-3.078-2.495-5.574-5.574-5.574-1.407,0-2.693.522-3.674,1.382-.563-.466-1.175-.875-1.827-1.22,1.4-1.423,3.347-2.305,5.501-2.305,4.262,0,7.716,3.455,7.716,7.716,0,1.915-.698,3.668-1.853,5.017-.336-.676-.772-1.293-1.287-1.834h0Z"/>
  <path class="cls-2" d="M12.5,27.871c-4.374-1.64-7.5-5.985-7.5-11.086,0-6.509,5.089-11.786,11.366-11.786,5.208,0,9.598,3.632,10.942,8.586.152-.01.305-.015.459-.015,3.995,0,7.233,3.358,7.233,7.5s-3.238,7.5-7.233,7.5c-.089,0-.178-.002-.267-.005v-2.138h.325c2.714-.033,5.033-2.346,5.033-5.357,0-3.033-2.351-5.357-5.09-5.357-.774,0-1.516.186-2.184.52-.034-.623-.125-1.231-.269-1.817h-.003c-1.015-4.221-4.685-7.275-8.945-7.275-5.021,0-9.223,4.243-9.223,9.643,0,3.923,2.218,7.236,5.357,8.754v2.332h-.001Z"/>
  <path class="cls-1" d="M21.251,20.476l1.783,1.189-3.175,4.763h5.451l-5.87,8.127-1.737-1.255,3.416-4.73h-5.264s5.396-8.094,5.396-8.094Z"/>
  <path class="cls-2" d="M24.672,31.704c-.222.521-.386,1.078-.386,1.591,0,.941.72,1.705,1.608,1.705s1.607-.763,1.607-1.705c0-.479-.18-1.047-.42-1.59-.102-.231-.215-.458-.329-.672-.371-.694-1.377-.698-1.751-.006-.115.213-.228.441-.328.677h-.001Z"/>
  <path class="cls-2" d="M12.887,31.704c-.222.521-.386,1.078-.386,1.591,0,.941.72,1.705,1.608,1.705s1.607-.763,1.607-1.705c0-.479-.18-1.047-.42-1.59-.102-.231-.215-.458-.329-.672-.371-.694-1.377-.698-1.751-.006-.115.213-.228.441-.328.677h-.001Z"/>
</svg>