<?xml version="1.0" encoding="UTF-8"?>
<svg id="Layer_1" data-name="Layer 1" xmlns="http://www.w3.org/2000/svg" version="1.1" viewBox="0 0 40 40">
  <defs>
    <style>
      .cls-1 {
        fill: #fff;
        fill-rule: evenodd;
        stroke-width: 0px;
      }
    </style>
  </defs>
  <path class="cls-1" d="M17.5,13.118v-.007h-7.076s6.787-2.453,6.787-2.453v-.002c.129-.033.264-.044.398-.034.018.001.035.003.053.005h0c.184.022.36.084.517.182h0c.157.098.29.23.39.386h0c.1.156.163.332.187.516h0c.023.184.005.371-.052.547h0c-.058.176-.154.337-.282.471h0c-.128.134-.283.239-.456.305h0c-.016.006-.033.012-.049.018-.134.045-.275.067-.416.066ZM5,12.412v3.199h12.475c.474.006.945-.079,1.388-.25h0c.338-.13.653-.308.938-.528.152-.117.294-.246.427-.386h0c.382-.402.67-.884.843-1.411h0c.173-.527.227-1.086.157-1.636h0c-.07-.551-.26-1.078-.559-1.546h0c-.298-.468-.697-.863-1.167-1.158h0c-.163-.102-.334-.192-.51-.267-.331-.142-.681-.236-1.04-.278h0c-.535-.063-1.078-.009-1.59.157h0s-.038.013-.038.013l-.005.002h0s-11.319,4.09-11.319,4.09ZM5,23.122v2.568l16.507,5.873h0c.597.239,1.24.342,1.882.304.247-.015.491-.05.731-.106.383-.089.754-.23,1.101-.42.565-.308,1.054-.737,1.434-1.256.38-.519.641-1.116.764-1.747.123-.631.106-1.282-.052-1.906-.157-.624-.45-1.205-.858-1.703-.251-.306-.541-.576-.863-.803-.201-.142-.414-.267-.637-.373-.58-.276-1.213-.422-1.855-.426v-.004H5ZM23.138,25.623h-10.869s10.211,3.633,10.211,3.633v.003c.242.09.501.128.759.112.275-.016.543-.093.785-.225.242-.132.452-.316.614-.538.163-.222.275-.478.327-.748.053-.271.045-.549-.022-.816-.067-.267-.193-.516-.367-.729-.175-.213-.394-.385-.643-.504-.248-.118-.52-.181-.794-.182h-.001v-.005ZM28.773,13.435h0s-1.23-2.176-1.23-2.176v-.003s.001-.001.001-.001c.666-.376,1.409-.594,2.172-.637.111-.006.221-.009.332-.008.652.006,1.298.14,1.901.395.705.298,1.332.754,1.833,1.333.501.579.862,1.265,1.056,2.005.194.74.216,1.516.063,2.266-.153.75-.475,1.455-.943,2.061-.4.518-.897.951-1.462,1.277-.096.055-.194.107-.293.156-.687.337-1.442.512-2.208.51h0s-24.993,0-24.993,0v-2.5h24.997v-.003c.382,0,.76-.087,1.103-.255.343-.168.643-.413.877-.716.234-.303.395-.655.471-1.029.076-.375.066-.762-.031-1.132-.097-.37-.278-.713-.528-1.002-.25-.289-.563-.517-.915-.666-.352-.149-.734-.215-1.115-.193-.381.022-.752.131-1.085.318Z"/>
</svg>