<?xml version="1.0" encoding="UTF-8"?>
<svg id="Layer_1" data-name="Layer 1" xmlns="http://www.w3.org/2000/svg" xmlns:xlink="http://www.w3.org/1999/xlink" version="1.1" viewBox="0 0 411 263">
  <defs>
    <style>
      .cls-1 {
        fill: #ff5c00;
      }

      .cls-1, .cls-2, .cls-3, .cls-4, .cls-5, .cls-6, .cls-7 {
        stroke-width: 0px;
      }

      .cls-8 {
        clip-path: url(#clippath);
      }

      .cls-2 {
        fill: none;
      }

      .cls-9 {
        clip-path: url(#clippath-1);
      }

      .cls-10 {
        clip-path: url(#clippath-4);
      }

      .cls-11 {
        clip-path: url(#clippath-3);
      }

      .cls-12 {
        clip-path: url(#clippath-2);
      }

      .cls-13 {
        clip-path: url(#clippath-5);
      }

      .cls-3 {
        fill: #3a3939;
      }

      .cls-4 {
        fill: #33363f;
      }

      .cls-5 {
        fill: #d9d9d9;
      }

      .cls-6 {
        fill: #fff;
      }

      .cls-7 {
        fill: #232627;
      }
    </style>
    <clipPath id="clippath">
      <rect class="cls-2" y="113" width="410" height="70" rx="4" ry="4"/>
    </clipPath>
    <clipPath id="clippath-1">
      <rect class="cls-2" x="1" y="193" width="410" height="70" rx="4" ry="4"/>
    </clipPath>
    <clipPath id="clippath-2">
      <rect class="cls-2" y="33" width="410" height="70" rx="4" ry="4"/>
    </clipPath>
    <clipPath id="clippath-3">
      <rect class="cls-2" x="19" y="55" width="32.7" height="22.5"/>
    </clipPath>
    <clipPath id="clippath-4">
      <rect class="cls-2" x="19" y="221" width="37" height="16.8"/>
    </clipPath>
    <clipPath id="clippath-5">
      <rect class="cls-2" x="19" y="133" width="27" height="33"/>
    </clipPath>
  </defs>
  <g class="cls-8">
    <g>
      <rect class="cls-7" y="113" width="410" height="70" rx="4" ry="4"/>
      <circle class="cls-5" cx="35" cy="148" r="25"/>
      <path class="cls-6" d="M81.4,139v-11.3h7.2v1.7h-5.2v3.3h4.7v1.6h-4.7v4.6h-2ZM92.8,139.2c-.6,0-1.2-.1-1.6-.4-.4-.2-.8-.6-1-1.1-.2-.5-.3-1.1-.3-1.7v-5.5h1.9v5.1c0,.7.1,1.2.4,1.5.3.3.7.5,1.3.5s.6,0,.8-.1c.2,0,.4-.2.6-.4.2-.2.3-.4.4-.7,0-.3.1-.6.1-.9v-5h1.9v8.5h-1.9v-1.3h-.1c-.1.3-.3.6-.5.8-.2.2-.5.4-.8.5-.3.1-.7.2-1.1.2ZM99.2,139v-11.8h1.9v11.8h-1.9ZM103,139v-11.8h1.9v11.8h-1.9ZM111.6,139v-1.6h3.4c.7,0,1.3-.2,1.7-.5.4-.3.6-.7.6-1.3h0c0-.4,0-.7-.3-1-.2-.3-.4-.5-.8-.6-.3-.1-.8-.2-1.3-.2h-3.3v-1.4h3c.7,0,1.3-.1,1.6-.4.4-.3.6-.7.6-1.2h0c0-.5-.2-.9-.5-1.2-.3-.3-.8-.4-1.4-.4h-3.2v-1.6h3.7c.7,0,1.3.1,1.8.3.5.2.9.5,1.2,1,.3.4.4.9.4,1.5h0c0,.4,0,.8-.3,1.1-.2.3-.4.6-.7.9-.3.2-.6.4-1,.4h0c.5.2.9.3,1.3.6.4.2.7.6.9.9.2.4.3.8.3,1.3h0c0,.7-.2,1.2-.5,1.7-.3.5-.8.8-1.3,1.1-.6.3-1.3.4-2.1.4h-3.8ZM110.6,139v-11.3h2v11.3h-2ZM124.3,139.2c-.8,0-1.6-.2-2.2-.5-.6-.4-1.1-.9-1.4-1.5-.3-.7-.5-1.5-.5-2.4h0c0-.9.2-1.7.5-2.4.3-.7.8-1.2,1.4-1.5.6-.4,1.3-.5,2.2-.5s1.6.2,2.2.5c.6.4,1.1.9,1.4,1.5.3.7.5,1.4.5,2.4h0c0,.9-.2,1.7-.5,2.4-.3.7-.8,1.2-1.4,1.5-.6.4-1.3.5-2.2.5ZM124.3,137.6c.4,0,.8-.1,1.1-.3.3-.2.6-.6.7-1,.2-.4.2-.9.2-1.5h0c0-.6,0-1.1-.2-1.6-.2-.4-.4-.8-.7-1-.3-.2-.7-.3-1.1-.3s-.8.1-1.1.3c-.3.2-.6.5-.7,1-.2.4-.2.9-.2,1.5h0c0,.6,0,1.1.2,1.6.2.4.4.8.7,1,.3.2.7.3,1.2.3ZM132.8,139.1c-.7,0-1.3-.2-1.9-.5-.5-.4-.9-.9-1.2-1.5-.3-.7-.4-1.4-.4-2.3h0c0-.9.1-1.7.4-2.4.3-.7.7-1.2,1.2-1.5.5-.4,1.1-.5,1.9-.5s.8,0,1.1.2c.3.1.6.3.9.5.3.2.5.5.6.8h.1v-4.7h1.9v11.8h-1.9v-1.3h-.1c-.2.3-.4.6-.6.8-.2.2-.5.4-.9.5-.3.1-.7.2-1.1.2ZM133.4,137.5c.4,0,.8-.1,1.1-.3.3-.2.6-.5.7-1,.2-.4.3-.9.3-1.5h0c0-.6,0-1.1-.3-1.5-.2-.4-.4-.7-.7-1-.3-.2-.7-.3-1.1-.3s-.8.1-1.1.3c-.3.2-.6.5-.7,1-.2.4-.3.9-.3,1.5h0c0,.6,0,1.1.3,1.5.2.4.4.7.7,1,.3.2.7.3,1.1.3ZM140.2,142c-.1,0-.2,0-.4,0-.1,0-.2,0-.4,0v-1.5c0,0,.2,0,.3,0,.1,0,.2,0,.3,0,.4,0,.7,0,1-.3.2-.2.4-.4.5-.8v-.4c.1,0-3-8.5-3-8.5h2.1l2.2,7.6-.5-.9h.7l-.5.9,2.2-7.6h2l-3.1,8.7c-.2.7-.5,1.3-.8,1.7-.3.4-.7.7-1.1.9-.4.2-1,.3-1.6.3ZM154.1,139l-3-11.3h2.1l1.9,8.5h.1l2.2-8.5h1.8l2.2,8.5h.1l1.9-8.5h2.1l-3,11.3h-1.9l-2.3-8.1h-.1l-2.3,8.1h-1.9ZM169.6,139.2c-.8,0-1.6-.2-2.2-.5-.6-.4-1.1-.9-1.4-1.5-.3-.7-.5-1.5-.5-2.4h0c0-.9.2-1.7.5-2.4.3-.7.8-1.2,1.4-1.5.6-.4,1.3-.5,2.2-.5s1.6.2,2.2.5c.6.4,1.1.9,1.4,1.5.3.7.5,1.4.5,2.4h0c0,.9-.2,1.7-.5,2.4-.3.7-.8,1.2-1.4,1.5-.6.4-1.3.5-2.2.5ZM169.6,137.6c.4,0,.8-.1,1.1-.3.3-.2.6-.6.7-1,.2-.4.2-.9.2-1.5h0c0-.6,0-1.1-.2-1.6-.2-.4-.4-.8-.7-1-.3-.2-.7-.3-1.1-.3s-.8.1-1.1.3c-.3.2-.6.5-.7,1-.2.4-.2.9-.2,1.5h0c0,.6,0,1.1.2,1.6.2.4.4.8.7,1,.3.2.7.3,1.2.3ZM175,139v-8.5h1.9v1.3h.1c.1-.5.4-.8.8-1.1.4-.3.9-.4,1.4-.4s.3,0,.4,0c.1,0,.3,0,.4,0v1.7c-.2,0-.3,0-.5,0-.2,0-.3,0-.5,0-.4,0-.8,0-1.1.2-.3.2-.6.4-.8.7-.2.3-.3.6-.3,1.1v5h-1.9ZM181.1,139v-11.8h1.9v11.8h-1.9ZM186.5,139l-2.9-3.9,1.4-1.2,3.8,5.1h-2.3ZM182.9,136.2v-2.2c0,0,.3,0,.3,0l3.1-3.5h2.2l-3.7,3.9-.9.7-1.1,1.1ZM192.9,139.2c-.8,0-1.6-.2-2.2-.5-.6-.4-1.1-.9-1.4-1.5-.3-.7-.5-1.5-.5-2.4h0c0-.9.2-1.7.5-2.4.3-.7.8-1.2,1.4-1.5.6-.4,1.3-.5,2.2-.5s1.6.2,2.2.5c.6.4,1.1.9,1.4,1.5.3.7.5,1.4.5,2.4h0c0,.9-.2,1.7-.5,2.4-.3.7-.8,1.2-1.4,1.5-.6.4-1.3.5-2.2.5ZM192.9,137.6c.4,0,.8-.1,1.1-.3.3-.2.6-.6.7-1,.2-.4.2-.9.2-1.5h0c0-.6,0-1.1-.2-1.6-.2-.4-.4-.8-.7-1-.3-.2-.7-.3-1.1-.3s-.8.1-1.1.3c-.3.2-.6.5-.7,1-.2.4-.2.9-.2,1.5h0c0,.6,0,1.1.2,1.6.2.4.4.8.7,1,.3.2.7.3,1.2.3ZM201.1,139.2c-.6,0-1.2-.1-1.6-.4-.4-.2-.8-.6-1-1.1-.2-.5-.3-1.1-.3-1.7v-5.5h1.9v5.1c0,.7.1,1.2.4,1.5.3.3.7.5,1.3.5s.6,0,.8-.1c.2,0,.4-.2.6-.4.2-.2.3-.4.4-.7,0-.3.1-.6.1-.9v-5h1.9v8.5h-1.9v-1.3h-.1c-.1.3-.3.6-.5.8-.2.2-.5.4-.8.5-.3.1-.7.2-1.1.2ZM210.8,139c-1,0-1.7-.2-2.1-.5-.4-.4-.6-.9-.6-1.8v-4.8h-1.3v-1.5h1.3v-2.1h2v2.1h1.8v1.5h-1.8v4.3c0,.4,0,.7.3.9.2.2.5.3.9.3s.3,0,.3,0c0,0,.2,0,.3,0v1.5c-.1,0-.3,0-.5,0-.2,0-.4,0-.5,0Z"/>
      <path class="cls-1" d="M87.4,170v-18.7h0l-5.8,4v-3.7l5.9-4.1h4v22.5h-4ZM100.5,170v-22.5h3.9v8.8h0c.4-1,1.1-1.8,2-2.3.9-.5,1.9-.8,3.2-.8s2.2.3,3.1.8c.9.5,1.6,1.3,2,2.3.5,1,.7,2.1.7,3.5v10.3h-3.9v-9.5c0-1.3-.3-2.3-.9-3-.6-.7-1.5-1.1-2.6-1.1s-1.4.2-1.9.5c-.5.3-1,.8-1.3,1.4-.3.6-.5,1.3-.5,2.1v9.5h-3.9ZM124.6,170.3c-1.6,0-3-.3-4.2-1-1.2-.7-2.1-1.7-2.8-3-.7-1.3-1-2.8-1-4.6h0c0-1.8.3-3.3,1-4.6.7-1.3,1.6-2.3,2.8-3,1.2-.7,2.6-1,4.2-1s3,.3,4.2,1c1.2.7,2.1,1.7,2.8,3,.7,1.3,1,2.8,1,4.6h0c0,1.8-.3,3.4-1,4.7-.7,1.3-1.6,2.3-2.8,3-1.2.7-2.6,1-4.2,1ZM124.7,167.2c.8,0,1.5-.2,2.1-.6.6-.4,1.1-1,1.4-1.9.3-.8.5-1.8.5-3h0c0-1.2-.2-2.2-.5-3-.3-.8-.8-1.4-1.4-1.9-.6-.4-1.3-.6-2.1-.6s-1.5.2-2.1.6c-.6.4-1.1,1-1.4,1.9-.3.8-.5,1.8-.5,2.9h0c0,1.2.2,2.2.5,3,.3.8.8,1.4,1.4,1.9.6.4,1.3.6,2.2.6ZM139.5,170.3c-1.2,0-2.3-.2-3.1-.7-.8-.5-1.5-1.2-1.9-2.1s-.7-2-.7-3.3v-10.7h3.9v9.9c0,1.2.3,2.1.8,2.7.6.6,1.4,1,2.5,1s1.1,0,1.5-.3c.5-.2.8-.5,1.2-.8s.6-.8.7-1.3c.2-.5.2-1.1.2-1.7v-9.6h3.9v16.6h-3.9v-2.6h0c-.3.6-.7,1.1-1.1,1.5-.5.4-1,.8-1.7,1-.7.2-1.4.4-2.2.4ZM150.5,170v-16.6h3.9v2.9h0c.2-1,.7-1.8,1.4-2.3.7-.6,1.5-.9,2.4-.9s.5,0,.7,0c.2,0,.4,0,.5.1v3.5c-.2,0-.4-.1-.7-.2-.3,0-.6,0-.9,0-.7,0-1.4.2-1.9.5-.5.3-.9.7-1.2,1.3-.3.6-.4,1.3-.4,2.1v9.6h-3.9Z"/>
      <path class="cls-6" d="M320,164.3c-.9,0-1.7-.2-2.3-.7-.6-.5-1.1-1.2-1.5-2-.3-.9-.5-1.9-.5-3.1h0c0-1.2.2-2.3.5-3.2.3-.9.8-1.6,1.5-2,.6-.5,1.4-.7,2.3-.7s1.7.2,2.3.7c.6.5,1.1,1.2,1.5,2,.3.9.5,1.9.5,3.1h0c0,1.2-.2,2.3-.5,3.2-.3.9-.8,1.6-1.5,2-.6.5-1.4.7-2.3.7ZM320,162.6c.5,0,.9-.2,1.2-.5.3-.3.6-.8.8-1.5.2-.6.3-1.4.3-2.3h0c0-.9,0-1.7-.3-2.3-.2-.6-.4-1.1-.8-1.5-.3-.3-.7-.5-1.2-.5s-.9.2-1.2.5c-.3.3-.6.8-.8,1.5-.2.6-.3,1.4-.3,2.3h0c0,.9,0,1.7.3,2.3.2.6.4,1.1.8,1.5.3.3.7.5,1.2.5ZM329.9,164.2c-.8,0-1.5-.1-2.2-.4-.6-.3-1.1-.7-1.5-1.1-.4-.5-.6-1.1-.6-1.7h0c0,0,1.9,0,1.9,0h0c0,.4.2.7.4.9.2.2.5.4.8.6.3.1.7.2,1.2.2s.8,0,1.1-.2c.3-.2.6-.4.8-.6.2-.3.3-.6.3-.9h0c0-.6-.2-1.1-.6-1.4-.4-.3-1-.5-1.7-.5h-1.3v-1.5h1.3c.4,0,.8,0,1.1-.2.3-.1.6-.3.7-.6.2-.3.3-.5.3-.9h0c0-.4,0-.7-.2-.9-.1-.2-.4-.4-.6-.6-.3-.1-.6-.2-1-.2s-.7,0-1.1.2c-.3.1-.5.3-.7.6-.2.2-.3.5-.3.9h0c0,0-1.9,0-1.9,0h0c0-.7.3-1.3.6-1.8.3-.5.8-.9,1.4-1.1.6-.3,1.2-.4,2-.4s1.5.1,2,.4c.6.2,1,.6,1.3,1,.3.4.5,1,.5,1.6h0c0,.5-.1.9-.3,1.2-.2.4-.5.6-.8.9-.4.2-.8.4-1.2.5h0c.8.1,1.5.4,2,.9.5.5.8,1.1.8,1.9h0c0,.7-.2,1.3-.5,1.8-.4.5-.8.9-1.5,1.2-.6.3-1.4.4-2.2.4ZM339.6,152.2l-3.4,14.7h-1.8l3.4-14.7h1.8ZM343,164v-9.3h-.1l-2.8,2v-1.9l2.9-2.1h2v11.3h-2ZM351.6,164.3c-.8,0-1.4-.1-2-.4-.6-.3-1-.7-1.4-1.2-.3-.5-.5-1.1-.6-1.7h0c0-.1,1.9-.1,1.9-.1h0c0,.4.2.6.4.9.2.2.4.5.8.6.3.1.7.2,1,.2s.8,0,1.2-.3c.3-.2.6-.5.8-.8.2-.3.3-.7.3-1.2h0c0-.5,0-.8-.3-1.2-.2-.3-.4-.6-.8-.8-.3-.2-.7-.3-1.1-.3s-.6,0-.9.1c-.3,0-.5.2-.7.4-.1,0-.2.2-.3.3,0,.1-.2.2-.2.3h-1.7l.5-6.6h6.8v1.6h-5.2l-.3,3.4h.1c.2-.3.4-.5.6-.6.2-.2.5-.3.8-.4.3,0,.6-.1,1-.1.7,0,1.3.2,1.9.5.5.3,1,.8,1.3,1.3.3.6.5,1.2.5,1.9h0c0,.8-.2,1.5-.5,2.1-.3.6-.8,1.1-1.5,1.4-.6.3-1.3.5-2.2.5ZM361.2,152.2l-3.4,14.7h-1.8l3.4-14.7h1.8ZM361.8,164v-1.4l3.7-3.8c.5-.5.9-.9,1.2-1.3.3-.3.5-.6.6-.9.1-.3.2-.5.2-.8h0c0-.4,0-.7-.2-.9-.2-.3-.4-.5-.6-.6-.3-.2-.6-.2-1-.2s-.7,0-1,.2c-.3.2-.5.4-.7.7-.2.3-.2.6-.2,1h0s-1.9,0-1.9,0h0c0-.7.2-1.3.5-1.9.3-.5.8-1,1.4-1.3.6-.3,1.3-.5,2.1-.5s1.4.1,1.9.4c.6.3,1,.7,1.3,1.1s.5,1,.5,1.7h0c0,.4,0,.9-.2,1.3-.2.4-.4.8-.8,1.3-.4.5-.9,1-1.6,1.7l-2.8,2.7.5-.9v.9l-.5-.4h5.6v1.7h-7.8ZM375.3,164.3c-.9,0-1.7-.2-2.3-.7-.6-.5-1.1-1.2-1.5-2-.3-.9-.5-1.9-.5-3.1h0c0-1.2.2-2.3.5-3.2.3-.9.8-1.6,1.5-2,.6-.5,1.4-.7,2.3-.7s1.7.2,2.3.7,1.1,1.2,1.5,2c.3.9.5,1.9.5,3.1h0c0,1.2-.2,2.3-.5,3.2-.3.9-.8,1.6-1.5,2-.6.5-1.4.7-2.3.7ZM375.3,162.6c.5,0,.9-.2,1.2-.5.3-.3.6-.8.8-1.5.2-.6.3-1.4.3-2.3h0c0-.9,0-1.7-.3-2.3-.2-.6-.4-1.1-.8-1.5-.3-.3-.7-.5-1.2-.5s-.9.2-1.2.5c-.3.3-.6.8-.8,1.5-.2.6-.3,1.4-.3,2.3h0c0,.9,0,1.7.3,2.3.2.6.4,1.1.8,1.5.3.3.7.5,1.2.5ZM381.2,164v-1.4l3.7-3.8c.5-.5.9-.9,1.2-1.3.3-.3.5-.6.6-.9.1-.3.2-.5.2-.8h0c0-.4,0-.7-.2-.9-.2-.3-.4-.5-.6-.6-.3-.2-.6-.2-1-.2s-.7,0-1,.2c-.3.2-.5.4-.7.7-.2.3-.2.6-.2,1h0s-1.9,0-1.9,0h0c0-.7.2-1.3.5-1.9.3-.5.8-1,1.4-1.3.6-.3,1.3-.5,2.1-.5s1.4.1,1.9.4c.6.3,1,.7,1.3,1.1s.5,1,.5,1.7h0c0,.4,0,.9-.2,1.3-.2.4-.4.8-.8,1.3-.4.5-.9,1-1.6,1.7l-2.8,2.7.5-.9v.9l-.5-.4h5.6v1.7h-7.8ZM395.6,164v-2.2h-5.5v-1.6c.3-.5.6-1,.9-1.5.3-.5.6-1,.9-1.5.3-.5.6-1,.9-1.5.3-.5.6-1,.9-1.5.3-.5.6-1,.9-1.4h2.8v7.4h1.5v1.7h-1.5v2.2h-1.9ZM392,160.2h3.7v-5.9h-.1c-.2.4-.5.7-.7,1.1-.2.4-.5.8-.7,1.1-.2.4-.5.8-.7,1.2-.2.4-.5.8-.7,1.2-.2.4-.5.8-.7,1.2h0Z"/>
    </g>
  </g>
  <g class="cls-9">
    <g>
      <rect class="cls-7" x="1" y="193" width="410" height="70" rx="4" ry="4"/>
      <circle class="cls-5" cx="36" cy="228" r="25"/>
      <path class="cls-6" d="M87.1,219.3c-1.1,0-2-.2-2.8-.7-.8-.5-1.4-1.2-1.8-2-.4-.9-.6-1.9-.6-3.1h0c0-1.2.2-2.3.6-3.2.4-.9,1-1.6,1.8-2,.8-.5,1.7-.7,2.8-.7s1.6.2,2.3.5c.7.3,1.2.8,1.7,1.4.4.6.7,1.3.8,2h0c0,0-2,0-2,0h0c0-.5-.3-.9-.5-1.2-.3-.3-.6-.6-1-.8-.4-.2-.8-.3-1.3-.3s-1.2.2-1.7.5c-.5.3-.8.8-1.1,1.4-.2.6-.4,1.4-.4,2.2h0c0,.9.1,1.6.4,2.2.3.6.6,1.1,1.1,1.4.5.3,1,.5,1.7.5s.9,0,1.3-.2c.4-.2.7-.4,1-.7.3-.3.4-.7.5-1.1h0s2,0,2,0h0c0,.8-.4,1.5-.8,2-.4.6-1,1-1.7,1.3-.7.3-1.5.5-2.3.5ZM97,219.2c-.8,0-1.6-.2-2.2-.5-.6-.4-1.1-.9-1.4-1.5-.3-.7-.5-1.5-.5-2.4h0c0-.9.2-1.7.5-2.4.3-.7.8-1.2,1.4-1.5.6-.4,1.3-.5,2.2-.5s1.6.2,2.2.5c.6.4,1.1.9,1.4,1.5.3.7.5,1.4.5,2.4h0c0,.9-.2,1.7-.5,2.4-.3.7-.8,1.2-1.4,1.5-.6.4-1.3.5-2.2.5ZM97,217.6c.4,0,.8-.1,1.1-.3.3-.2.6-.6.7-1,.2-.4.2-.9.2-1.5h0c0-.6,0-1.1-.2-1.6-.2-.4-.4-.8-.7-1-.3-.2-.7-.3-1.1-.3s-.8.1-1.1.3c-.3.2-.6.5-.7,1-.2.4-.2.9-.2,1.5h0c0,.6,0,1.1.2,1.6.2.4.4.8.7,1,.3.2.7.3,1.2.3ZM102.4,219v-8.5h1.9v1.3h.1c.1-.5.4-.8.8-1.1.4-.3.9-.4,1.4-.4s.3,0,.4,0c.1,0,.3,0,.4,0v1.7c-.2,0-.3,0-.5,0-.2,0-.3,0-.5,0-.4,0-.8,0-1.1.2-.3.2-.6.4-.8.7-.2.3-.3.6-.3,1.1v5h-1.9ZM111.8,219.2c-.8,0-1.6-.2-2.2-.5-.6-.4-1.1-.9-1.4-1.5-.3-.7-.5-1.4-.5-2.4h0c0-.9.2-1.7.5-2.4.3-.7.8-1.2,1.4-1.5.6-.4,1.3-.6,2.1-.6s1.5.2,2.1.5c.6.4,1,.9,1.4,1.5.3.6.5,1.4.5,2.2v.6h-6.9v-1.3h6l-.9,1.2v-.8c0-.6,0-1-.3-1.4-.2-.4-.4-.7-.7-.8-.3-.2-.7-.3-1.1-.3s-.8,0-1.1.3c-.3.2-.6.5-.7.9-.2.4-.3.8-.3,1.4v.8c0,.5,0,1,.3,1.4.2.4.4.7.8.9.3.2.7.3,1.2.3s.6,0,.9-.1c.3-.1.5-.2.6-.4.2-.1.3-.3.3-.4h0c0,0,1.8,0,1.8,0h0c0,.3-.2.6-.4.9-.2.3-.4.5-.7.8-.3.2-.7.4-1.1.6-.4.1-.9.2-1.5.2ZM123.1,219l-3-11.3h2.1l1.9,8.5h.1l2.2-8.5h1.8l2.2,8.5h.1l1.9-8.5h2.1l-3,11.3h-1.9l-2.3-8.1h-.1l-2.3,8.1h-1.9ZM138.7,219.2c-.8,0-1.6-.2-2.2-.5-.6-.4-1.1-.9-1.4-1.5-.3-.7-.5-1.5-.5-2.4h0c0-.9.2-1.7.5-2.4.3-.7.8-1.2,1.4-1.5.6-.4,1.3-.5,2.2-.5s1.6.2,2.2.5c.6.4,1.1.9,1.4,1.5.3.7.5,1.4.5,2.4h0c0,.9-.2,1.7-.5,2.4-.3.7-.8,1.2-1.4,1.5-.6.4-1.3.5-2.2.5ZM138.7,217.6c.4,0,.8-.1,1.1-.3.3-.2.6-.6.7-1,.2-.4.2-.9.2-1.5h0c0-.6,0-1.1-.2-1.6-.2-.4-.4-.8-.7-1-.3-.2-.7-.3-1.1-.3s-.8.1-1.1.3c-.3.2-.6.5-.7,1-.2.4-.2.9-.2,1.5h0c0,.6,0,1.1.2,1.6.2.4.4.8.7,1,.3.2.7.3,1.2.3ZM144.1,219v-8.5h1.9v1.3h.1c.1-.5.4-.8.8-1.1.4-.3.9-.4,1.4-.4s.3,0,.4,0c.1,0,.3,0,.4,0v1.7c-.2,0-.3,0-.5,0-.2,0-.3,0-.5,0-.4,0-.8,0-1.1.2-.3.2-.6.4-.8.7-.2.3-.3.6-.3,1.1v5h-1.9ZM150.2,219v-11.8h1.9v11.8h-1.9ZM155.5,219l-2.9-3.9,1.4-1.2,3.8,5.1h-2.3ZM152,216.2v-2.2c0,0,.3,0,.3,0l3.1-3.5h2.2l-3.7,3.9-.9.7-1.1,1.1ZM162,219.2c-.8,0-1.6-.2-2.2-.5-.6-.4-1.1-.9-1.4-1.5-.3-.7-.5-1.5-.5-2.4h0c0-.9.2-1.7.5-2.4.3-.7.8-1.2,1.4-1.5.6-.4,1.3-.5,2.2-.5s1.6.2,2.2.5c.6.4,1.1.9,1.4,1.5.3.7.5,1.4.5,2.4h0c0,.9-.2,1.7-.5,2.4-.3.7-.8,1.2-1.4,1.5-.6.4-1.3.5-2.2.5ZM162,217.6c.4,0,.8-.1,1.1-.3.3-.2.6-.6.7-1,.2-.4.2-.9.2-1.5h0c0-.6,0-1.1-.2-1.6-.2-.4-.4-.8-.7-1-.3-.2-.7-.3-1.1-.3s-.8.1-1.1.3c-.3.2-.6.5-.7,1-.2.4-.2.9-.2,1.5h0c0,.6,0,1.1.2,1.6.2.4.4.8.7,1,.3.2.7.3,1.2.3ZM170.2,219.2c-.6,0-1.2-.1-1.6-.4-.4-.2-.8-.6-1-1.1-.2-.5-.3-1.1-.3-1.7v-5.5h1.9v5.1c0,.7.1,1.2.4,1.5.3.3.7.5,1.3.5s.6,0,.8-.1c.2,0,.4-.2.6-.4.2-.2.3-.4.4-.7,0-.3.1-.6.1-.9v-5h1.9v8.5h-1.9v-1.3h-.1c-.1.3-.3.6-.5.8-.2.2-.5.4-.8.5-.3.1-.7.2-1.1.2ZM179.9,219c-1,0-1.7-.2-2.1-.5-.4-.4-.6-.9-.6-1.8v-4.8h-1.3v-1.5h1.3v-2.1h2v2.1h1.8v1.5h-1.8v4.3c0,.4,0,.7.3.9.2.2.5.3.9.3s.3,0,.3,0c0,0,.2,0,.3,0v1.5c-.1,0-.3,0-.5,0-.2,0-.4,0-.5,0Z"/>
      <path class="cls-1" d="M88.4,250v-18.7h0l-5.8,4v-3.7l5.9-4.1h4v22.5h-4ZM97.8,250.2c-.6,0-1.2-.2-1.6-.7-.4-.4-.7-1-.7-1.6s.2-1.2.7-1.6c.4-.4,1-.7,1.6-.7s1.2.2,1.6.7c.4.4.7,1,.7,1.6s-.2,1.2-.7,1.6c-.4.4-1,.7-1.6.7ZM110.3,250.4c-1.6,0-2.9-.3-4.1-.9-1.2-.6-2.1-1.3-2.8-2.3-.7-1-1.1-2.1-1.2-3.3v-.2s3.8,0,3.8,0h0c.1.7.4,1.3.8,1.8.4.5.9.9,1.5,1.2.6.3,1.3.4,2.1.4s1.7-.2,2.4-.6c.7-.4,1.2-.9,1.6-1.6.4-.7.6-1.5.6-2.3h0c0-.9-.2-1.7-.6-2.3-.4-.7-.9-1.2-1.6-1.6-.7-.4-1.5-.6-2.3-.6s-1.2,0-1.8.3c-.6.2-1,.5-1.5.8-.2.2-.4.4-.6.6-.2.2-.3.4-.5.7h-3.5l1.1-13.1h13.8v3.3h-10.6l-.6,6.8h0c.3-.5.8-.9,1.2-1.3.5-.4,1.1-.6,1.7-.8.7-.2,1.4-.3,2.1-.3,1.4,0,2.7.3,3.8,1,1.1.6,2,1.5,2.6,2.6.6,1.1,1,2.4,1,3.8h0c0,1.6-.4,2.9-1.1,4.1-.7,1.2-1.7,2.1-3,2.8-1.3.7-2.7,1-4.4,1ZM125.4,250v-22.5h3.9v8.8h0c.4-1,1.1-1.8,2-2.3.9-.5,1.9-.8,3.2-.8s2.2.3,3.1.8c.9.5,1.6,1.3,2,2.3.5,1,.7,2.1.7,3.5v10.3h-3.9v-9.5c0-1.3-.3-2.3-.9-3-.6-.7-1.5-1.1-2.6-1.1s-1.4.2-1.9.5c-.5.3-1,.8-1.3,1.4-.3.6-.5,1.3-.5,2.1v9.5h-3.9ZM149.5,250.3c-1.6,0-3-.3-4.2-1-1.2-.7-2.1-1.7-2.8-3-.7-1.3-1-2.8-1-4.6h0c0-1.8.3-3.3,1-4.6.7-1.3,1.6-2.3,2.8-3,1.2-.7,2.6-1,4.2-1s3,.3,4.2,1c1.2.7,2.1,1.7,2.8,3,.7,1.3,1,2.8,1,4.6h0c0,1.8-.3,3.4-1,4.7-.7,1.3-1.6,2.3-2.8,3-1.2.7-2.6,1-4.2,1ZM149.5,247.2c.8,0,1.5-.2,2.1-.6.6-.4,1.1-1,1.4-1.9.3-.8.5-1.8.5-3h0c0-1.2-.2-2.2-.5-3-.3-.8-.8-1.4-1.4-1.9-.6-.4-1.3-.6-2.1-.6s-1.5.2-2.1.6c-.6.4-1.1,1-1.4,1.9-.3.8-.5,1.8-.5,2.9h0c0,1.2.2,2.2.5,3,.3.8.8,1.4,1.4,1.9.6.4,1.3.6,2.2.6ZM164.4,250.3c-1.2,0-2.3-.2-3.1-.7-.8-.5-1.5-1.2-1.9-2.1s-.7-2-.7-3.3v-10.7h3.9v9.9c0,1.2.3,2.1.8,2.7.6.6,1.4,1,2.5,1s1.1,0,1.5-.3c.5-.2.8-.5,1.2-.8s.6-.8.7-1.3c.2-.5.2-1.1.2-1.7v-9.6h3.9v16.6h-3.9v-2.6h0c-.3.6-.7,1.1-1.1,1.5-.5.4-1,.8-1.7,1-.7.2-1.4.4-2.2.4ZM175.4,250v-16.6h3.9v2.9h0c.2-1,.7-1.8,1.4-2.3.7-.6,1.5-.9,2.4-.9s.5,0,.7,0c.2,0,.4,0,.5.1v3.5c-.2,0-.4-.1-.7-.2-.3,0-.6,0-.9,0-.7,0-1.4.2-1.9.5-.5.3-.9.7-1.2,1.3-.3.6-.4,1.3-.4,2.1v9.6h-3.9Z"/>
      <path class="cls-6" d="M321.4,244.3c-.9,0-1.7-.2-2.3-.7-.6-.5-1.1-1.2-1.5-2-.3-.9-.5-1.9-.5-3.1h0c0-1.2.2-2.3.5-3.2.3-.9.8-1.6,1.5-2,.6-.5,1.4-.7,2.3-.7s1.7.2,2.3.7c.6.5,1.1,1.2,1.5,2,.3.9.5,1.9.5,3.1h0c0,1.2-.2,2.3-.5,3.2-.3.9-.8,1.6-1.5,2-.6.5-1.4.7-2.3.7ZM321.4,242.6c.5,0,.9-.2,1.2-.5.3-.3.6-.8.8-1.5.2-.6.3-1.4.3-2.3h0c0-.9,0-1.7-.3-2.3-.2-.6-.4-1.1-.8-1.5-.3-.3-.7-.5-1.2-.5s-.9.2-1.2.5c-.3.3-.6.8-.8,1.5-.2.6-.3,1.4-.3,2.3h0c0,.9,0,1.7.3,2.3.2.6.4,1.1.8,1.5.3.3.7.5,1.2.5ZM331.3,244.2c-.8,0-1.5-.1-2.2-.4-.6-.3-1.1-.7-1.5-1.1-.4-.5-.6-1.1-.6-1.7h0c0,0,1.9,0,1.9,0h0c0,.4.2.7.4.9.2.2.5.4.8.6.3.1.7.2,1.2.2s.8,0,1.1-.2c.3-.2.6-.4.8-.6.2-.3.3-.6.3-.9h0c0-.6-.2-1.1-.6-1.4-.4-.3-1-.5-1.7-.5h-1.3v-1.5h1.3c.4,0,.8,0,1.1-.2.3-.1.6-.3.7-.6.2-.3.3-.5.3-.9h0c0-.4,0-.7-.2-.9-.1-.2-.4-.4-.6-.6-.3-.1-.6-.2-1-.2s-.7,0-1.1.2c-.3.1-.5.3-.7.6-.2.2-.3.5-.3.9h0c0,0-1.9,0-1.9,0h0c0-.7.3-1.3.6-1.8.3-.5.8-.9,1.4-1.1.6-.3,1.2-.4,2-.4s1.5.1,2,.4c.6.2,1,.6,1.3,1,.3.4.5,1,.5,1.6h0c0,.5-.1.9-.3,1.2-.2.4-.5.6-.8.9-.4.2-.8.4-1.2.5h0c.8.1,1.5.4,2,.9.5.5.8,1.1.8,1.9h0c0,.7-.2,1.3-.5,1.8-.4.5-.8.9-1.5,1.2-.6.3-1.4.4-2.2.4ZM341,232.2l-3.4,14.7h-1.8l3.4-14.7h1.8ZM344.4,244v-9.3h-.1l-2.8,2v-1.9l2.9-2.1h2v11.3h-2ZM348.9,244v-1.4l3.7-3.8c.5-.5.9-.9,1.2-1.3.3-.3.5-.6.6-.9.1-.3.2-.5.2-.8h0c0-.4,0-.7-.2-.9-.2-.3-.4-.5-.6-.6-.3-.2-.6-.2-1-.2s-.7,0-1,.2c-.3.2-.5.4-.7.7-.2.3-.2.6-.2,1h0s-1.9,0-1.9,0h0c0-.7.2-1.3.5-1.9.3-.5.8-1,1.4-1.3.6-.3,1.3-.5,2.1-.5s1.4.1,1.9.4c.6.3,1,.7,1.3,1.1s.5,1,.5,1.7h0c0,.4,0,.9-.2,1.3-.2.4-.4.8-.8,1.3-.4.5-.9,1-1.6,1.7l-2.8,2.7.5-.9v.9l-.5-.4h5.6v1.7h-7.8ZM362.3,232.2l-3.4,14.7h-1.8l3.4-14.7h1.8ZM362.9,244v-1.4l3.7-3.8c.5-.5.9-.9,1.2-1.3.3-.3.5-.6.6-.9.1-.3.2-.5.2-.8h0c0-.4,0-.7-.2-.9-.2-.3-.4-.5-.6-.6-.3-.2-.6-.2-1-.2s-.7,0-1,.2c-.3.2-.5.4-.7.7-.2.3-.2.6-.2,1h0s-1.9,0-1.9,0h0c0-.7.2-1.3.5-1.9.3-.5.8-1,1.4-1.3.6-.3,1.3-.5,2.1-.5s1.4.1,1.9.4c.6.3,1,.7,1.3,1.1s.5,1,.5,1.7h0c0,.4,0,.9-.2,1.3-.2.4-.4.8-.8,1.3-.4.5-.9,1-1.6,1.7l-2.8,2.7.5-.9v.9l-.5-.4h5.6v1.7h-7.8ZM376.4,244.3c-.9,0-1.7-.2-2.3-.7-.6-.5-1.1-1.2-1.5-2-.3-.9-.5-1.9-.5-3.1h0c0-1.2.2-2.3.5-3.2.3-.9.8-1.6,1.5-2,.6-.5,1.4-.7,2.3-.7s1.7.2,2.3.7,1.1,1.2,1.5,2c.3.9.5,1.9.5,3.1h0c0,1.2-.2,2.3-.5,3.2-.3.9-.8,1.6-1.5,2-.6.5-1.4.7-2.3.7ZM376.4,242.6c.5,0,.9-.2,1.2-.5.3-.3.6-.8.8-1.5.2-.6.3-1.4.3-2.3h0c0-.9,0-1.7-.3-2.3-.2-.6-.4-1.1-.8-1.5-.3-.3-.7-.5-1.2-.5s-.9.2-1.2.5c-.3.3-.6.8-.8,1.5-.2.6-.3,1.4-.3,2.3h0c0,.9,0,1.7.3,2.3.2.6.4,1.1.8,1.5.3.3.7.5,1.2.5ZM382.3,244v-1.4l3.7-3.8c.5-.5.9-.9,1.2-1.3.3-.3.5-.6.6-.9.1-.3.2-.5.2-.8h0c0-.4,0-.7-.2-.9-.2-.3-.4-.5-.6-.6-.3-.2-.6-.2-1-.2s-.7,0-1,.2c-.3.2-.5.4-.7.7-.2.3-.2.6-.2,1h0s-1.9,0-1.9,0h0c0-.7.2-1.3.5-1.9.3-.5.8-1,1.4-1.3.6-.3,1.3-.5,2.1-.5s1.4.1,1.9.4c.6.3,1,.7,1.3,1.1s.5,1,.5,1.7h0c0,.4,0,.9-.2,1.3-.2.4-.4.8-.8,1.3-.4.5-.9,1-1.6,1.7l-2.8,2.7.5-.9v.9l-.5-.4h5.6v1.7h-7.8ZM395.8,244.2c-.8,0-1.5-.1-2.2-.4-.6-.3-1.1-.7-1.5-1.1-.4-.5-.6-1.1-.6-1.7h0c0,0,1.9,0,1.9,0h0c0,.4.2.7.4.9.2.2.5.4.8.6.3.1.7.2,1.2.2s.8,0,1.1-.2c.3-.2.6-.4.8-.6.2-.3.3-.6.3-.9h0c0-.6-.2-1.1-.6-1.4-.4-.3-1-.5-1.7-.5h-1.3v-1.5h1.3c.4,0,.8,0,1.1-.2.3-.1.6-.3.7-.6.2-.3.3-.5.3-.9h0c0-.4,0-.7-.2-.9-.1-.2-.4-.4-.6-.6-.3-.1-.6-.2-1-.2s-.7,0-1.1.2c-.3.1-.5.3-.7.6-.2.2-.3.5-.3.9h0c0,0-1.9,0-1.9,0h0c0-.7.3-1.3.6-1.8.3-.5.8-.9,1.4-1.1.6-.3,1.2-.4,2-.4s1.5.1,2,.4c.6.2,1,.6,1.3,1,.3.4.5,1,.5,1.6h0c0,.5-.1.9-.3,1.2-.2.4-.5.6-.8.9-.4.2-.8.4-1.2.5h0c.8.1,1.5.4,2,.9.5.5.8,1.1.8,1.9h0c0,.7-.2,1.3-.5,1.8-.4.5-.8.9-1.5,1.2-.6.3-1.4.4-2.2.4Z"/>
    </g>
  </g>
  <g class="cls-12">
    <g>
      <rect class="cls-7" y="33" width="410" height="70" rx="4" ry="4"/>
      <circle class="cls-5" cx="35" cy="68" r="25"/>
      <path class="cls-6" d="M86.2,59.3c-1.1,0-2.1-.2-2.9-.7-.8-.5-1.4-1.2-1.8-2.1-.4-.9-.6-1.9-.6-3.1h0c0-1.2.2-2.3.6-3.2.4-.9,1.1-1.6,1.9-2,.8-.5,1.7-.7,2.8-.7s2,.2,2.8.7c.8.5,1.4,1.2,1.8,2,.4.9.6,1.9.6,3.1h0c0,1.2-.2,2.3-.6,3.2-.4.9-1,1.6-1.8,2.1-.8.5-1.7.7-2.8.7ZM86.2,57.5c.7,0,1.3-.2,1.7-.5.5-.3.9-.8,1.1-1.5.3-.6.4-1.4.4-2.2h0c0-.9-.1-1.6-.4-2.2-.3-.6-.6-1.1-1.1-1.4-.5-.3-1.1-.5-1.7-.5s-1.2.2-1.7.5c-.5.3-.9.8-1.1,1.4-.3.6-.4,1.4-.4,2.2h0c0,.9.1,1.6.4,2.2.3.6.6,1.1,1.1,1.5.5.3,1.1.5,1.8.5ZM95.9,59.2c-.6,0-1.2-.1-1.6-.4-.4-.2-.8-.6-1-1.1-.2-.5-.3-1.1-.3-1.7v-5.5h1.9v5.1c0,.7.1,1.2.4,1.5.3.3.7.5,1.3.5s.6,0,.8-.1c.2,0,.4-.2.6-.4.2-.2.3-.4.4-.7,0-.3.1-.6.1-.9v-5h1.9v8.5h-1.9v-1.3h-.1c-.1.3-.3.6-.5.8-.2.2-.5.4-.8.5-.3.1-.7.2-1.1.2ZM105.5,59c-1,0-1.7-.2-2.1-.5s-.6-.9-.6-1.8v-4.8h-1.3v-1.5h1.3v-2.1h2v2.1h1.8v1.5h-1.8v4.3c0,.4,0,.7.3.9.2.2.5.3.9.3s.3,0,.3,0c0,0,.2,0,.3,0v1.5c-.1,0-.3,0-.5,0-.2,0-.4,0-.5,0ZM110.9,59.1c-.7,0-1.3-.2-1.9-.5-.5-.4-.9-.9-1.2-1.5-.3-.7-.4-1.4-.4-2.3h0c0-.9.1-1.7.4-2.4.3-.7.7-1.2,1.2-1.5.5-.4,1.1-.5,1.9-.5s.8,0,1.1.2c.3.1.6.3.9.5.3.2.5.5.6.8h.1v-4.7h1.9v11.8h-1.9v-1.3h-.1c-.2.3-.4.6-.6.8-.2.2-.5.4-.9.5-.3.1-.7.2-1.1.2ZM111.5,57.5c.4,0,.8-.1,1.1-.3.3-.2.6-.5.7-1,.2-.4.3-.9.3-1.5h0c0-.6,0-1.1-.3-1.5-.2-.4-.4-.7-.7-1-.3-.2-.7-.3-1.1-.3s-.8.1-1.1.3c-.3.2-.6.5-.7,1-.2.4-.3.9-.3,1.5h0c0,.6,0,1.1.3,1.5.2.4.4.7.7,1,.3.2.7.3,1.1.3ZM121,59.2c-.8,0-1.6-.2-2.2-.5-.6-.4-1.1-.9-1.4-1.5-.3-.7-.5-1.5-.5-2.4h0c0-.9.2-1.7.5-2.4.3-.7.8-1.2,1.4-1.5.6-.4,1.3-.5,2.2-.5s1.6.2,2.2.5c.6.4,1.1.9,1.4,1.5.3.7.5,1.5.5,2.4h0c0,.9-.2,1.7-.5,2.4-.3.7-.8,1.2-1.4,1.5-.6.4-1.3.5-2.2.5ZM121,57.6c.4,0,.8-.1,1.1-.3.3-.2.6-.6.7-1,.2-.4.2-.9.2-1.5h0c0-.6,0-1.1-.2-1.6-.2-.4-.4-.8-.7-1-.3-.2-.7-.3-1.1-.3s-.8.1-1.1.3c-.3.2-.6.5-.7,1-.2.4-.2.9-.2,1.5h0c0,.6,0,1.1.2,1.6.2.4.4.8.7,1,.3.2.7.3,1.2.3ZM130.1,59.2c-.8,0-1.6-.2-2.2-.5-.6-.4-1.1-.9-1.4-1.5-.3-.7-.5-1.5-.5-2.4h0c0-.9.2-1.7.5-2.4.3-.7.8-1.2,1.4-1.5.6-.4,1.3-.5,2.2-.5s1.6.2,2.2.5c.6.4,1.1.9,1.4,1.5.3.7.5,1.5.5,2.4h0c0,.9-.2,1.7-.5,2.4-.3.7-.8,1.2-1.4,1.5-.6.4-1.3.5-2.2.5ZM130.1,57.6c.4,0,.8-.1,1.1-.3.3-.2.6-.6.7-1,.2-.4.2-.9.2-1.5h0c0-.6,0-1.1-.2-1.6-.2-.4-.4-.8-.7-1-.3-.2-.7-.3-1.1-.3s-.8.1-1.1.3c-.3.2-.6.5-.7,1-.2.4-.2.9-.2,1.5h0c0,.6,0,1.1.2,1.6.2.4.4.8.7,1,.3.2.7.3,1.2.3ZM135.6,59v-8.5h1.9v1.3h.1c.1-.5.4-.8.8-1.1.4-.3.9-.4,1.4-.4s.3,0,.4,0c.1,0,.3,0,.4,0v1.7c-.2,0-.3,0-.5,0-.2,0-.3,0-.5,0-.4,0-.8,0-1.1.2-.3.2-.6.4-.8.7-.2.3-.3.6-.3,1.1v5h-1.9ZM145.4,59v-11.3h4.6c.8,0,1.5.1,2.1.4.6.3,1,.7,1.3,1.2.3.5.5,1.1.5,1.9h0c0,.8-.2,1.4-.6,2-.4.6-.9,1-1.6,1.2l2.5,4.6h-2.3l-2.2-4.2h-2.2v4.2h-2ZM147.4,53.2h2.3c.6,0,1.1-.2,1.5-.5.4-.3.5-.8.5-1.4h0c0-.6-.2-1.1-.6-1.4-.4-.3-.9-.5-1.5-.5h-2.3v3.9ZM158.3,59.2c-.6,0-1.2-.1-1.6-.4-.4-.2-.8-.6-1-1.1-.2-.5-.3-1.1-.3-1.7v-5.5h1.9v5.1c0,.7.1,1.2.4,1.5.3.3.7.5,1.3.5s.6,0,.8-.1c.2,0,.4-.2.6-.4.2-.2.3-.4.4-.7,0-.3.1-.6.1-.9v-5h1.9v8.5h-1.9v-1.3h-.1c-.1.3-.3.6-.5.8-.2.2-.5.4-.8.5-.3.1-.7.2-1.1.2ZM164.6,59v-8.5h1.9v1.3h.1c.2-.5.5-.8.9-1.1.4-.3.9-.4,1.5-.4,1,0,1.7.3,2.2.8.5.6.8,1.3.8,2.4v5.5h-1.9v-5.1c0-.7-.1-1.2-.4-1.5-.3-.3-.7-.5-1.3-.5s-.7,0-1,.3c-.3.2-.5.4-.6.7s-.2.7-.2,1.1v5h-1.9ZM173.7,59v-8.5h1.9v1.3h.1c.2-.5.5-.8.9-1.1.4-.3.9-.4,1.5-.4,1,0,1.7.3,2.2.8.5.6.8,1.3.8,2.4v5.5h-1.9v-5.1c0-.7-.1-1.2-.4-1.5-.3-.3-.7-.5-1.3-.5s-.7,0-1,.3c-.3.2-.5.4-.6.7s-.2.7-.2,1.1v5h-1.9ZM182.9,59v-8.5h1.9v8.5h-1.9ZM183.9,49c-.3,0-.6-.1-.8-.3-.2-.2-.3-.5-.3-.8s.1-.6.3-.8c.2-.2.5-.3.8-.3s.6.1.8.3c.2.2.3.5.3.8s-.1.6-.3.8c-.2.2-.5.3-.8.3ZM186.6,59v-8.5h1.9v1.3h.1c.2-.5.5-.8.9-1.1.4-.3.9-.4,1.5-.4,1,0,1.7.3,2.2.8.5.6.8,1.3.8,2.4v5.5h-1.9v-5.1c0-.7-.1-1.2-.4-1.5-.3-.3-.7-.5-1.3-.5s-.7,0-1,.3c-.3.2-.5.4-.6.7-.2.3-.2.7-.2,1.1v5h-1.9ZM199.4,62c-.8,0-1.4,0-1.9-.3-.5-.2-1-.5-1.3-.8-.3-.4-.5-.8-.6-1.3h0s1.9,0,1.9,0h0c0,.3.3.5.6.7.3.2.8.3,1.3.3s1.2-.1,1.5-.4c.4-.3.6-.7.6-1.3v-1.6h-.1c-.2.3-.4.6-.6.8-.3.2-.6.4-.9.5-.3.1-.7.2-1.1.2-.7,0-1.3-.2-1.9-.5-.5-.3-.9-.8-1.2-1.4-.3-.6-.4-1.3-.4-2.1h0c0-.8.1-1.6.4-2.2.3-.6.7-1.1,1.2-1.5.5-.4,1.2-.5,1.9-.5s.8,0,1.1.2c.3.1.6.3.9.5.3.2.5.5.6.8h.1v-1.4h1.9v8.3c0,.7-.2,1.2-.5,1.7-.3.5-.8.9-1.4,1.1-.6.3-1.3.4-2.2.4ZM199.4,57.1c.4,0,.8-.1,1.2-.3.3-.2.6-.5.7-.9.2-.4.3-.8.3-1.3h0c0-.5,0-1-.3-1.3-.2-.4-.4-.7-.7-.9-.3-.2-.7-.3-1.2-.3s-.8.1-1.2.3c-.3.2-.6.5-.7.9-.2.4-.2.8-.2,1.3h0c0,.5,0,1,.2,1.3.2.4.4.7.7.9.3.2.7.3,1.2.3Z"/>
      <path class="cls-1" d="M89.8,90.4c-1.6,0-3.1-.3-4.3-.8-1.2-.6-2.2-1.3-2.9-2.3-.7-1-1.1-2.1-1.2-3.3v-.2s3.8,0,3.8,0v.2c.1.6.3,1.2.7,1.6.4.5.9.8,1.6,1.1.7.3,1.4.4,2.3.4s1.6-.1,2.3-.4c.7-.3,1.2-.7,1.5-1.2.4-.5.5-1.1.5-1.8h0c0-1.2-.4-2.1-1.2-2.8-.8-.6-1.9-1-3.4-1h-2.7v-3h2.6c.8,0,1.6-.1,2.2-.4.6-.3,1.1-.7,1.5-1.2.4-.5.5-1.1.5-1.8h0c0-.7-.2-1.3-.5-1.8-.3-.5-.7-.8-1.3-1.1-.6-.3-1.2-.4-2-.4s-1.5.1-2.1.4c-.6.3-1.1.6-1.5,1.1-.4.5-.6,1-.7,1.7v.2h-3.8v-.2c.1-1.3.5-2.4,1.2-3.3.7-.9,1.6-1.7,2.8-2.2,1.2-.5,2.5-.8,4-.8s2.9.2,4,.8c1.2.5,2,1.2,2.7,2.1.6.9,1,1.9,1,3.1h0c0,1-.2,1.8-.6,2.5-.4.7-1,1.3-1.7,1.8-.7.5-1.5.8-2.4,1h0c1.7.2,3,.8,4,1.7,1,.9,1.5,2.2,1.5,3.8h0c0,1.3-.4,2.5-1.1,3.5-.7,1-1.7,1.8-3,2.4-1.3.6-2.7.8-4.4.8ZM101.8,90.2c-.6,0-1.2-.2-1.6-.7-.4-.4-.7-1-.7-1.6s.2-1.2.7-1.6c.4-.4,1-.7,1.6-.7s1.2.2,1.6.7c.4.4.7,1,.7,1.6s-.2,1.2-.7,1.6c-.4.4-1,.7-1.6.7ZM114.3,90.4c-1.7,0-3.2-.3-4.6-.8-1.3-.6-2.3-1.3-3.1-2.3-.7-1-1.1-2.1-1.1-3.4h0c0-1,.2-1.8.6-2.6.4-.8,1-1.5,1.8-2,.8-.5,1.7-.9,2.6-1.1h0c-1.3-.4-2.3-1.1-3.1-1.9-.8-.9-1.2-1.9-1.2-3.1h0c0-1.2.3-2.2,1-3.1.7-.9,1.6-1.6,2.8-2.1,1.2-.5,2.6-.8,4.1-.8s2.9.3,4.1.8c1.2.5,2.1,1.2,2.8,2.1.7.9,1,1.9,1,3.1h0c0,1.2-.4,2.3-1.2,3.2-.8.9-1.8,1.5-3.1,1.8h0c1,.3,1.9.7,2.6,1.2.8.5,1.4,1.2,1.8,2,.4.8.6,1.6.6,2.6h0c0,1.3-.4,2.4-1.1,3.4-.7,1-1.8,1.7-3.1,2.3-1.3.6-2.8.8-4.5.8ZM114.3,87.3c.9,0,1.7-.2,2.4-.5.7-.3,1.2-.8,1.6-1.3.4-.6.6-1.2.6-1.9h0c0-.8-.2-1.4-.6-2-.4-.6-.9-1-1.6-1.3-.7-.3-1.5-.5-2.4-.5s-1.7.2-2.4.5c-.7.3-1.2.8-1.6,1.3-.4.6-.6,1.2-.6,1.9h0c0,.8.2,1.4.6,2,.4.6.9,1,1.6,1.3.7.3,1.5.5,2.4.5ZM114.3,76.8c.8,0,1.5-.1,2.1-.4.6-.3,1.1-.7,1.4-1.2.3-.5.5-1.1.5-1.7h0c0-.7-.2-1.3-.5-1.8-.3-.5-.8-.9-1.4-1.2-.6-.3-1.3-.4-2.1-.4s-1.5.1-2.1.4c-.6.3-1.1.7-1.4,1.2-.3.5-.5,1.1-.5,1.7h0c0,.7.2,1.2.5,1.8s.8.9,1.4,1.2c.6.3,1.3.4,2.1.4ZM133.3,90.4c-1.8,0-3.4-.5-4.8-1.4-1.3-.9-2.3-2.3-3-4-.7-1.8-1.1-3.8-1.1-6.2h0c0-2.4.4-4.5,1.1-6.2.7-1.8,1.7-3.1,3-4,1.3-.9,2.9-1.4,4.8-1.4s3.4.5,4.7,1.4c1.3.9,2.4,2.3,3.1,4,.7,1.7,1.1,3.8,1.1,6.2h0c0,2.4-.4,4.5-1.1,6.2-.7,1.7-1.7,3.1-3.1,4-1.3.9-2.9,1.4-4.7,1.4ZM133.3,87.1c1,0,1.9-.3,2.6-1,.7-.7,1.3-1.6,1.6-2.9s.6-2.7.6-4.5h0c0-1.8-.2-3.3-.6-4.5-.4-1.2-.9-2.2-1.6-2.9-.7-.7-1.6-1-2.6-1s-1.9.3-2.6,1c-.7.7-1.2,1.6-1.6,2.9-.4,1.2-.6,2.7-.6,4.5h0c0,1.8.2,3.3.6,4.5s.9,2.2,1.6,2.9c.7.7,1.6,1,2.6,1ZM149.1,90v-22.5h3.9v22.5h-3.9ZM159.6,90l-5.5-7.5,2.5-2.9,7.5,10.4h-4.5ZM152.5,84.8v-4.5h.7l6.2-6.9h4.5l-7.7,8.4h-.7l-2.9,3ZM164.3,90v-16.6h3.9v2.7h0c.3-.9.9-1.6,1.7-2.2.8-.6,1.8-.8,2.9-.8s1.5.1,2.1.4c.6.3,1.1.6,1.6,1.1.4.5.8,1.1,1,1.8h0c.3-.7.7-1.3,1.2-1.8.5-.5,1.1-.9,1.8-1.2.7-.3,1.4-.4,2.2-.4s2,.2,2.8.7c.8.5,1.4,1.1,1.9,1.9.5.8.7,1.8.7,2.9v11.4h-3.9v-10.4c0-.7-.1-1.3-.3-1.8-.2-.5-.6-.8-1-1.1-.4-.2-1-.4-1.6-.4s-1.2.1-1.7.4c-.5.3-.8.7-1.1,1.2-.3.5-.4,1.1-.4,1.8v10.2h-3.8v-10.6c0-.6-.1-1.2-.4-1.6-.2-.4-.6-.8-1-1-.4-.2-1-.4-1.6-.4s-1.2.2-1.7.5c-.5.3-.9.7-1.1,1.2-.3.5-.4,1.1-.4,1.8v10.1h-3.9Z"/>
      <path class="cls-6" d="M317.5,84.3c-.9,0-1.7-.2-2.3-.7-.6-.5-1.1-1.2-1.5-2s-.5-1.9-.5-3.1h0c0-1.2.2-2.3.5-3.2.3-.9.8-1.6,1.5-2,.6-.5,1.4-.7,2.3-.7s1.7.2,2.3.7c.6.5,1.1,1.2,1.5,2,.3.9.5,1.9.5,3.1h0c0,1.2-.2,2.3-.5,3.2-.3.9-.8,1.6-1.5,2-.6.5-1.4.7-2.3.7ZM317.5,82.6c.5,0,.9-.2,1.2-.5.3-.3.6-.8.8-1.5.2-.6.3-1.4.3-2.3h0c0-.9,0-1.7-.3-2.3-.2-.6-.4-1.1-.8-1.5-.3-.3-.7-.5-1.2-.5s-.9.2-1.2.5c-.3.3-.6.8-.8,1.5-.2.6-.3,1.4-.3,2.3h0c0,.9,0,1.7.3,2.3.2.6.4,1.1.8,1.5.3.3.7.5,1.2.5ZM327.4,84.2c-.8,0-1.5-.1-2.2-.4-.6-.3-1.1-.7-1.5-1.1-.4-.5-.6-1.1-.6-1.7h0c0,0,1.9,0,1.9,0h0c0,.4.2.7.4.9.2.2.5.4.8.6.3.1.7.2,1.2.2s.8,0,1.1-.2c.3-.2.6-.4.8-.6.2-.3.3-.6.3-.9h0c0-.6-.2-1.1-.6-1.4-.4-.3-1-.5-1.7-.5h-1.3v-1.5h1.3c.4,0,.8,0,1.1-.2.3-.1.6-.3.7-.6.2-.3.3-.5.3-.9h0c0-.4,0-.7-.2-.9-.1-.2-.4-.4-.6-.6-.3-.1-.6-.2-1-.2s-.7,0-1.1.2c-.3.1-.5.3-.7.6-.2.2-.3.5-.3.9h0c0,0-1.9,0-1.9,0h0c0-.7.3-1.3.6-1.8.3-.5.8-.9,1.4-1.1.6-.3,1.2-.4,2-.4s1.5.1,2,.4c.6.2,1,.6,1.3,1,.3.4.5,1,.5,1.6h0c0,.5-.1.9-.3,1.2-.2.4-.5.6-.8.9-.4.2-.8.4-1.2.5h0c.8.1,1.5.4,2,.9.5.5.8,1.1.8,1.9h0c0,.7-.2,1.3-.5,1.8-.4.5-.8.9-1.5,1.2-.6.3-1.4.4-2.2.4ZM337.1,72.2l-3.4,14.7h-1.8l3.4-14.7h1.8ZM337.7,84v-1.4l3.7-3.8c.5-.5.9-.9,1.2-1.3.3-.3.5-.6.6-.9.1-.3.2-.5.2-.8h0c0-.4,0-.7-.2-.9-.2-.3-.4-.5-.6-.6-.3-.2-.6-.2-1-.2s-.7,0-1,.2c-.3.2-.5.4-.7.7-.2.3-.2.6-.2,1h0s-1.9,0-1.9,0h0c0-.7.2-1.3.5-1.9.3-.5.8-1,1.4-1.3.6-.3,1.3-.5,2.1-.5s1.4.1,1.9.4c.6.3,1,.7,1.3,1.1.3.5.5,1,.5,1.7h0c0,.4,0,.9-.2,1.3-.2.4-.4.8-.8,1.3-.4.5-.9,1-1.6,1.7l-2.8,2.7.5-.9v.9l-.5-.4h5.6v1.7h-7.8ZM351.3,84.2c-.9,0-1.6-.1-2.3-.4-.7-.3-1.2-.7-1.6-1.2-.4-.5-.6-1.1-.6-1.7h0c0-.5.1-.9.3-1.3.2-.4.5-.7.9-1,.4-.3.8-.5,1.3-.6h0c-.6-.2-1.2-.5-1.6-1-.4-.4-.6-1-.6-1.6h0c0-.6.2-1.1.5-1.6.3-.5.8-.8,1.4-1.1.6-.3,1.3-.4,2.1-.4s1.5.1,2.1.4c.6.3,1.1.6,1.4,1.1.3.5.5,1,.5,1.5h0c0,.6-.2,1.1-.6,1.6-.4.4-.9.8-1.6.9h0c.5.1.9.3,1.3.6.4.3.7.6.9,1,.2.4.3.8.3,1.3h0c0,.7-.2,1.2-.6,1.7-.4.5-.9.9-1.5,1.2-.7.3-1.4.4-2.3.4ZM351.3,82.7c.5,0,.9,0,1.2-.2.3-.2.6-.4.8-.7.2-.3.3-.6.3-1h0c0-.4,0-.7-.3-1-.2-.3-.5-.5-.8-.7-.3-.2-.8-.2-1.2-.2s-.9,0-1.2.2c-.3.2-.6.4-.8.7-.2.3-.3.6-.3,1h0c0,.4,0,.7.3,1,.2.3.5.5.8.7.3.2.8.2,1.2.2ZM351.3,77.4c.4,0,.7,0,1-.2.3-.1.5-.3.7-.6.2-.2.3-.5.3-.9h0c0-.3,0-.6-.3-.9-.2-.2-.4-.4-.7-.6-.3-.1-.6-.2-1-.2s-.7,0-1,.2c-.3.1-.5.3-.7.6-.2.2-.2.5-.2.9h0c0,.3,0,.6.2.9.2.2.4.4.7.6.3.1.7.2,1,.2ZM361.2,72.2l-3.4,14.7h-1.8l3.4-14.7h1.8ZM361.8,84v-1.4l3.7-3.8c.5-.5.9-.9,1.2-1.3.3-.3.5-.6.6-.9.1-.3.2-.5.2-.8h0c0-.4,0-.7-.2-.9-.2-.3-.4-.5-.6-.6-.3-.2-.6-.2-1-.2s-.7,0-1,.2c-.3.2-.5.4-.7.7-.2.3-.2.6-.2,1h0s-1.9,0-1.9,0h0c0-.7.2-1.3.5-1.9.3-.5.8-1,1.4-1.3.6-.3,1.3-.5,2.1-.5s1.4.1,1.9.4c.6.3,1,.7,1.3,1.1s.5,1,.5,1.7h0c0,.4,0,.9-.2,1.3-.2.4-.4.8-.8,1.3-.4.5-.9,1-1.6,1.7l-2.8,2.7.5-.9v.9l-.5-.4h5.6v1.7h-7.8ZM375.3,84.3c-.9,0-1.7-.2-2.3-.7-.6-.5-1.1-1.2-1.5-2s-.5-1.9-.5-3.1h0c0-1.2.2-2.3.5-3.2.3-.9.8-1.6,1.5-2,.6-.5,1.4-.7,2.3-.7s1.7.2,2.3.7c.6.5,1.1,1.2,1.5,2,.3.9.5,1.9.5,3.1h0c0,1.2-.2,2.3-.5,3.2-.3.9-.8,1.6-1.5,2s-1.4.7-2.3.7ZM375.3,82.6c.5,0,.9-.2,1.2-.5.3-.3.6-.8.8-1.5.2-.6.3-1.4.3-2.3h0c0-.9,0-1.7-.3-2.3-.2-.6-.4-1.1-.8-1.5-.3-.3-.7-.5-1.2-.5s-.9.2-1.2.5c-.3.3-.6.8-.8,1.5-.2.6-.3,1.4-.3,2.3h0c0,.9,0,1.7.3,2.3.2.6.4,1.1.8,1.5.3.3.7.5,1.2.5ZM381.2,84v-1.4l3.7-3.8c.5-.5.9-.9,1.2-1.3.3-.3.5-.6.6-.9.1-.3.2-.5.2-.8h0c0-.4,0-.7-.2-.9-.2-.3-.4-.5-.6-.6-.3-.2-.6-.2-1-.2s-.7,0-1,.2c-.3.2-.5.4-.7.7-.2.3-.2.6-.2,1h0s-1.9,0-1.9,0h0c0-.7.2-1.3.5-1.9.3-.5.8-1,1.4-1.3.6-.3,1.3-.5,2.1-.5s1.4.1,1.9.4c.6.3,1,.7,1.3,1.1s.5,1,.5,1.7h0c0,.4,0,.9-.2,1.3-.2.4-.4.8-.8,1.3-.4.5-.9,1-1.6,1.7l-2.8,2.7.5-.9v.9l-.5-.4h5.6v1.7h-7.8ZM395.6,84v-2.2h-5.5v-1.6c.3-.5.6-1,.9-1.5.3-.5.6-1,.9-1.5.3-.5.6-1,.9-1.5.3-.5.6-1,.9-1.5.3-.5.6-1,.9-1.4h2.8v7.4h1.5v1.7h-1.5v2.2h-1.9ZM392,80.2h3.7v-5.9h-.1c-.2.4-.5.7-.7,1.1-.2.4-.5.8-.7,1.1-.2.4-.5.8-.7,1.2-.2.4-.5.8-.7,1.2-.2.4-.5.8-.7,1.2h0Z"/>
    </g>
  </g>
  <g class="cls-11">
    <g>
      <path class="cls-4" d="M46.3,70.7c-.6,0-1.1-.1-1.6-.2-.2,0-.3-.1-.4-.3-.2-.3-.3-.6-.5-.8-.6.1-1.3.2-1.8.4-.2,0-.3,0-.4-.2l-.2-.6c0-.2,0-.4.2-.4.5-.1,1.2-.3,1.8-.4-.1-.4-.2-.9-.3-1.4-.9.2-1.6.3-2.1.4-.2,0-.3,0-.4-.2l-.2-.6c0-.2,0-.4.2-.4.6-.2,1.5-.3,2.2-.5,0-.5-.2-1-.2-1.4-1.3.3-2.1.5-2.5.6-.2,0-.4,0-.4-.2l-.2-.6c0-.2,0-.4.2-.4.6-.2,1.6-.4,2.8-.7,0-.5-.2-1.1-.6-1.5,0,0,0,0,0,0-.7-.5-1.7-.6-3.3-.4-1.3.2-2.3-.3-3.1-1.6-.6-1-.9-2.1-.9-2.1,0,0,0-.2,0-.2-.1-.7-.3-1.6-1.1-2-.5-.3-1.1-.3-1.9,0-1.7.6-4.3,3.3-5.5,4.5l-.3.3c-.5.6-.8,1.1-.8,1.7,0,1.2,1.2,2.2,3.5,4.2.7.6,1.4,1.2,2.2,2,1.3,1.2,2.9,2.6,4.4,4,.5.4,2.7,2.4,4.6,4.1.3.2.5.5.8.7.5.5,1.2.8,2,.8.4,0,.7,0,1,0,.4,0,.7,0,1,0,2.3,0,5.4-.5,6.7-1.8.5-.5.7-1.1.7-1.8-.2-2.7-2.2-2.9-5.5-3.2h0ZM49.9,74.8c-.9.9-3.5,1.3-5.6,1.3s-1.1,0-1.8,0c-.5,0-1-.2-1.3-.5-2.1-1.9-4.6-4.1-5.2-4.7h0c-1.5-1.4-3-2.8-4.3-4-.6-.6-1.2-1-1.7-1.5l-.6-.5c-1.8-1.5-3-2.6-3.1-3.2,0,0,0-.3.4-.7l.4-.4c1.4,1.3,5.5,5.1,7.5,6.9.7.6,2.4,2.3,2.4,2.3,1.2,1.2,3.7,3.7,4.9,4.5h0c.4.3.9.5,1.4.5,1.5,0,2.7,0,3.7-.2,1.5-.2,2.6-.5,3.3-.8,0,0,0,.2,0,.3,0,.3,0,.5-.3.7h0Z"/>
      <path class="cls-4" d="M33.3,74.2h-5.8c-.5,0-.9.4-.9.8s.4.8.9.8h5.8c.5,0,.9-.4.9-.8s-.4-.8-.9-.8Z"/>
      <path class="cls-4" d="M30.4,71.6c0-.5-.4-.8-.9-.8h-5.8c-.5,0-.9.4-.9.8s.4.8.9.8h5.8c.5,0,.9-.4.9-.8Z"/>
      <path class="cls-4" d="M26.6,68.2c0-.5-.4-.8-.9-.8h-5.8c-.5,0-.9.4-.9.8s.4.8.9.8h5.8c.5,0,.9-.4.9-.8Z"/>
    </g>
  </g>
  <g class="cls-10">
    <g>
      <path class="cls-3" d="M32.9,232.2c-.1.4-.3.7-.4,1.1.2,0,.4.1.5.2,2,.5,4,.8,6.1.9,1,0,1.9.1,2.9.3,1,.1,1.5.9,1.2,1.8-.1.5-.5.9-1,1-.3,0-.6.1-.9.1-1.3,0-2.6,0-3.9.1-1.2,0-2.3-.1-3.4-.3-1.1-.2-2.3-.3-3.4-.5-1-.2-1.9-.6-2.7-1.4-1.2-1.3-.9-4.4,1.6-4.9,2.1-.4,4.2-.9,6.3-1.3.4,0,.7-.3.9-.6,1.3-2.2,2.5-4.3,3.8-6.5.2-.3.3-.5.6-.8.5-.5,1.2-.5,1.9-.4,1.8.4,3.6.8,5.3,1.3.9.2,1.8.4,2.8.7.6.1,1,.4,1.2,1,.5,1.2-.3,2.3-1.7,2.2-.8,0-1.6-.2-2.4-.3-1.4-.2-2.8-.4-4.2-.6-.5,0-.5,0-.7.4-.7,1.9-1.4,3.8-2.1,5.7-.2.5-.5,1-.9,1.4-.3.3-.5.4-.9.3-2-.1-4-.3-5.9-.9-.2,0-.4,0-.6-.1h0Z"/>
      <path class="cls-3" d="M19,233.1c0-2.1,1.7-3.7,3.8-3.7,2.1,0,3.7,1.8,3.7,3.8,0,2.1-1.8,3.8-3.8,3.7-2.2,0-3.8-1.9-3.7-3.8Z"/>
      <path class="cls-3" d="M47.6,227c-3.5,2.1-3.4,5.8-1.7,7.8,1.9,2.2,5.2,2.4,7.4.4,1.2-1.2,1.7-2.7,1.5-4.3-.2-1.7-1.2-2.8-2.6-3.7.3-.3.6-.5,1-.8,1.6,1,2.6,2.5,2.8,4.4.5,3.5-1.9,6.6-5.4,7-3.4.5-6.5-2-6.9-5.4-.2-2.1.4-3.8,1.9-5.3.2-.2.4-.3.8-.3.4,0,.8.1,1.3.2h0Z"/>
      <path class="cls-3" d="M45.8,231.6c0-.8.2-1.5.5-2.1,0-.2.2-.3.3-.4.2-.2.4-.2.6,0,.1.1.2.4.2.5,0,.1-.1.2-.2.4-.6,1.1-.6,2.2,0,3.2,0,.1.1.2.1.3.1.2,0,.5-.2.6-.2.1-.5,0-.7-.1,0-.1-.1-.2-.2-.4-.3-.6-.4-1.3-.5-1.9h0Z"/>
    </g>
  </g>
  <g class="cls-13">
    <g>
      <path class="cls-3" d="M35,157.2c-.4-.4-.8-.7-1.1-1.1-.7-.7-1.4-1.5-2.1-2.3-.4-.5-.7-1.1-.7-1.8-.2-1.7-.5-3.4-.7-5-.2-1.2-.1-2.5.3-3.7.6-1.6,1.8-2.5,3.8-2.4.1,0,.3,0,.4,0,1.4.2,2.3.9,2.8,2.2.2.5.3,1,.5,1.6.6,2.4,1.9,4.4,3.7,6.2.4.3.7.7,1.1,1,.3.3.6.6.8,1,0,.2.2.3.4.4.4.2.8.3,1.1.5.1,0,.2.1.4.2.3.2.5.5.4.8,0,.3-.3.5-.6.6-.2,0-.4.1-.6.3-1.7,1.5-3.6,2.6-5.5,3.8-2.2,1.3-4.5,2.5-6.9,3.4-1.9.7-3.8,1.2-5.8,1.2-.8,0-1.6,0-2.4-.2-.3,0-.7-.2-1-.3-1.4-.7-2-1.9-1.6-3.4.3-1,.8-1.9,1.4-2.8,1.8-2.4,4.1-4.3,6.6-5.9,0,0,0,0,.2,0,0,.4.2.8.2,1.2,0,.2-.2.3-.3.4-1.1.9-2.2,1.7-3.3,2.6-1,.9-1.9,1.9-2.6,3-.4.6-.7,1.2-.9,2-.1.7,0,1.2.7,1.6.6.4,1.2.5,1.9.5,1.5,0,3-.2,4.5-.6.9-.3,1.9-.6,2.8-.9.3,0,.4-.2.6-.5.6-1.2,1.2-2.4,1.8-3.6h0ZM33.6,147.6c0,.3.1.5.2.7.4,1.1,1,2.1,1.8,3,1.1,1.4,2.4,2.5,3.8,3.6.8.6,1.2,1.3.9,2.4,0,0,0,0,0,.1,1.1-.7,2.3-1.4,3.3-2.3-.3-.2-.5-.3-.8-.2-.5.2-1.1.1-1.6-.1-.3-.1-.6-.3-.8-.5-2.4-1.8-4.5-3.9-5.7-6.7,0,0,0,0-.2-.2-.3.1-.6.2-.9.3h0Z"/>
      <path class="cls-3" d="M36.3,140.4c-2.1,0-3.7-1.6-3.7-3.7,0-2.1,1.7-3.7,3.7-3.7,2.1,0,3.7,1.6,3.7,3.7,0,2.1-1.6,3.7-3.7,3.6h0Z"/>
      <path class="cls-3" d="M30.4,154.1c.5.6.9,1.1,1.3,1.6.4.5.9,1,1.4,1.5-.1.1-.2.2-.3.3-1,.7-2,1.4-2.9,2.1-.1.1-.3.2-.4.3-1.1.6-2.2.2-2.7-.9-.2-.4-.2-.9,0-1.3.2-.3.4-.6.6-.8.9-.9,1.8-1.7,2.8-2.6,0,0,.1,0,.2-.2Z"/>
      <path class="cls-3" d="M37.4,161.9c-.3.5-.6.9-.9,1.4-.5.7-1,1.4-1.5,2.1-.8,1-2.2.9-3,0-.1-.2-.2-.4-.3-.6-.1-.4,0-.5.3-.6.9-.3,1.8-.6,2.7-1,.9-.4,1.7-.8,2.5-1.2,0,0,0,0,0,0h0Z"/>
      <path class="cls-3" d="M19,160.6c0-.9.2-1.6.5-2.2.6-1.3,1.5-2.5,2.6-3.6,0,0,.1-.1.2-.2.2-.2.5-.1.7,0,.2.2.2.4.1.7,0,.2-.2.3-.3.4-.7.8-1.4,1.7-1.9,2.7-.2.5-.4,1-.6,1.4-.1.4-.1.8,0,1.2.2.4,0,.7-.2.8-.3.1-.7,0-.8-.4-.1-.3-.2-.7-.2-.9h0Z"/>
      <path class="cls-3" d="M40.6,161.5c-.2-.1-.4-.2-.5-.4-.2-.2,0-.4,0-.6.1-.1.3-.2.4-.3,1.4-.8,2.7-1.8,3.9-3,0,0,.2-.2.3-.2.2-.2.5,0,.7,0,.2.2.2.4.1.7,0,.1-.2.2-.3.3-1.2,1.2-2.7,2.3-4.2,3.2-.1,0-.3.1-.5.2Z"/>
      <path class="cls-3" d="M40.3,147c.8.1,1.5.2,2.3.4.6.1,1,.6,1.1,1.2,0,.6-.1,1.1-.6,1.5-.2.1-.3.2-.5,0-.9-.9-1.7-1.8-2.2-2.9,0,0,0,0,0-.2Z"/>
    </g>
  </g>
</svg>