<svg width="350" height="105" viewBox="0 0 350 105" fill="none" xmlns="http://www.w3.org/2000/svg">
<path d="M136.281 42V15.0703H136.141L130 19.8281V13.1016L136.281 8.17969H143.148V42H136.281ZM157.563 42.4922C155.454 42.4922 153.626 42.0859 152.079 41.2734C150.532 40.4609 149.321 39.3047 148.446 37.8047C147.587 36.2891 147.126 34.4766 147.063 32.3672L147.017 31.5938H153.626L153.673 32.25C153.72 33.2188 153.899 34.0391 154.212 34.7109C154.54 35.3672 154.978 35.8672 155.524 36.2109C156.087 36.5547 156.743 36.7266 157.493 36.7266C158.259 36.7266 158.907 36.5469 159.438 36.1875C159.97 35.8125 160.376 35.2812 160.657 34.5938C160.954 33.9062 161.103 33.1016 161.103 32.1797V32.1328C161.103 30.4453 160.743 29.1953 160.024 28.3828C159.321 27.5547 158.251 27.1406 156.813 27.1406H154.329V22.0547H156.813C157.626 22.0547 158.321 21.8828 158.899 21.5391C159.478 21.1953 159.915 20.6875 160.212 20.0156C160.524 19.3438 160.681 18.5234 160.681 17.5547V17.5078C160.681 16.6016 160.548 15.8281 160.282 15.1875C160.032 14.5469 159.657 14.0547 159.157 13.7109C158.657 13.3672 158.048 13.1953 157.329 13.1953C156.626 13.1953 156.017 13.375 155.501 13.7344C155.001 14.0781 154.603 14.5859 154.306 15.2578C154.024 15.9297 153.86 16.7422 153.813 17.6953V18.3984H147.509V17.7656C147.571 15.6406 148.017 13.8281 148.845 12.3281C149.673 10.8281 150.821 9.67969 152.29 8.88281C153.759 8.08594 155.485 7.6875 157.47 7.6875C159.47 7.6875 161.196 8.05469 162.649 8.78906C164.103 9.52344 165.22 10.5547 166.001 11.8828C166.798 13.2109 167.196 14.7578 167.196 16.5234V16.5703C167.196 17.9297 166.97 19.1406 166.517 20.2031C166.063 21.2656 165.423 22.1484 164.595 22.8516C163.767 23.5547 162.782 24.0391 161.642 24.3047V24.4453C163.626 24.7266 165.196 25.5938 166.353 27.0469C167.509 28.4844 168.087 30.3281 168.087 32.5781V32.625C168.087 34.6094 167.657 36.3438 166.798 37.8281C165.938 39.2969 164.72 40.4453 163.142 41.2734C161.579 42.0859 159.72 42.4922 157.563 42.4922ZM180.182 42.4922C178.275 42.4922 176.611 42.0938 175.189 41.2969C173.768 40.4844 172.65 39.3438 171.838 37.875C171.041 36.4062 170.603 34.6797 170.525 32.6953L170.502 31.8984H176.76L176.807 32.5781C176.869 33.4219 177.041 34.1641 177.322 34.8047C177.603 35.4453 177.986 35.9453 178.471 36.3047C178.955 36.6641 179.533 36.8438 180.205 36.8438C180.924 36.8594 181.533 36.6328 182.033 36.1641C182.549 35.6797 182.939 34.9766 183.205 34.0547C183.471 33.1328 183.603 32.0078 183.603 30.6797V30.6328C183.603 29.4141 183.471 28.3672 183.205 27.4922C182.939 26.6172 182.557 25.9453 182.057 25.4766C181.557 25.0078 180.955 24.7734 180.252 24.7734C179.627 24.7734 179.096 24.9297 178.658 25.2422C178.221 25.5391 177.846 25.9688 177.533 26.5312C177.408 26.7969 177.291 27.1016 177.182 27.4453C177.072 27.7734 176.986 28.1094 176.924 28.4531H170.947L171.814 8.17969H188.596V13.8516H177.252L176.736 22.9922H176.9C177.228 22.2891 177.658 21.6875 178.189 21.1875C178.736 20.6875 179.369 20.3125 180.088 20.0625C180.807 19.7969 181.588 19.6641 182.432 19.6641C184.01 19.6641 185.377 20.1094 186.533 21C187.689 21.8906 188.588 23.1562 189.228 24.7969C189.869 26.4219 190.189 28.3438 190.189 30.5625V30.6094C190.189 33.0781 189.791 35.2031 188.994 36.9844C188.197 38.7656 187.049 40.1328 185.549 41.0859C184.049 42.0234 182.26 42.4922 180.182 42.4922Z" fill="white"/>
<path d="M193.004 41V26.3906H195.123V41H193.004ZM203.408 41.1855C202.914 41.1855 202.458 41.1107 202.041 40.9609C201.625 40.8112 201.257 40.5964 200.938 40.3164C200.625 40.0365 200.365 39.7012 200.156 39.3105H200.02V41H197.901V26.3906H200.02V32.1621H200.156C200.352 31.778 200.609 31.446 200.928 31.166C201.253 30.8861 201.628 30.6712 202.051 30.5215C202.474 30.3652 202.927 30.2871 203.408 30.2871C204.3 30.2871 205.072 30.5085 205.723 30.9512C206.38 31.3939 206.888 32.0221 207.246 32.8359C207.604 33.6497 207.783 34.6133 207.783 35.7266V35.7461C207.783 36.8529 207.601 37.8132 207.237 38.627C206.878 39.4408 206.371 40.0723 205.713 40.5215C205.062 40.9642 204.294 41.1855 203.408 41.1855ZM202.813 39.3691C203.399 39.3691 203.9 39.2227 204.317 38.9297C204.733 38.6367 205.052 38.2201 205.274 37.6797C205.502 37.1393 205.615 36.4948 205.615 35.7461V35.7266C205.615 34.9714 205.502 34.3268 205.274 33.793C205.052 33.2526 204.733 32.8359 204.317 32.543C203.9 32.25 203.399 32.1035 202.813 32.1035C202.24 32.1035 201.742 32.25 201.319 32.543C200.895 32.8359 200.567 33.2526 200.332 33.793C200.104 34.3333 199.99 34.9779 199.99 35.7266V35.7461C199.99 36.4883 200.104 37.1296 200.332 37.6699C200.567 38.2103 200.895 38.6302 201.319 38.9297C201.742 39.2227 202.24 39.3691 202.813 39.3691ZM213.706 41.2051C212.853 41.2051 212.114 41.0781 211.489 40.8242C210.864 40.5703 210.366 40.2188 209.995 39.7695C209.63 39.3138 209.415 38.7865 209.35 38.1875L209.34 38.1582H211.459L211.469 38.1875C211.599 38.6042 211.853 38.9395 212.231 39.1934C212.609 39.4408 213.113 39.5645 213.745 39.5645C214.181 39.5645 214.558 39.5059 214.877 39.3887C215.203 39.265 215.457 39.0957 215.639 38.8809C215.821 38.666 215.913 38.4154 215.913 38.1289V38.1094C215.913 37.7773 215.782 37.5007 215.522 37.2793C215.268 37.0579 214.842 36.8757 214.243 36.7324L212.563 36.3516C211.899 36.1953 211.349 35.9902 210.913 35.7363C210.476 35.4759 210.151 35.1569 209.936 34.7793C209.728 34.3952 209.624 33.946 209.624 33.4316V33.4219C209.624 32.8034 209.796 32.2598 210.141 31.791C210.493 31.3158 210.978 30.9447 211.596 30.6777C212.215 30.4043 212.921 30.2676 213.715 30.2676C214.523 30.2676 215.226 30.3978 215.825 30.6582C216.424 30.9121 216.896 31.2637 217.241 31.7129C217.586 32.1556 217.788 32.6667 217.846 33.2461V33.2852H215.825V33.2559C215.734 32.8652 215.506 32.543 215.141 32.2891C214.783 32.0352 214.305 31.9082 213.706 31.9082C213.321 31.9082 212.983 31.9668 212.69 32.084C212.397 32.2012 212.166 32.3639 211.997 32.5723C211.834 32.7806 211.752 33.028 211.752 33.3145V33.334C211.752 33.5488 211.808 33.7409 211.918 33.9102C212.029 34.0729 212.205 34.2194 212.446 34.3496C212.687 34.4733 212.999 34.5807 213.383 34.6719L215.063 35.0625C216.092 35.2969 216.847 35.6419 217.329 36.0977C217.817 36.5469 218.061 37.1523 218.061 37.9141V37.9336C218.061 38.5846 217.872 39.1576 217.495 39.6523C217.117 40.1406 216.599 40.5215 215.942 40.7949C215.291 41.0684 214.545 41.2051 213.706 41.2051Z" fill="white"/>
<path d="M24.6703 73.1808L36.2972 65.042C37.225 64.3925 38.5 65.0563 38.5 66.1889L38.5 81.8111C38.5 82.9437 37.225 83.6075 36.2972 82.958L24.6703 74.8192C24.1016 74.4211 24.1016 73.5789 24.6703 73.1808Z" fill="white"/>
<rect x="52" y="69" width="2" height="10" rx="1" fill="#D9D9D9"/>
<rect x="57" y="69" width="2" height="10" rx="1" fill="#D9D9D9"/>
<rect x="62" y="69" width="2" height="10" rx="1" fill="#D9D9D9"/>
<rect x="67" y="69" width="2" height="10" rx="1" fill="#D9D9D9"/>
<rect x="72" y="64" width="2" height="20" rx="1" fill="#D9D9D9"/>
<rect x="77" y="69" width="2" height="10" rx="1" fill="#D9D9D9"/>
<rect x="82" y="69" width="2" height="10" rx="1" fill="#D9D9D9"/>
<rect x="87" y="69" width="2" height="10" rx="1" fill="#D9D9D9"/>
<rect x="92" y="69" width="2" height="10" rx="1" fill="#D9D9D9"/>
<rect x="97" y="64" width="2" height="20" rx="1" fill="#D9D9D9"/>
<rect x="102" y="69" width="2" height="10" rx="1" fill="#D9D9D9"/>
<rect x="107" y="69" width="2" height="10" rx="1" fill="#D9D9D9"/>
<rect x="112" y="69" width="2" height="10" rx="1" fill="#D9D9D9"/>
<rect x="117" y="69" width="2" height="10" rx="1" fill="#D9D9D9"/>
<rect x="122" y="64" width="2" height="20" rx="1" fill="#D9D9D9"/>
<rect x="127" y="69" width="2" height="10" rx="1" fill="#D9D9D9"/>
<rect x="132" y="69" width="2" height="10" rx="1" fill="#D9D9D9"/>
<rect x="137" y="69" width="2" height="10" rx="1" fill="#D9D9D9"/>
<rect x="142" y="69" width="2" height="10" rx="1" fill="#D9D9D9"/>
<rect x="147" y="64" width="2" height="20" rx="1" fill="#D9D9D9"/>
<rect x="152" y="69" width="2" height="10" rx="1" fill="#D9D9D9"/>
<rect x="157" y="69" width="2" height="10" rx="1" fill="#D9D9D9"/>
<rect x="162" y="69" width="2" height="10" rx="1" fill="#D9D9D9"/>
<rect x="167" y="69" width="2" height="10" rx="1" fill="#D9D9D9"/>
<g filter="url(#filter0_d_3271_14938)">
<path d="M177.949 88.6555C177.979 89.5176 177.421 90.2904 176.593 90.5331C175.553 90.8379 174.447 90.8379 173.407 90.5331C172.579 90.2904 172.021 89.5176 172.051 88.6555L173.103 58.5062C173.117 58.1214 173.344 57.7765 173.693 57.613C174.521 57.2246 175.479 57.2246 176.307 57.613C176.656 57.7765 176.883 58.1214 176.897 58.5062L177.949 88.6555Z" fill="#3A3939" shape-rendering="crispEdges"/>
<path d="M176.874 91.4927C178.141 91.1215 178.994 89.9393 178.948 88.6206L177.896 58.4714C177.87 57.7115 177.42 57.0304 176.732 56.7076C175.635 56.1931 174.365 56.1931 173.268 56.7076C172.58 57.0304 172.13 57.7115 172.104 58.4713L171.052 88.6206C171.006 89.9393 171.859 91.1215 173.126 91.4927C174.349 91.8514 175.651 91.8514 176.874 91.4927Z" stroke="black" stroke-opacity="0.4" stroke-width="2" shape-rendering="crispEdges"/>
</g>
<rect x="181" y="69" width="2" height="10" rx="1" fill="#D9D9D9"/>
<rect x="186" y="69" width="2" height="10" rx="1" fill="#D9D9D9"/>
<rect x="191" y="69" width="2" height="10" rx="1" fill="#D9D9D9"/>
<rect x="196" y="69" width="2" height="10" rx="1" fill="#D9D9D9"/>
<rect x="201" y="64" width="2" height="20" rx="1" fill="#D9D9D9"/>
<rect x="206" y="69" width="2" height="10" rx="1" fill="#D9D9D9"/>
<rect x="211" y="69" width="2" height="10" rx="1" fill="#D9D9D9"/>
<rect x="216" y="69" width="2" height="10" rx="1" fill="#D9D9D9"/>
<rect x="221" y="69" width="2" height="10" rx="1" fill="#D9D9D9"/>
<rect x="226" y="64" width="2" height="20" rx="1" fill="#D9D9D9"/>
<rect x="231" y="69" width="2" height="10" rx="1" fill="#D9D9D9"/>
<rect x="236" y="69" width="2" height="10" rx="1" fill="#D9D9D9"/>
<rect x="241" y="69" width="2" height="10" rx="1" fill="#D9D9D9"/>
<rect x="246" y="69" width="2" height="10" rx="1" fill="#D9D9D9"/>
<rect x="251" y="64" width="2" height="20" rx="1" fill="#D9D9D9"/>
<rect x="256" y="69" width="2" height="10" rx="1" fill="#D9D9D9"/>
<rect x="261" y="69" width="2" height="10" rx="1" fill="#D9D9D9"/>
<rect x="266" y="69" width="2" height="10" rx="1" fill="#D9D9D9"/>
<rect x="271" y="69" width="2" height="10" rx="1" fill="#D9D9D9"/>
<rect x="276" y="64" width="2" height="20" rx="1" fill="#D9D9D9"/>
<rect x="281" y="69" width="2" height="10" rx="1" fill="#D9D9D9"/>
<rect x="286" y="69" width="2" height="10" rx="1" fill="#D9D9D9"/>
<rect x="291" y="69" width="2" height="10" rx="1" fill="#D9D9D9"/>
<rect x="296" y="69" width="2" height="10" rx="1" fill="#D9D9D9"/>
<path d="M325.33 74.8192L313.703 82.958C312.775 83.6075 311.5 82.9437 311.5 81.8111L311.5 66.1889C311.5 65.0563 312.775 64.3925 313.703 65.042L325.33 73.1808C325.898 73.5789 325.898 74.4211 325.33 74.8192Z" fill="white"/>
<path d="M271.541 95V89.1943H271.453L269.7 90.4297V89.248L271.541 87.9541H272.795V95H271.541ZM277.277 95.1758C276.799 95.1758 276.377 95.0863 276.013 94.9072C275.648 94.7282 275.358 94.4857 275.144 94.1797C274.929 93.8704 274.805 93.5238 274.772 93.1396L274.768 93.0762H275.925L275.935 93.1104C275.967 93.3024 276.044 93.4766 276.164 93.6328C276.285 93.7891 276.441 93.9144 276.633 94.0088C276.825 94.0999 277.041 94.1455 277.282 94.1455C277.556 94.1455 277.797 94.0853 278.005 93.9648C278.216 93.8444 278.381 93.6784 278.498 93.4668C278.615 93.252 278.674 93.0078 278.674 92.7344V92.7246C278.674 92.4512 278.614 92.2103 278.493 92.002C278.376 91.7904 278.213 91.626 278.005 91.5088C277.8 91.3883 277.562 91.3281 277.292 91.3281C277.093 91.3281 276.91 91.3574 276.74 91.416C276.574 91.4746 276.426 91.5625 276.296 91.6797C276.231 91.735 276.171 91.7969 276.115 91.8652C276.06 91.9303 276.011 92.002 275.969 92.0801H274.89L275.231 87.9541H279.46V88.9844H276.213L276.013 91.1328H276.101C276.198 90.9733 276.322 90.8382 276.472 90.7275C276.621 90.6136 276.792 90.5273 276.984 90.4688C277.176 90.4069 277.382 90.376 277.6 90.376C278.042 90.376 278.433 90.4769 278.771 90.6787C279.113 90.8773 279.382 91.1523 279.577 91.5039C279.772 91.8522 279.87 92.251 279.87 92.7002V92.71C279.87 93.1982 279.759 93.6279 279.538 93.999C279.32 94.3669 279.016 94.6549 278.625 94.8633C278.234 95.0716 277.785 95.1758 277.277 95.1758ZM283.732 95.1758C283.253 95.1758 282.832 95.0863 282.467 94.9072C282.103 94.7282 281.813 94.4857 281.598 94.1797C281.383 93.8704 281.26 93.5238 281.227 93.1396L281.222 93.0762H282.379L282.389 93.1104C282.422 93.3024 282.498 93.4766 282.619 93.6328C282.739 93.7891 282.895 93.9144 283.087 94.0088C283.279 94.0999 283.496 94.1455 283.737 94.1455C284.01 94.1455 284.251 94.0853 284.459 93.9648C284.671 93.8444 284.835 93.6784 284.953 93.4668C285.07 93.252 285.128 93.0078 285.128 92.7344V92.7246C285.128 92.4512 285.068 92.2103 284.948 92.002C284.831 91.7904 284.668 91.626 284.459 91.5088C284.254 91.3883 284.017 91.3281 283.747 91.3281C283.548 91.3281 283.364 91.3574 283.195 91.416C283.029 91.4746 282.881 91.5625 282.751 91.6797C282.685 91.735 282.625 91.7969 282.57 91.8652C282.515 91.9303 282.466 92.002 282.423 92.0801H281.344L281.686 87.9541H285.915V88.9844H282.668L282.467 91.1328H282.555C282.653 90.9733 282.777 90.8382 282.926 90.7275C283.076 90.6136 283.247 90.5273 283.439 90.4688C283.631 90.4069 283.836 90.376 284.054 90.376C284.497 90.376 284.888 90.4769 285.226 90.6787C285.568 90.8773 285.836 91.1523 286.032 91.5039C286.227 91.8522 286.325 92.251 286.325 92.7002V92.71C286.325 93.1982 286.214 93.6279 285.993 93.999C285.775 94.3669 285.47 94.6549 285.08 94.8633C284.689 95.0716 284.24 95.1758 283.732 95.1758Z" fill="white"/>
<path d="M68.8071 95V89.1943H68.7192L66.9663 90.4297V89.248L68.8071 87.9541H70.062V95H68.8071ZM73.7285 95V89.1943H73.6406L71.8877 90.4297V89.248L73.7285 87.9541H74.9834V95H73.7285ZM79.4654 95.1758C78.9868 95.1758 78.5653 95.0863 78.2007 94.9072C77.8361 94.7282 77.5464 94.4857 77.3316 94.1797C77.1167 93.8704 76.993 93.5238 76.9605 93.1396L76.9556 93.0762H78.1128L78.1226 93.1104C78.1551 93.3024 78.2316 93.4766 78.3521 93.6328C78.4725 93.7891 78.6288 93.9144 78.8208 94.0088C79.0129 94.0999 79.2293 94.1455 79.4702 94.1455C79.7437 94.1455 79.9846 94.0853 80.1929 93.9648C80.4045 93.8444 80.5689 93.6784 80.6861 93.4668C80.8032 93.252 80.8618 93.0078 80.8618 92.7344V92.7246C80.8618 92.4512 80.8016 92.2103 80.6812 92.002C80.564 91.7904 80.4012 91.626 80.1929 91.5088C79.9878 91.3883 79.7502 91.3281 79.48 91.3281C79.2814 91.3281 79.0975 91.3574 78.9282 91.416C78.7622 91.4746 78.6141 91.5625 78.4839 91.6797C78.4188 91.735 78.3586 91.7969 78.3032 91.8652C78.2479 91.9303 78.1991 92.002 78.1568 92.0801H77.0777L77.4195 87.9541H81.648V88.9844H78.4009L78.2007 91.1328H78.2886C78.3863 90.9733 78.5099 90.8382 78.6597 90.7275C78.8094 90.6136 78.9803 90.5273 79.1724 90.4688C79.3644 90.4069 79.5695 90.376 79.7876 90.376C80.2303 90.376 80.621 90.4769 80.9595 90.6787C81.3013 90.8773 81.5698 91.1523 81.7652 91.5039C81.9605 91.8522 82.0581 92.251 82.0581 92.7002V92.71C82.0581 93.1982 81.9474 93.6279 81.7261 93.999C81.508 94.3669 81.2036 94.6549 80.813 94.8633C80.4224 95.0716 79.9732 95.1758 79.4654 95.1758Z" fill="white"/>
<defs>
<filter id="filter0_d_3271_14938" x="162.05" y="51.3217" width="25.9001" height="53.44" filterUnits="userSpaceOnUse" color-interpolation-filters="sRGB">
<feFlood flood-opacity="0" result="BackgroundImageFix"/>
<feColorMatrix in="SourceAlpha" type="matrix" values="0 0 0 0 0 0 0 0 0 0 0 0 0 0 0 0 0 0 127 0" result="hardAlpha"/>
<feOffset dy="4"/>
<feGaussianBlur stdDeviation="4"/>
<feComposite in2="hardAlpha" operator="out"/>
<feColorMatrix type="matrix" values="0 0 0 0 0 0 0 0 0 0 0 0 0 0 0 0 0 0 0.25 0"/>
<feBlend mode="normal" in2="BackgroundImageFix" result="effect1_dropShadow_3271_14938"/>
<feBlend mode="normal" in="SourceGraphic" in2="effect1_dropShadow_3271_14938" result="shape"/>
</filter>
</defs>
</svg>
